<?xml version="1.0" encoding="utf-8"?>
<!-- Generator: Adobe Illustrator 28.1.0, SVG Export Plug-In . SVG Version: 6.00 Build 0)  -->
<svg version="1.1" id="Layer_1" xmlns="http://www.w3.org/2000/svg" xmlns:xlink="http://www.w3.org/1999/xlink" x="0px" y="0px"
	 viewBox="0 0 654.5 485" style="enable-background:new 0 0 654.5 485;" xml:space="preserve">
<style type="text/css">
	.st0{fill:none;stroke:url(#SVGID_1_);stroke-miterlimit:10;}
	.st1{fill:none;stroke:url(#SVGID_00000109734547048546998690000000893703937076145578_);stroke-miterlimit:10;}
	
		.st2{clip-path:url(#SVGID_00000140005946404452698960000017055811372915993504_);fill:url(#SVGID_00000181056899563152355530000001016194992607722899_);}
	.st3{fill:#FFFFFF;}
	.st4{fill:none;stroke:url(#SVGID_00000049935647489916148380000010920329738929371564_);stroke-miterlimit:10;}
	.st5{fill:none;stroke:url(#SVGID_00000070830824822686308300000014056637554449000586_);stroke-miterlimit:10;}
	.st6{fill:none;stroke:url(#SVGID_00000016792917703068734940000007684615994902236834_);stroke-miterlimit:10;}
	.st7{fill:none;stroke:url(#SVGID_00000075875056003970168560000014687817578542852994_);stroke-miterlimit:10;}
</style>
<g>
	<linearGradient id="SVGID_1_" gradientUnits="userSpaceOnUse" x1="483.61" y1="282.4467" x2="483.61" y2="149.7495">
		<stop  offset="0" style="stop-color:#0B4B7F"/>
		<stop  offset="0.1286" style="stop-color:#564569"/>
		<stop  offset="0.3135" style="stop-color:#883A4C"/>
		<stop  offset="0.4458" style="stop-color:#A53038"/>
		<stop  offset="0.5114" style="stop-color:#AF2A30"/>
		<stop  offset="0.7132" style="stop-color:#C64D2E"/>
		<stop  offset="1" style="stop-color:#F58220"/>
	</linearGradient>
	<path class="st0" d="M440.5,282.4v-85.5c0-3.8,2.8-8.2,6.3-9.8l80.2-36.9l0,0l-80.2,36.9c-3.5,1.6-6.3,6-6.3,9.8V282.4L440.5,282.4
		z"/>
	
		<linearGradient id="SVGID_00000059308698302320598100000016438416712558790059_" gradientUnits="userSpaceOnUse" x1="392.0978" y1="184.0418" x2="392.0978" y2="71.1288">
		<stop  offset="0" style="stop-color:#0B4B7F"/>
		<stop  offset="0.1286" style="stop-color:#564569"/>
		<stop  offset="0.3135" style="stop-color:#883A4C"/>
		<stop  offset="0.4458" style="stop-color:#A53038"/>
		<stop  offset="0.5114" style="stop-color:#AF2A30"/>
		<stop  offset="0.7132" style="stop-color:#C64D2E"/>
		<stop  offset="1" style="stop-color:#F58220"/>
	</linearGradient>
	<path style="fill:none;stroke:url(#SVGID_00000059308698302320598100000016438416712558790059_);stroke-miterlimit:10;" d="
		M430.5,183.6l-70.6-40.8c-3.3-1.9-6-6.5-6-10.3V71.1l0,0v61.3c0,3.8,2.7,8.4,6,10.3L430.5,183.6L430.5,183.6z"/>
	<g>
		<path d="M234.5,11.5h-4v3.7h4.5v1.1h-5.8V6h5.6v1.1h-4.2v3.3h4V11.5z"/>
		<path d="M245.9,6.8c-0.3-0.2-0.9-0.4-1.5-0.4c-1.4,0-1.9,1-1.9,2.2v0.4h4.3v7.4h-1.3V9.9h-3v6.4h-1.3V9.9h-3.1v6.4h-1.3V9.9h-1v-1
			h1V8.6c0-0.9,0.2-1.8,0.9-2.5c0.4-0.4,1.1-0.7,1.9-0.7c0.5,0,1,0.2,1.3,0.3l-0.4,1c-0.2-0.1-0.6-0.3-0.9-0.3c-0.4,0-0.7,0.2-1,0.4
			c-0.4,0.4-0.5,1.1-0.5,1.7v0.3h3.1V8.5c0-2,1.2-3.2,3.3-3.2c0.7,0,1.4,0.2,1.8,0.5L245.9,6.8z"/>
		<path d="M254.4,16.1c-0.4,0.2-1.1,0.4-2.1,0.4c-2.2,0-3.7-1.5-3.7-3.8c0-2.3,1.6-3.9,4-3.9c0.8,0,1.5,0.2,1.9,0.4l-0.3,1
			c-0.3-0.2-0.8-0.4-1.6-0.4c-1.7,0-2.6,1.3-2.6,2.8c0,1.7,1.1,2.8,2.6,2.8c0.8,0,1.3-0.2,1.7-0.4L254.4,16.1z"/>
		<path d="M257.5,6.8c0,0.5-0.3,0.8-0.9,0.8c-0.5,0-0.8-0.4-0.8-0.8c0-0.5,0.4-0.8,0.8-0.8C257.2,6,257.5,6.3,257.5,6.8z M256,16.3
			V8.9h1.3v7.4H256z"/>
		<path d="M260.3,12.9c0,1.8,1.2,2.6,2.5,2.6c1,0,1.5-0.2,2.1-0.4l0.2,1c-0.5,0.2-1.3,0.5-2.5,0.5c-2.3,0-3.6-1.5-3.6-3.7
			s1.3-4,3.5-4c2.4,0,3.1,2.1,3.1,3.5c0,0.3,0,0.5,0,0.6H260.3z M264.3,11.9c0-0.9-0.4-2.2-1.9-2.2c-1.4,0-2,1.3-2.1,2.2H264.3z"/>
		<path d="M267.3,10.9c0-0.8,0-1.4-0.1-2h1.2l0.1,1.2h0c0.4-0.7,1.2-1.4,2.5-1.4c1,0,2.6,0.6,2.6,3.2v4.4h-1.3V12
			c0-1.2-0.4-2.2-1.7-2.2c-0.9,0-1.6,0.6-1.8,1.4c-0.1,0.2-0.1,0.4-0.1,0.6v4.5h-1.3V10.9z"/>
		<path d="M277.4,6.8v2.1h1.9v1h-1.9v4c0,0.9,0.3,1.4,1,1.4c0.4,0,0.6,0,0.8-0.1l0.1,1c-0.3,0.1-0.7,0.2-1.2,0.2
			c-0.6,0-1.1-0.2-1.5-0.6c-0.4-0.4-0.5-1.1-0.5-1.9v-4h-1.1v-1h1.1V7.1L277.4,6.8z"/>
		<path d="M290.3,14.3c0,0.8,0,1.4,0.1,2h-1.2l-0.1-1.2h0c-0.4,0.6-1.1,1.4-2.5,1.4c-1.2,0-2.6-0.6-2.6-3.3V8.9h1.3V13
			c0,1.4,0.4,2.4,1.7,2.4c0.9,0,1.5-0.6,1.8-1.2c0.1-0.2,0.1-0.4,0.1-0.7V8.9h1.3V14.3z"/>
		<path d="M292.4,14.9c0.4,0.3,1.1,0.5,1.8,0.5c1,0,1.4-0.5,1.4-1.1c0-0.6-0.4-1-1.4-1.4c-1.3-0.5-2-1.2-2-2.1c0-1.2,1-2.2,2.6-2.2
			c0.8,0,1.4,0.2,1.8,0.5l-0.3,1c-0.3-0.2-0.8-0.4-1.5-0.4c-0.8,0-1.2,0.5-1.2,1c0,0.6,0.4,0.9,1.4,1.3c1.3,0.5,1.9,1.1,1.9,2.2
			c0,1.3-1,2.2-2.8,2.2c-0.8,0-1.6-0.2-2.1-0.5L292.4,14.9z"/>
		<path d="M299.4,12.9c0,1.8,1.2,2.6,2.5,2.6c1,0,1.5-0.2,2.1-0.4l0.2,1c-0.5,0.2-1.3,0.5-2.5,0.5c-2.3,0-3.6-1.5-3.6-3.7
			s1.3-4,3.5-4c2.4,0,3.1,2.1,3.1,3.5c0,0.3,0,0.5,0,0.6H299.4z M303.3,11.9c0-0.9-0.4-2.2-1.9-2.2c-1.4,0-2,1.3-2.1,2.2H303.3z"/>
		<path d="M316.3,12.6c0,2.7-1.9,3.9-3.7,3.9c-2,0-3.6-1.5-3.6-3.8c0-2.5,1.6-3.9,3.7-3.9C314.8,8.7,316.3,10.3,316.3,12.6z
			 M310.4,12.6c0,1.6,0.9,2.9,2.3,2.9c1.3,0,2.3-1.2,2.3-2.9c0-1.3-0.6-2.9-2.2-2.9C311.1,9.7,310.4,11.2,310.4,12.6z"/>
		<path d="M318.1,16.3V9.9h-1v-1h1V8.6c0-1,0.2-2,0.9-2.6c0.5-0.5,1.2-0.7,1.8-0.7c0.5,0,0.9,0.1,1.2,0.2l-0.2,1
			c-0.2-0.1-0.5-0.2-0.9-0.2c-1.2,0-1.4,1-1.4,2.1v0.4h1.8v1h-1.8v6.4H318.1z"/>
		<path d="M327.3,6.8v2.1h1.9v1h-1.9v4c0,0.9,0.3,1.4,1,1.4c0.4,0,0.6,0,0.8-0.1l0.1,1c-0.3,0.1-0.7,0.2-1.2,0.2
			c-0.6,0-1.1-0.2-1.5-0.6c-0.4-0.4-0.5-1.1-0.5-1.9v-4h-1.1v-1h1.1V7.1L327.3,6.8z"/>
		<path d="M331.4,12.9c0,1.8,1.2,2.6,2.5,2.6c1,0,1.5-0.2,2.1-0.4l0.2,1c-0.5,0.2-1.3,0.5-2.5,0.5c-2.3,0-3.6-1.5-3.6-3.7
			s1.3-4,3.5-4c2.4,0,3.1,2.1,3.1,3.5c0,0.3,0,0.5,0,0.6H331.4z M335.4,11.9c0-0.9-0.4-2.2-1.9-2.2c-1.4,0-2,1.3-2.1,2.2H335.4z"/>
		<path d="M343.6,16.1c-0.4,0.2-1.1,0.4-2.1,0.4c-2.2,0-3.7-1.5-3.7-3.8c0-2.3,1.6-3.9,4-3.9c0.8,0,1.5,0.2,1.9,0.4l-0.3,1
			c-0.3-0.2-0.8-0.4-1.6-0.4c-1.7,0-2.6,1.3-2.6,2.8c0,1.7,1.1,2.8,2.6,2.8c0.8,0,1.3-0.2,1.7-0.4L343.6,16.1z"/>
		<path d="M345.2,5.4h1.3v4.6h0c0.2-0.4,0.6-0.7,1-1c0.4-0.2,0.9-0.4,1.4-0.4c1,0,2.6,0.6,2.6,3.2v4.4h-1.3v-4.3
			c0-1.2-0.4-2.2-1.7-2.2c-0.9,0-1.6,0.6-1.8,1.3c-0.1,0.2-0.1,0.4-0.1,0.6v4.5h-1.3V5.4z"/>
		<path d="M353.7,10.9c0-0.8,0-1.4-0.1-2h1.2l0.1,1.2h0c0.4-0.7,1.2-1.4,2.5-1.4c1,0,2.6,0.6,2.6,3.2v4.4h-1.3V12
			c0-1.2-0.4-2.2-1.7-2.2c-0.9,0-1.6,0.6-1.8,1.4c-0.1,0.2-0.1,0.4-0.1,0.6v4.5h-1.3V10.9z"/>
		<path d="M369,12.6c0,2.7-1.9,3.9-3.7,3.9c-2,0-3.6-1.5-3.6-3.8c0-2.5,1.6-3.9,3.7-3.9C367.5,8.7,369,10.3,369,12.6z M363.1,12.6
			c0,1.6,0.9,2.9,2.3,2.9c1.3,0,2.3-1.2,2.3-2.9c0-1.3-0.6-2.9-2.2-2.9C363.8,9.7,363.1,11.2,363.1,12.6z"/>
		<path d="M370.7,5.4h1.3v10.9h-1.3V5.4z"/>
		<path d="M381,12.6c0,2.7-1.9,3.9-3.7,3.9c-2,0-3.6-1.5-3.6-3.8c0-2.5,1.6-3.9,3.7-3.9C379.6,8.7,381,10.3,381,12.6z M375.1,12.6
			c0,1.6,0.9,2.9,2.3,2.9c1.3,0,2.3-1.2,2.3-2.9c0-1.3-0.6-2.9-2.2-2.9C375.8,9.7,375.1,11.2,375.1,12.6z"/>
		<path d="M389.1,8.9c0,0.5-0.1,1.1-0.1,2v4.3c0,1.7-0.3,2.7-1.1,3.4c-0.7,0.7-1.8,0.9-2.7,0.9c-0.9,0-1.9-0.2-2.5-0.6l0.3-1
			c0.5,0.3,1.3,0.6,2.2,0.6c1.4,0,2.4-0.7,2.4-2.6v-0.8h0c-0.4,0.7-1.2,1.2-2.4,1.2c-1.8,0-3.2-1.6-3.2-3.6c0-2.5,1.6-3.9,3.3-3.9
			c1.3,0,2,0.7,2.3,1.3h0l0.1-1.1H389.1z M387.7,11.8c0-0.2,0-0.4-0.1-0.6c-0.2-0.8-0.9-1.4-1.9-1.4c-1.3,0-2.2,1.1-2.2,2.8
			c0,1.5,0.7,2.7,2.2,2.7c0.8,0,1.6-0.5,1.9-1.4c0.1-0.2,0.1-0.5,0.1-0.7V11.8z"/>
		<path d="M391.8,8.9l1.6,4.4c0.2,0.5,0.4,1.1,0.5,1.5h0c0.1-0.4,0.3-1,0.5-1.5l1.5-4.4h1.4l-2,5.3c-1,2.5-1.6,3.8-2.5,4.6
			c-0.7,0.6-1.3,0.8-1.7,0.9l-0.3-1.1c0.3-0.1,0.8-0.3,1.2-0.7c0.4-0.3,0.8-0.8,1.1-1.5c0.1-0.1,0.1-0.2,0.1-0.3s0-0.2-0.1-0.4
			l-2.7-6.8H391.8z"/>
		<path d="M396.9,18.2c0.3-0.9,0.8-2.5,0.9-3.7l1.5-0.2c-0.4,1.3-1,3-1.5,3.7L396.9,18.2z"/>
		<path d="M405.7,6.8c0,0.5-0.3,0.8-0.9,0.8c-0.5,0-0.8-0.4-0.8-0.8c0-0.5,0.4-0.8,0.8-0.8C405.4,6,405.7,6.3,405.7,6.8z
			 M404.2,16.3V8.9h1.3v7.4H404.2z"/>
		<path d="M407.8,10.9c0-0.8,0-1.4-0.1-2h1.2l0.1,1.2h0c0.4-0.7,1.2-1.4,2.5-1.4c1,0,2.6,0.6,2.6,3.2v4.4h-1.3V12
			c0-1.2-0.4-2.2-1.7-2.2c-0.9,0-1.6,0.6-1.8,1.4c-0.1,0.2-0.1,0.4-0.1,0.6v4.5h-1.3V10.9z"/>
		<path d="M417.9,6.8v2.1h1.9v1h-1.9v4c0,0.9,0.3,1.4,1,1.4c0.4,0,0.6,0,0.8-0.1l0.1,1c-0.3,0.1-0.7,0.2-1.2,0.2
			c-0.6,0-1.1-0.2-1.5-0.6c-0.4-0.4-0.5-1.1-0.5-1.9v-4h-1.1v-1h1.1V7.1L417.9,6.8z"/>
		<path d="M422,12.9c0,1.8,1.2,2.6,2.5,2.6c1,0,1.6-0.2,2.1-0.4l0.2,1c-0.5,0.2-1.3,0.5-2.5,0.5c-2.3,0-3.6-1.5-3.6-3.7s1.3-4,3.5-4
			c2.4,0,3.1,2.1,3.1,3.5c0,0.3,0,0.5,0,0.6H422z M426,11.9c0-0.9-0.4-2.2-1.9-2.2c-1.4,0-2,1.3-2.1,2.2H426z"/>
		<path d="M429,11.2c0-0.9,0-1.6-0.1-2.3h1.2l0,1.5h0.1c0.3-1,1.1-1.6,2.1-1.6c0.2,0,0.3,0,0.4,0v1.3c-0.1,0-0.3,0-0.5,0
			c-0.9,0-1.6,0.7-1.8,1.7c0,0.2-0.1,0.4-0.1,0.6v4H429V11.2z"/>
		<path d="M434,10.9c0-0.8,0-1.4-0.1-2h1.2l0.1,1.2h0c0.4-0.7,1.2-1.4,2.5-1.4c1,0,2.6,0.6,2.6,3.2v4.4H439V12
			c0-1.2-0.4-2.2-1.7-2.2c-0.9,0-1.6,0.6-1.8,1.4c-0.1,0.2-0.1,0.4-0.1,0.6v4.5H434V10.9z"/>
		<path d="M446.6,16.3l-0.1-0.9h0c-0.4,0.6-1.2,1.1-2.3,1.1c-1.5,0-2.3-1.1-2.3-2.1c0-1.8,1.6-2.8,4.5-2.8v-0.2
			c0-0.6-0.2-1.7-1.7-1.7c-0.7,0-1.4,0.2-1.9,0.6l-0.3-0.9c0.6-0.4,1.5-0.7,2.4-0.7c2.3,0,2.8,1.5,2.8,3v2.8c0,0.6,0,1.3,0.1,1.8
			H446.6z M446.4,12.5c-1.5,0-3.1,0.2-3.1,1.7c0,0.9,0.6,1.3,1.3,1.3c1,0,1.6-0.6,1.8-1.2c0-0.1,0.1-0.3,0.1-0.4V12.5z"/>
		<path d="M449.9,5.4h1.3v10.9h-1.3V5.4z"/>
	</g>
	<g>
		<path d="M258.6,36.2l-0.1-0.9h0c-0.4,0.6-1.2,1.1-2.3,1.1c-1.5,0-2.3-1.1-2.3-2.1c0-1.8,1.6-2.8,4.5-2.8v-0.2
			c0-0.6-0.2-1.7-1.7-1.7c-0.7,0-1.4,0.2-1.9,0.6l-0.3-0.9c0.6-0.4,1.5-0.7,2.4-0.7c2.3,0,2.8,1.5,2.8,3v2.8c0,0.6,0,1.3,0.1,1.8
			H258.6z M258.4,32.4c-1.5,0-3.1,0.2-3.1,1.7c0,0.9,0.6,1.3,1.3,1.3c1,0,1.6-0.6,1.8-1.2c0-0.1,0.1-0.3,0.1-0.4V32.4z"/>
		<path d="M261.9,30.8c0-0.8,0-1.4-0.1-2h1.2l0.1,1.2h0c0.4-0.7,1.2-1.4,2.5-1.4c1,0,2.6,0.6,2.6,3.2v4.4h-1.3v-4.3
			c0-1.2-0.4-2.2-1.7-2.2c-0.9,0-1.6,0.6-1.8,1.4c-0.1,0.2-0.1,0.4-0.1,0.6v4.5h-1.3V30.8z"/>
		<path d="M276.8,25.3v9c0,0.7,0,1.4,0.1,1.9h-1.2l-0.1-1.3h0c-0.4,0.8-1.3,1.5-2.5,1.5c-1.8,0-3.2-1.5-3.2-3.8c0-2.5,1.5-4,3.3-4
			c1.1,0,1.9,0.5,2.2,1.1h0v-4.4H276.8z M275.4,31.8c0-0.2,0-0.4-0.1-0.6c-0.2-0.9-0.9-1.6-1.9-1.6c-1.4,0-2.2,1.2-2.2,2.9
			c0,1.5,0.7,2.7,2.2,2.7c0.9,0,1.7-0.6,2-1.6c0-0.2,0.1-0.4,0.1-0.6V31.8z"/>
		<path d="M283,32.7c0,1.8,1.2,2.6,2.5,2.6c1,0,1.6-0.2,2.1-0.4l0.2,1c-0.5,0.2-1.3,0.5-2.5,0.5c-2.3,0-3.6-1.5-3.6-3.7
			c0-2.2,1.3-4,3.5-4c2.4,0,3.1,2.1,3.1,3.5c0,0.3,0,0.5,0,0.6H283z M287,31.7c0-0.9-0.4-2.2-1.9-2.2c-1.4,0-2,1.3-2.1,2.2H287z"/>
		<path d="M290.5,28.8l1.1,1.6c0.3,0.4,0.5,0.8,0.8,1.2h0c0.2-0.4,0.5-0.8,0.7-1.2l1-1.6h1.5l-2.5,3.6l2.6,3.8h-1.5l-1.1-1.7
			c-0.3-0.4-0.5-0.8-0.8-1.3h0c-0.2,0.4-0.5,0.8-0.8,1.3l-1.1,1.7h-1.5l2.6-3.8l-2.5-3.6H290.5z"/>
		<path d="M298.6,26.6v2.1h1.9v1h-1.9v4c0,0.9,0.3,1.4,1,1.4c0.4,0,0.6,0,0.8-0.1l0.1,1c-0.3,0.1-0.7,0.2-1.2,0.2
			c-0.6,0-1.1-0.2-1.5-0.6c-0.4-0.4-0.5-1.1-0.5-1.9v-4h-1.1v-1h1.1V27L298.6,26.6z"/>
		<path d="M302.8,32.7c0,1.8,1.2,2.6,2.5,2.6c1,0,1.6-0.2,2.1-0.4l0.2,1c-0.5,0.2-1.3,0.5-2.5,0.5c-2.3,0-3.6-1.5-3.6-3.7
			c0-2.2,1.3-4,3.5-4c2.4,0,3.1,2.1,3.1,3.5c0,0.3,0,0.5,0,0.6H302.8z M306.7,31.7c0-0.9-0.4-2.2-1.9-2.2c-1.4,0-2,1.3-2.1,2.2
			H306.7z"/>
		<path d="M309.7,31.1c0-0.9,0-1.6-0.1-2.3h1.2l0,1.5h0.1c0.3-1,1.1-1.6,2.1-1.6c0.2,0,0.3,0,0.4,0v1.3c-0.1,0-0.3,0-0.5,0
			c-0.9,0-1.6,0.7-1.8,1.7c0,0.2-0.1,0.4-0.1,0.6v4h-1.3V31.1z"/>
		<path d="M314.7,30.8c0-0.8,0-1.4-0.1-2h1.2l0.1,1.2h0c0.4-0.7,1.2-1.4,2.5-1.4c1,0,2.6,0.6,2.6,3.2v4.4h-1.3v-4.3
			c0-1.2-0.4-2.2-1.7-2.2c-0.9,0-1.6,0.6-1.8,1.4c-0.1,0.2-0.1,0.4-0.1,0.6v4.5h-1.3V30.8z"/>
		<path d="M327.3,36.2l-0.1-0.9h0c-0.4,0.6-1.2,1.1-2.3,1.1c-1.5,0-2.3-1.1-2.3-2.1c0-1.8,1.6-2.8,4.5-2.8v-0.2
			c0-0.6-0.2-1.7-1.7-1.7c-0.7,0-1.4,0.2-1.9,0.6l-0.3-0.9c0.6-0.4,1.5-0.7,2.4-0.7c2.3,0,2.8,1.5,2.8,3v2.8c0,0.6,0,1.3,0.1,1.8
			H327.3z M327.1,32.4c-1.5,0-3.1,0.2-3.1,1.7c0,0.9,0.6,1.3,1.3,1.3c1,0,1.6-0.6,1.8-1.2c0-0.1,0.1-0.3,0.1-0.4V32.4z"/>
		<path d="M330.6,25.3h1.3v10.9h-1.3V25.3z"/>
		<path d="M339,26.7c0,0.5-0.3,0.8-0.9,0.8c-0.5,0-0.8-0.4-0.8-0.8c0-0.5,0.4-0.8,0.8-0.8C338.7,25.8,339,26.2,339,26.7z
			 M337.5,36.2v-7.4h1.3v7.4H337.5z"/>
		<path d="M341.1,30.8c0-0.8,0-1.4-0.1-2h1.2l0.1,1.2h0c0.4-0.7,1.2-1.4,2.5-1.4c1,0,2.6,0.6,2.6,3.2v4.4H346v-4.3
			c0-1.2-0.4-2.2-1.7-2.2c-0.9,0-1.6,0.6-1.8,1.4c-0.1,0.2-0.1,0.4-0.1,0.6v4.5h-1.3V30.8z"/>
		<path d="M351.2,26.6v2.1h1.9v1h-1.9v4c0,0.9,0.3,1.4,1,1.4c0.4,0,0.6,0,0.8-0.1l0.1,1c-0.3,0.1-0.7,0.2-1.2,0.2
			c-0.6,0-1.1-0.2-1.5-0.6c-0.4-0.4-0.5-1.1-0.5-1.9v-4h-1.1v-1h1.1V27L351.2,26.6z"/>
		<path d="M355.4,32.7c0,1.8,1.2,2.6,2.5,2.6c1,0,1.5-0.2,2.1-0.4l0.2,1c-0.5,0.2-1.3,0.5-2.5,0.5c-2.3,0-3.6-1.5-3.6-3.7
			c0-2.2,1.3-4,3.5-4c2.4,0,3.1,2.1,3.1,3.5c0,0.3,0,0.5,0,0.6H355.4z M359.3,31.7c0-0.9-0.4-2.2-1.9-2.2c-1.4,0-2,1.3-2.1,2.2
			H359.3z"/>
		<path d="M362.3,25.3h1.3v10.9h-1.3V25.3z"/>
		<path d="M365.9,25.3h1.3v10.9h-1.3V25.3z"/>
		<path d="M371,26.7c0,0.5-0.3,0.8-0.9,0.8c-0.5,0-0.8-0.4-0.8-0.8c0-0.5,0.4-0.8,0.8-0.8C370.7,25.8,371,26.2,371,26.7z
			 M369.5,36.2v-7.4h1.3v7.4H369.5z"/>
		<path d="M379.5,28.8c0,0.5-0.1,1.1-0.1,2v4.3c0,1.7-0.3,2.7-1.1,3.4c-0.7,0.7-1.8,0.9-2.7,0.9c-0.9,0-1.9-0.2-2.5-0.6l0.3-1
			c0.5,0.3,1.3,0.6,2.2,0.6c1.4,0,2.4-0.7,2.4-2.6v-0.8h0c-0.4,0.7-1.2,1.2-2.4,1.2c-1.8,0-3.2-1.6-3.2-3.6c0-2.5,1.6-3.9,3.3-3.9
			c1.3,0,2,0.7,2.3,1.3h0l0.1-1.1H379.5z M378.1,31.7c0-0.2,0-0.4-0.1-0.6c-0.2-0.8-0.9-1.4-1.9-1.4c-1.3,0-2.2,1.1-2.2,2.8
			c0,1.5,0.7,2.7,2.2,2.7c0.8,0,1.6-0.5,1.9-1.4c0.1-0.2,0.1-0.5,0.1-0.7V31.7z"/>
		<path d="M382.4,32.7c0,1.8,1.2,2.6,2.5,2.6c1,0,1.6-0.2,2.1-0.4l0.2,1c-0.5,0.2-1.3,0.5-2.5,0.5c-2.3,0-3.6-1.5-3.6-3.7
			c0-2.2,1.3-4,3.5-4c2.4,0,3.1,2.1,3.1,3.5c0,0.3,0,0.5,0,0.6H382.4z M386.4,31.7c0-0.9-0.4-2.2-1.9-2.2c-1.4,0-2,1.3-2.1,2.2
			H386.4z"/>
		<path d="M389.4,30.8c0-0.8,0-1.4-0.1-2h1.2l0.1,1.2h0c0.4-0.7,1.2-1.4,2.5-1.4c1,0,2.6,0.6,2.6,3.2v4.4h-1.3v-4.3
			c0-1.2-0.4-2.2-1.7-2.2c-0.9,0-1.6,0.6-1.8,1.4c-0.1,0.2-0.1,0.4-0.1,0.6v4.5h-1.3V30.8z"/>
		<path d="M403.2,35.9c-0.4,0.2-1.1,0.4-2.1,0.4c-2.2,0-3.7-1.5-3.7-3.8c0-2.3,1.6-3.9,4-3.9c0.8,0,1.5,0.2,1.9,0.4l-0.3,1
			c-0.3-0.2-0.8-0.4-1.6-0.4c-1.7,0-2.6,1.3-2.6,2.8c0,1.7,1.1,2.8,2.6,2.8c0.8,0,1.3-0.2,1.7-0.4L403.2,35.9z"/>
		<path d="M405.4,32.7c0,1.8,1.2,2.6,2.5,2.6c1,0,1.6-0.2,2.1-0.4l0.2,1c-0.5,0.2-1.3,0.5-2.5,0.5c-2.3,0-3.6-1.5-3.6-3.7
			c0-2.2,1.3-4,3.5-4c2.4,0,3.1,2.1,3.1,3.5c0,0.3,0,0.5,0,0.6H405.4z M409.3,31.7c0-0.9-0.4-2.2-1.9-2.2c-1.4,0-2,1.3-2.1,2.2
			H409.3z"/>
		<path d="M415.7,36.2v-6.4h-1v-1h1v-0.4c0-1,0.2-2,0.9-2.6c0.5-0.5,1.2-0.7,1.8-0.7c0.5,0,0.9,0.1,1.2,0.2l-0.2,1
			c-0.2-0.1-0.5-0.2-0.9-0.2c-1.2,0-1.4,1-1.4,2.1v0.4h1.8v1H417v6.4H415.7z"/>
		<path d="M426.5,32.4c0,2.7-1.9,3.9-3.7,3.9c-2,0-3.6-1.5-3.6-3.8c0-2.5,1.6-3.9,3.7-3.9C425.1,28.6,426.5,30.1,426.5,32.4z
			 M420.6,32.5c0,1.6,0.9,2.9,2.3,2.9c1.3,0,2.3-1.2,2.3-2.9c0-1.3-0.6-2.9-2.2-2.9S420.6,31.1,420.6,32.5z"/>
		<path d="M428.2,31.1c0-0.9,0-1.6-0.1-2.3h1.2l0,1.5h0.1c0.3-1,1.1-1.6,2.1-1.6c0.2,0,0.3,0,0.4,0v1.3c-0.1,0-0.3,0-0.5,0
			c-0.9,0-1.6,0.7-1.8,1.7c0,0.2-0.1,0.4-0.1,0.6v4h-1.3V31.1z"/>
	</g>
	<g>
		<path d="M305.6,45.1v9c0,0.7,0,1.4,0.1,1.9h-1.2l-0.1-1.3h0c-0.4,0.8-1.3,1.5-2.5,1.5c-1.8,0-3.2-1.5-3.2-3.8c0-2.5,1.5-4,3.3-4
			c1.1,0,1.9,0.5,2.2,1.1h0v-4.4H305.6z M304.3,51.6c0-0.2,0-0.4-0.1-0.6c-0.2-0.9-0.9-1.6-1.9-1.6c-1.4,0-2.2,1.2-2.2,2.9
			c0,1.5,0.7,2.7,2.2,2.7c0.9,0,1.7-0.6,2-1.6c0-0.2,0.1-0.4,0.1-0.6V51.6z"/>
		<path d="M308.6,52.6c0,1.8,1.2,2.6,2.5,2.6c1,0,1.5-0.2,2.1-0.4l0.2,1c-0.5,0.2-1.3,0.5-2.5,0.5c-2.3,0-3.6-1.5-3.6-3.7
			c0-2.2,1.3-4,3.5-4c2.4,0,3.1,2.1,3.1,3.5c0,0.3,0,0.5,0,0.6H308.6z M312.6,51.6c0-0.9-0.4-2.2-1.9-2.2c-1.4,0-2,1.3-2.1,2.2
			H312.6z"/>
		<path d="M317.2,46.5v2.1h1.9v1h-1.9v4c0,0.9,0.3,1.4,1,1.4c0.4,0,0.6,0,0.8-0.1l0.1,1c-0.3,0.1-0.7,0.2-1.2,0.2
			c-0.6,0-1.1-0.2-1.5-0.6c-0.4-0.4-0.5-1.1-0.5-1.9v-4h-1.1v-1h1.1v-1.8L317.2,46.5z"/>
		<path d="M321.3,52.6c0,1.8,1.2,2.6,2.5,2.6c1,0,1.6-0.2,2.1-0.4l0.2,1c-0.5,0.2-1.3,0.5-2.5,0.5c-2.3,0-3.6-1.5-3.6-3.7
			c0-2.2,1.3-4,3.5-4c2.4,0,3.1,2.1,3.1,3.5c0,0.3,0,0.5,0,0.6H321.3z M325.3,51.6c0-0.9-0.4-2.2-1.9-2.2c-1.4,0-2,1.3-2.1,2.2
			H325.3z"/>
		<path d="M333.5,55.7c-0.4,0.2-1.1,0.4-2.1,0.4c-2.2,0-3.7-1.5-3.7-3.8c0-2.3,1.6-3.9,4-3.9c0.8,0,1.5,0.2,1.9,0.4l-0.3,1
			c-0.3-0.2-0.8-0.4-1.6-0.4c-1.7,0-2.6,1.3-2.6,2.8c0,1.7,1.1,2.8,2.6,2.8c0.8,0,1.3-0.2,1.7-0.4L333.5,55.7z"/>
		<path d="M336.7,46.5v2.1h1.9v1h-1.9v4c0,0.9,0.3,1.4,1,1.4c0.4,0,0.6,0,0.8-0.1l0.1,1c-0.3,0.1-0.7,0.2-1.2,0.2
			c-0.6,0-1.1-0.2-1.5-0.6c-0.4-0.4-0.5-1.1-0.5-1.9v-4h-1.1v-1h1.1v-1.8L336.7,46.5z"/>
		<path d="M341.7,46.5c0,0.5-0.3,0.8-0.9,0.8c-0.5,0-0.8-0.4-0.8-0.8c0-0.5,0.4-0.8,0.8-0.8C341.4,45.7,341.7,46,341.7,46.5z
			 M340.2,56v-7.4h1.3V56H340.2z"/>
		<path d="M343.8,50.6c0-0.8,0-1.4-0.1-2h1.2l0.1,1.2h0c0.4-0.7,1.2-1.4,2.5-1.4c1,0,2.6,0.6,2.6,3.2V56h-1.3v-4.3
			c0-1.2-0.4-2.2-1.7-2.2c-0.9,0-1.6,0.6-1.8,1.4c-0.1,0.2-0.1,0.4-0.1,0.6V56h-1.3V50.6z"/>
		<path d="M358.7,48.6c0,0.5-0.1,1.1-0.1,2v4.3c0,1.7-0.3,2.7-1.1,3.4c-0.7,0.7-1.8,0.9-2.7,0.9c-0.9,0-1.9-0.2-2.5-0.6l0.3-1
			c0.5,0.3,1.3,0.6,2.2,0.6c1.4,0,2.4-0.7,2.4-2.6v-0.8h0c-0.4,0.7-1.2,1.2-2.4,1.2c-1.8,0-3.2-1.6-3.2-3.6c0-2.5,1.6-3.9,3.3-3.9
			c1.3,0,2,0.7,2.3,1.3h0l0.1-1.1H358.7z M357.3,51.5c0-0.2,0-0.4-0.1-0.6c-0.2-0.8-0.9-1.4-1.9-1.4c-1.3,0-2.2,1.1-2.2,2.8
			c0,1.5,0.7,2.7,2.2,2.7c0.8,0,1.6-0.5,1.9-1.4c0.1-0.2,0.1-0.5,0.1-0.7V51.5z"/>
		<path d="M364.2,56v-6.4h-1v-1h1v-0.4c0-1,0.2-2,0.9-2.6c0.5-0.5,1.2-0.7,1.8-0.7c0.5,0,0.9,0.1,1.2,0.2l-0.2,1
			c-0.2-0.1-0.5-0.2-0.9-0.2c-1.2,0-1.4,1-1.4,2.1v0.4h1.8v1h-1.8V56H364.2z"/>
		<path d="M368.6,50.9c0-0.9,0-1.6-0.1-2.3h1.2l0,1.5h0.1c0.3-1,1.1-1.6,2.1-1.6c0.2,0,0.3,0,0.4,0v1.3c-0.1,0-0.3,0-0.5,0
			c-0.9,0-1.6,0.7-1.8,1.7c0,0.2-0.1,0.4-0.1,0.6v4h-1.3V50.9z"/>
		<path d="M377.6,56l-0.1-0.9h0c-0.4,0.6-1.2,1.1-2.3,1.1c-1.5,0-2.3-1.1-2.3-2.1c0-1.8,1.6-2.8,4.5-2.8v-0.2c0-0.6-0.2-1.7-1.7-1.7
			c-0.7,0-1.4,0.2-1.9,0.6l-0.3-0.9c0.6-0.4,1.5-0.7,2.4-0.7c2.3,0,2.8,1.5,2.8,3v2.8c0,0.6,0,1.3,0.1,1.8H377.6z M377.4,52.2
			c-1.5,0-3.1,0.2-3.1,1.7c0,0.9,0.6,1.3,1.3,1.3c1,0,1.6-0.6,1.8-1.2c0-0.1,0.1-0.3,0.1-0.4V52.2z"/>
		<path d="M387.1,54c0,0.8,0,1.4,0.1,2H386l-0.1-1.2h0c-0.4,0.6-1.1,1.4-2.5,1.4c-1.2,0-2.6-0.6-2.6-3.3v-4.3h1.3v4.1
			c0,1.4,0.4,2.4,1.7,2.4c0.9,0,1.5-0.6,1.8-1.2c0.1-0.2,0.1-0.4,0.1-0.7v-4.6h1.3V54z"/>
		<path d="M395.8,45.1v9c0,0.7,0,1.4,0.1,1.9h-1.2l-0.1-1.3h0c-0.4,0.8-1.3,1.5-2.5,1.5c-1.8,0-3.2-1.5-3.2-3.8c0-2.5,1.5-4,3.3-4
			c1.1,0,1.9,0.5,2.2,1.1h0v-4.4H395.8z M394.4,51.6c0-0.2,0-0.4-0.1-0.6c-0.2-0.9-0.9-1.6-1.9-1.6c-1.4,0-2.2,1.2-2.2,2.9
			c0,1.5,0.7,2.7,2.2,2.7c0.9,0,1.7-0.6,2-1.6c0-0.2,0.1-0.4,0.1-0.6V51.6z"/>
	</g>
	<g>
		<path d="M269.2,426.8c0.7-0.1,1.6-0.2,2.6-0.2c1.4,0,2.3,0.3,3,0.8c0.5,0.5,0.8,1.2,0.8,2c0,1.4-0.9,2.3-1.9,2.6v0
			c0.8,0.3,1.3,1,1.5,2.1c0.3,1.4,0.6,2.4,0.8,2.8h-1.4c-0.2-0.3-0.4-1.2-0.7-2.5c-0.3-1.4-0.9-2-2.1-2h-1.3v4.5h-1.3V426.8z
			 M270.6,431.5h1.4c1.4,0,2.3-0.8,2.3-2c0-1.3-1-1.9-2.4-1.9c-0.6,0-1.1,0.1-1.3,0.1V431.5z"/>
		<path d="M278,433.5c0,1.8,1.2,2.6,2.5,2.6c1,0,1.6-0.2,2.1-0.4l0.2,1c-0.5,0.2-1.3,0.5-2.5,0.5c-2.3,0-3.6-1.5-3.6-3.7
			c0-2.2,1.3-4,3.5-4c2.4,0,3.1,2.1,3.1,3.5c0,0.3,0,0.5,0,0.6H278z M282,432.6c0-0.9-0.4-2.2-1.9-2.2c-1.4,0-2,1.3-2.1,2.2H282z"/>
		<path d="M291.3,429.6c0,0.5-0.1,1.1-0.1,2v4.3c0,1.7-0.3,2.7-1.1,3.4c-0.7,0.7-1.8,0.9-2.7,0.9c-0.9,0-1.9-0.2-2.5-0.6l0.3-1
			c0.5,0.3,1.3,0.6,2.2,0.6c1.4,0,2.4-0.7,2.4-2.6v-0.8h0c-0.4,0.7-1.2,1.2-2.4,1.2c-1.8,0-3.2-1.6-3.2-3.6c0-2.5,1.6-3.9,3.3-3.9
			c1.3,0,2,0.7,2.3,1.3h0l0.1-1.1H291.3z M289.9,432.5c0-0.2,0-0.4-0.1-0.6c-0.2-0.8-0.9-1.4-1.9-1.4c-1.3,0-2.2,1.1-2.2,2.8
			c0,1.5,0.7,2.7,2.2,2.7c0.8,0,1.6-0.5,1.9-1.4c0.1-0.2,0.1-0.5,0.1-0.7V432.5z"/>
		<path d="M299.7,435c0,0.8,0,1.4,0.1,2h-1.2l-0.1-1.2h0c-0.4,0.6-1.1,1.4-2.5,1.4c-1.2,0-2.6-0.6-2.6-3.3v-4.3h1.3v4.1
			c0,1.4,0.4,2.4,1.7,2.4c0.9,0,1.5-0.6,1.8-1.2c0.1-0.2,0.1-0.4,0.1-0.7v-4.6h1.3V435z"/>
		<path d="M302,426.1h1.3V437H302V426.1z"/>
		<path d="M309.7,437l-0.1-0.9h0c-0.4,0.6-1.2,1.1-2.3,1.1c-1.5,0-2.3-1.1-2.3-2.1c0-1.8,1.6-2.8,4.5-2.8v-0.2
			c0-0.6-0.2-1.7-1.7-1.7c-0.7,0-1.4,0.2-1.9,0.6l-0.3-0.9c0.6-0.4,1.5-0.7,2.4-0.7c2.3,0,2.8,1.5,2.8,3v2.8c0,0.6,0,1.3,0.1,1.8
			H309.7z M309.5,433.2c-1.5,0-3.1,0.2-3.1,1.7c0,0.9,0.6,1.3,1.3,1.3c1,0,1.6-0.6,1.8-1.2c0-0.1,0.1-0.3,0.1-0.4V433.2z"/>
		<path d="M313,431.9c0-0.9,0-1.6-0.1-2.3h1.2l0,1.5h0.1c0.3-1,1.1-1.6,2.1-1.6c0.2,0,0.3,0,0.4,0v1.3c-0.1,0-0.3,0-0.5,0
			c-0.9,0-1.6,0.7-1.8,1.7c0,0.2-0.1,0.4-0.1,0.6v4H313V431.9z"/>
		<path d="M326.5,436.7c-0.4,0.2-1.1,0.4-2.1,0.4c-2.2,0-3.7-1.5-3.7-3.8c0-2.3,1.6-3.9,4-3.9c0.8,0,1.5,0.2,1.9,0.4l-0.3,1
			c-0.3-0.2-0.8-0.4-1.6-0.4c-1.7,0-2.6,1.3-2.6,2.8c0,1.7,1.1,2.8,2.6,2.8c0.8,0,1.3-0.2,1.7-0.4L326.5,436.7z"/>
		<path d="M334.7,433.2c0,2.7-1.9,3.9-3.7,3.9c-2,0-3.6-1.5-3.6-3.8c0-2.5,1.6-3.9,3.7-3.9C333.2,429.4,334.7,431,334.7,433.2z
			 M328.8,433.3c0,1.6,0.9,2.9,2.3,2.9c1.3,0,2.3-1.2,2.3-2.9c0-1.3-0.6-2.9-2.2-2.9C329.5,430.4,328.8,431.9,328.8,433.3z"/>
		<path d="M336.4,431.6c0-0.8,0-1.4-0.1-2h1.2l0.1,1.2h0c0.4-0.7,1.1-1.4,2.3-1.4c1,0,1.8,0.6,2.1,1.5h0c0.2-0.4,0.5-0.7,0.8-1
			c0.4-0.3,0.9-0.5,1.6-0.5c1,0,2.4,0.6,2.4,3.2v4.4h-1.3v-4.2c0-1.4-0.5-2.3-1.6-2.3c-0.8,0-1.4,0.6-1.6,1.2
			c-0.1,0.2-0.1,0.4-0.1,0.7v4.6H341v-4.4c0-1.2-0.5-2-1.5-2c-0.8,0-1.5,0.7-1.7,1.3c-0.1,0.2-0.1,0.4-0.1,0.7v4.5h-1.3V431.6z"/>
		<path d="M349.2,431.6c0-0.8,0-1.4-0.1-2h1.2l0.1,1.2h0c0.4-0.7,1.1-1.4,2.3-1.4c1,0,1.8,0.6,2.1,1.5h0c0.2-0.4,0.5-0.7,0.8-1
			c0.4-0.3,0.9-0.5,1.6-0.5c1,0,2.4,0.6,2.4,3.2v4.4h-1.3v-4.2c0-1.4-0.5-2.3-1.6-2.3c-0.8,0-1.4,0.6-1.6,1.2
			c-0.1,0.2-0.1,0.4-0.1,0.7v4.6h-1.3v-4.4c0-1.2-0.5-2-1.5-2c-0.8,0-1.5,0.7-1.7,1.3c-0.1,0.2-0.1,0.4-0.1,0.7v4.5h-1.3V431.6z"/>
		<path d="M368.2,435c0,0.8,0,1.4,0.1,2H367l-0.1-1.2h0c-0.4,0.6-1.1,1.4-2.5,1.4c-1.2,0-2.6-0.6-2.6-3.3v-4.3h1.3v4.1
			c0,1.4,0.4,2.4,1.7,2.4c0.9,0,1.5-0.6,1.8-1.2c0.1-0.2,0.1-0.4,0.1-0.7v-4.6h1.3V435z"/>
		<path d="M370.4,431.6c0-0.8,0-1.4-0.1-2h1.2l0.1,1.2h0c0.4-0.7,1.2-1.4,2.5-1.4c1,0,2.6,0.6,2.6,3.2v4.4h-1.3v-4.3
			c0-1.2-0.4-2.2-1.7-2.2c-0.9,0-1.6,0.6-1.8,1.4c-0.1,0.2-0.1,0.4-0.1,0.6v4.5h-1.3V431.6z"/>
		<path d="M380.4,427.5c0,0.5-0.3,0.8-0.9,0.8c-0.5,0-0.8-0.4-0.8-0.8c0-0.5,0.4-0.8,0.8-0.8C380.1,426.7,380.4,427,380.4,427.5z
			 M378.9,437v-7.4h1.3v7.4H378.9z"/>
		<path d="M387.8,436.7c-0.4,0.2-1.1,0.4-2.1,0.4c-2.2,0-3.7-1.5-3.7-3.8c0-2.3,1.6-3.9,4-3.9c0.8,0,1.5,0.2,1.9,0.4l-0.3,1
			c-0.3-0.2-0.8-0.4-1.6-0.4c-1.7,0-2.6,1.3-2.6,2.8c0,1.7,1.1,2.8,2.6,2.8c0.8,0,1.3-0.2,1.7-0.4L387.8,436.7z"/>
		<path d="M393.4,437l-0.1-0.9h0c-0.4,0.6-1.2,1.1-2.3,1.1c-1.5,0-2.3-1.1-2.3-2.1c0-1.8,1.6-2.8,4.5-2.8v-0.2
			c0-0.6-0.2-1.7-1.7-1.7c-0.7,0-1.4,0.2-1.9,0.6l-0.3-0.9c0.6-0.4,1.5-0.7,2.4-0.7c2.3,0,2.8,1.5,2.8,3v2.8c0,0.6,0,1.3,0.1,1.8
			H393.4z M393.2,433.2c-1.5,0-3.1,0.2-3.1,1.7c0,0.9,0.6,1.3,1.3,1.3c1,0,1.6-0.6,1.8-1.2c0-0.1,0.1-0.3,0.1-0.4V433.2z"/>
		<path d="M398.3,427.4v2.1h1.9v1h-1.9v4c0,0.9,0.3,1.4,1,1.4c0.4,0,0.6,0,0.8-0.1l0.1,1c-0.3,0.1-0.7,0.2-1.2,0.2
			c-0.6,0-1.1-0.2-1.5-0.6c-0.4-0.4-0.5-1.1-0.5-1.9v-4h-1.1v-1h1.1v-1.8L398.3,427.4z"/>
		<path d="M403.3,427.5c0,0.5-0.3,0.8-0.9,0.8c-0.5,0-0.8-0.4-0.8-0.8c0-0.5,0.4-0.8,0.8-0.8C403,426.7,403.3,427,403.3,427.5z
			 M401.8,437v-7.4h1.3v7.4H401.8z"/>
		<path d="M412.1,433.2c0,2.7-1.9,3.9-3.7,3.9c-2,0-3.6-1.5-3.6-3.8c0-2.5,1.6-3.9,3.7-3.9C410.7,429.4,412.1,431,412.1,433.2z
			 M406.2,433.3c0,1.6,0.9,2.9,2.3,2.9c1.3,0,2.3-1.2,2.3-2.9c0-1.3-0.6-2.9-2.2-2.9C406.9,430.4,406.2,431.9,406.2,433.3z"/>
		<path d="M413.8,431.6c0-0.8,0-1.4-0.1-2h1.2l0.1,1.2h0c0.4-0.7,1.2-1.4,2.5-1.4c1,0,2.6,0.6,2.6,3.2v4.4h-1.3v-4.3
			c0-1.2-0.4-2.2-1.7-2.2c-0.9,0-1.6,0.6-1.8,1.4c-0.1,0.2-0.1,0.4-0.1,0.6v4.5h-1.3V431.6z"/>
	</g>
	<g>
		<path d="M262.7,449.4l1,3.8c0.2,0.8,0.4,1.6,0.6,2.4h0c0.2-0.8,0.4-1.5,0.7-2.3l1.2-3.8h1.1l1.2,3.7c0.3,0.9,0.5,1.7,0.7,2.4h0
			c0.1-0.8,0.3-1.5,0.6-2.4l1.1-3.7h1.3l-2.4,7.4h-1.2l-1.1-3.5c-0.3-0.8-0.5-1.6-0.7-2.4h0c-0.2,0.9-0.4,1.7-0.7,2.5l-1.2,3.5h-1.2
			l-2.2-7.4H262.7z"/>
		<path d="M275,447.3c0,0.5-0.3,0.8-0.9,0.8c-0.5,0-0.8-0.4-0.8-0.8c0-0.5,0.4-0.8,0.8-0.8C274.7,446.5,275,446.9,275,447.3z
			 M273.5,456.8v-7.4h1.3v7.4H273.5z"/>
		<path d="M278.7,447.3v2.1h1.9v1h-1.9v4c0,0.9,0.3,1.4,1,1.4c0.4,0,0.6,0,0.8-0.1l0.1,1c-0.3,0.1-0.7,0.2-1.2,0.2
			c-0.6,0-1.1-0.2-1.5-0.6c-0.4-0.4-0.5-1.1-0.5-1.9v-4h-1.1v-1h1.1v-1.8L278.7,447.3z"/>
		<path d="M282.2,446h1.3v4.6h0c0.2-0.4,0.6-0.7,1-0.9c0.4-0.2,0.9-0.4,1.4-0.4c1,0,2.6,0.6,2.6,3.2v4.4h-1.3v-4.3
			c0-1.2-0.4-2.2-1.7-2.2c-0.9,0-1.6,0.6-1.8,1.3c-0.1,0.2-0.1,0.4-0.1,0.6v4.5h-1.3V446z"/>
		<path d="M299.2,456.6c-0.4,0.2-1.1,0.4-2.1,0.4c-2.2,0-3.7-1.5-3.7-3.8c0-2.3,1.6-3.9,4-3.9c0.8,0,1.5,0.2,1.9,0.4l-0.3,1
			c-0.3-0.2-0.8-0.4-1.6-0.4c-1.7,0-2.6,1.3-2.6,2.8c0,1.7,1.1,2.8,2.6,2.8c0.8,0,1.3-0.2,1.7-0.4L299.2,456.6z"/>
		<path d="M307,454.8c0,0.8,0,1.4,0.1,2h-1.2l-0.1-1.2h0c-0.4,0.6-1.1,1.4-2.5,1.4c-1.2,0-2.6-0.6-2.6-3.3v-4.3h1.3v4.1
			c0,1.4,0.4,2.4,1.7,2.4c0.9,0,1.5-0.6,1.8-1.2c0.1-0.2,0.1-0.4,0.1-0.7v-4.6h1.3V454.8z"/>
		<path d="M309.1,455.5c0.4,0.3,1.1,0.5,1.8,0.5c1,0,1.4-0.5,1.4-1.1c0-0.6-0.4-1-1.4-1.4c-1.3-0.5-2-1.2-2-2.1c0-1.2,1-2.2,2.6-2.2
			c0.8,0,1.4,0.2,1.8,0.5l-0.3,1c-0.3-0.2-0.8-0.4-1.5-0.4c-0.8,0-1.2,0.5-1.2,1c0,0.6,0.4,0.9,1.4,1.3c1.3,0.5,1.9,1.1,1.9,2.2
			c0,1.3-1,2.2-2.8,2.2c-0.8,0-1.6-0.2-2.1-0.5L309.1,455.5z"/>
		<path d="M316.9,447.3v2.1h1.9v1h-1.9v4c0,0.9,0.3,1.4,1,1.4c0.4,0,0.6,0,0.8-0.1l0.1,1c-0.3,0.1-0.7,0.2-1.2,0.2
			c-0.6,0-1.1-0.2-1.5-0.6c-0.4-0.4-0.5-1.1-0.5-1.9v-4h-1.1v-1h1.1v-1.8L316.9,447.3z"/>
		<path d="M327,453.1c0,2.7-1.9,3.9-3.7,3.9c-2,0-3.6-1.5-3.6-3.8c0-2.5,1.6-3.9,3.7-3.9C325.5,449.3,327,450.8,327,453.1z
			 M321.1,453.2c0,1.6,0.9,2.9,2.3,2.9c1.3,0,2.3-1.2,2.3-2.9c0-1.3-0.6-2.9-2.2-2.9C321.8,450.3,321.1,451.7,321.1,453.2z"/>
		<path d="M328.7,451.4c0-0.8,0-1.4-0.1-2h1.2l0.1,1.2h0c0.4-0.7,1.1-1.4,2.3-1.4c1,0,1.8,0.6,2.1,1.5h0c0.2-0.4,0.5-0.7,0.8-1
			c0.4-0.3,0.9-0.5,1.6-0.5c1,0,2.4,0.6,2.4,3.2v4.4H338v-4.2c0-1.4-0.5-2.3-1.6-2.3c-0.8,0-1.4,0.6-1.6,1.2
			c-0.1,0.2-0.1,0.4-0.1,0.7v4.6h-1.3v-4.4c0-1.2-0.5-2-1.5-2c-0.8,0-1.5,0.7-1.7,1.3c-0.1,0.2-0.1,0.4-0.1,0.7v4.5h-1.3V451.4z"/>
		<path d="M342.2,453.4c0,1.8,1.2,2.6,2.5,2.6c1,0,1.6-0.2,2.1-0.4l0.2,1c-0.5,0.2-1.3,0.5-2.5,0.5c-2.3,0-3.6-1.5-3.6-3.7
			c0-2.2,1.3-4,3.5-4c2.4,0,3.1,2.1,3.1,3.5c0,0.3,0,0.5,0,0.6H342.2z M346.2,452.4c0-0.9-0.4-2.2-1.9-2.2c-1.4,0-2,1.3-2.1,2.2
			H346.2z"/>
		<path d="M349.2,451.7c0-0.9,0-1.6-0.1-2.3h1.2l0,1.5h0.1c0.3-1,1.1-1.6,2.1-1.6c0.2,0,0.3,0,0.4,0v1.3c-0.1,0-0.3,0-0.5,0
			c-0.9,0-1.6,0.7-1.8,1.7c0,0.2-0.1,0.4-0.1,0.6v4h-1.3V451.7z"/>
		<path d="M353.9,455.5c0.4,0.3,1.1,0.5,1.8,0.5c1,0,1.4-0.5,1.4-1.1c0-0.6-0.4-1-1.4-1.4c-1.3-0.5-2-1.2-2-2.1c0-1.2,1-2.2,2.6-2.2
			c0.8,0,1.4,0.2,1.8,0.5l-0.3,1c-0.3-0.2-0.8-0.4-1.5-0.4c-0.8,0-1.2,0.5-1.2,1c0,0.6,0.4,0.9,1.4,1.3c1.3,0.5,1.9,1.1,1.9,2.2
			c0,1.3-1,2.2-2.8,2.2c-0.8,0-1.6-0.2-2.1-0.5L353.9,455.5z"/>
		<path d="M363.4,451.7c0-0.9,0-1.6-0.1-2.3h1.2l0,1.5h0.1c0.3-1,1.1-1.6,2.1-1.6c0.2,0,0.3,0,0.4,0v1.3c-0.1,0-0.3,0-0.5,0
			c-0.9,0-1.6,0.7-1.8,1.7c0,0.2-0.1,0.4-0.1,0.6v4h-1.3V451.7z"/>
		<path d="M369.1,453.4c0,1.8,1.2,2.6,2.5,2.6c1,0,1.5-0.2,2.1-0.4l0.2,1c-0.5,0.2-1.3,0.5-2.5,0.5c-2.3,0-3.6-1.5-3.6-3.7
			c0-2.2,1.3-4,3.5-4c2.4,0,3.1,2.1,3.1,3.5c0,0.3,0,0.5,0,0.6H369.1z M373,452.4c0-0.9-0.4-2.2-1.9-2.2c-1.4,0-2,1.3-2.1,2.2H373z"
			/>
		<path d="M382.4,449.4c0,0.5-0.1,1.1-0.1,2v4.3c0,1.7-0.3,2.7-1.1,3.4c-0.7,0.7-1.8,0.9-2.7,0.9c-0.9,0-1.9-0.2-2.5-0.6l0.3-1
			c0.5,0.3,1.3,0.6,2.2,0.6c1.4,0,2.4-0.7,2.4-2.6v-0.8h0c-0.4,0.7-1.2,1.2-2.4,1.2c-1.8,0-3.2-1.6-3.2-3.6c0-2.5,1.6-3.9,3.3-3.9
			c1.3,0,2,0.7,2.3,1.3h0l0.1-1.1H382.4z M381,452.4c0-0.2,0-0.4-0.1-0.6c-0.2-0.8-0.9-1.4-1.9-1.4c-1.3,0-2.2,1.1-2.2,2.8
			c0,1.5,0.7,2.7,2.2,2.7c0.8,0,1.6-0.5,1.9-1.4c0.1-0.2,0.1-0.5,0.1-0.7V452.4z"/>
		<path d="M388.7,456.8l-0.1-0.9h0c-0.4,0.6-1.2,1.1-2.3,1.1c-1.5,0-2.3-1.1-2.3-2.1c0-1.8,1.6-2.8,4.5-2.8V452
			c0-0.6-0.2-1.7-1.7-1.7c-0.7,0-1.4,0.2-1.9,0.6l-0.3-0.9c0.6-0.4,1.5-0.7,2.4-0.7c2.3,0,2.8,1.5,2.8,3v2.8c0,0.6,0,1.3,0.1,1.8
			H388.7z M388.5,453.1c-1.5,0-3.1,0.2-3.1,1.7c0,0.9,0.6,1.3,1.3,1.3c1,0,1.6-0.6,1.8-1.2c0-0.1,0.1-0.3,0.1-0.4V453.1z"/>
		<path d="M392,451.7c0-0.9,0-1.6-0.1-2.3h1.2l0,1.5h0.1c0.3-1,1.1-1.6,2.1-1.6c0.2,0,0.3,0,0.4,0v1.3c-0.1,0-0.3,0-0.5,0
			c-0.9,0-1.6,0.7-1.8,1.7c0,0.2-0.1,0.4-0.1,0.6v4H392V451.7z"/>
		<path d="M403.3,446v9c0,0.7,0,1.4,0.1,1.9h-1.2l-0.1-1.3h0c-0.4,0.8-1.3,1.5-2.5,1.5c-1.8,0-3.2-1.5-3.2-3.8c0-2.5,1.5-4,3.3-4
			c1.1,0,1.9,0.5,2.2,1.1h0V446H403.3z M401.9,452.4c0-0.2,0-0.4-0.1-0.6c-0.2-0.9-0.9-1.6-1.9-1.6c-1.4,0-2.2,1.2-2.2,2.9
			c0,1.5,0.7,2.7,2.2,2.7c0.9,0,1.7-0.6,2-1.6c0-0.2,0.1-0.4,0.1-0.6V452.4z"/>
		<path d="M407,447.3c0,0.5-0.3,0.8-0.9,0.8c-0.5,0-0.8-0.4-0.8-0.8c0-0.5,0.4-0.8,0.8-0.8C406.7,446.5,407,446.9,407,447.3z
			 M405.5,456.8v-7.4h1.3v7.4H405.5z"/>
		<path d="M409.1,451.4c0-0.8,0-1.4-0.1-2h1.2l0.1,1.2h0c0.4-0.7,1.2-1.4,2.5-1.4c1,0,2.6,0.6,2.6,3.2v4.4h-1.3v-4.3
			c0-1.2-0.4-2.2-1.7-2.2c-0.9,0-1.6,0.6-1.8,1.4c-0.1,0.2-0.1,0.4-0.1,0.6v4.5h-1.3V451.4z"/>
		<path d="M424,449.4c0,0.5-0.1,1.1-0.1,2v4.3c0,1.7-0.3,2.7-1.1,3.4c-0.7,0.7-1.8,0.9-2.7,0.9c-0.9,0-1.9-0.2-2.5-0.6l0.3-1
			c0.5,0.3,1.3,0.6,2.2,0.6c1.4,0,2.4-0.7,2.4-2.6v-0.8h0c-0.4,0.7-1.2,1.2-2.4,1.2c-1.8,0-3.2-1.6-3.2-3.6c0-2.5,1.6-3.9,3.3-3.9
			c1.3,0,2,0.7,2.3,1.3h0l0.1-1.1H424z M422.6,452.4c0-0.2,0-0.4-0.1-0.6c-0.2-0.8-0.9-1.4-1.9-1.4c-1.3,0-2.2,1.1-2.2,2.8
			c0,1.5,0.7,2.7,2.2,2.7c0.8,0,1.6-0.5,1.9-1.4c0.1-0.2,0.1-0.5,0.1-0.7V452.4z"/>
	</g>
	<g>
		<path d="M304.3,475.3c0.4,0.3,1.1,0.5,1.8,0.5c1,0,1.4-0.5,1.4-1.1c0-0.6-0.4-1-1.4-1.4c-1.3-0.5-2-1.2-2-2.1c0-1.2,1-2.2,2.6-2.2
			c0.8,0,1.4,0.2,1.8,0.5l-0.3,1c-0.3-0.2-0.8-0.4-1.5-0.4c-0.8,0-1.2,0.5-1.2,1c0,0.6,0.4,0.9,1.4,1.3c1.3,0.5,1.9,1.1,1.9,2.2
			c0,1.3-1,2.2-2.8,2.2c-0.8,0-1.6-0.2-2.1-0.5L304.3,475.3z"/>
		<path d="M314.7,476.7l-0.1-0.9h0c-0.4,0.6-1.2,1.1-2.3,1.1c-1.5,0-2.3-1.1-2.3-2.1c0-1.8,1.6-2.8,4.5-2.8v-0.2
			c0-0.6-0.2-1.7-1.7-1.7c-0.7,0-1.4,0.2-1.9,0.6l-0.3-0.9c0.6-0.4,1.5-0.7,2.4-0.7c2.3,0,2.8,1.5,2.8,3v2.8c0,0.6,0,1.3,0.1,1.8
			H314.7z M314.5,472.9c-1.5,0-3.1,0.2-3.1,1.7c0,0.9,0.6,1.3,1.3,1.3c1,0,1.6-0.6,1.8-1.2c0-0.1,0.1-0.3,0.1-0.4V472.9z"/>
		<path d="M318.1,476.7v-6.4h-1v-1h1v-0.4c0-1,0.2-2,0.9-2.6c0.5-0.5,1.2-0.7,1.8-0.7c0.5,0,0.9,0.1,1.2,0.2l-0.2,1
			c-0.2-0.1-0.5-0.2-0.9-0.2c-1.2,0-1.4,1-1.4,2.1v0.4h1.8v1h-1.8v6.4H318.1z"/>
		<path d="M323,473.2c0,1.8,1.2,2.6,2.5,2.6c1,0,1.5-0.2,2.1-0.4l0.2,1c-0.5,0.2-1.3,0.5-2.5,0.5c-2.3,0-3.6-1.5-3.6-3.7
			c0-2.2,1.3-4,3.5-4c2.4,0,3.1,2.1,3.1,3.5c0,0.3,0,0.5,0,0.6H323z M326.9,472.3c0-0.9-0.4-2.2-1.9-2.2c-1.4,0-2,1.3-2.1,2.2H326.9
			z"/>
		<path d="M333.2,471.7c0-1,0-1.7-0.1-2.4h1.2l0.1,1.3h0c0.6-0.9,1.4-1.4,2.6-1.4c1.8,0,3.1,1.5,3.1,3.8c0,2.7-1.6,4-3.4,4
			c-1,0-1.8-0.4-2.3-1.2h0v4h-1.3V471.7z M334.5,473.7c0,0.2,0,0.4,0.1,0.6c0.2,0.9,1.1,1.6,2,1.6c1.4,0,2.3-1.2,2.3-2.9
			c0-1.5-0.8-2.8-2.2-2.8c-0.9,0-1.8,0.7-2,1.7c0,0.2-0.1,0.4-0.1,0.6V473.7z"/>
		<path d="M341.9,471.6c0-0.9,0-1.6-0.1-2.3h1.2l0,1.5h0.1c0.3-1,1.1-1.6,2.1-1.6c0.2,0,0.3,0,0.4,0v1.3c-0.1,0-0.3,0-0.5,0
			c-0.9,0-1.6,0.7-1.8,1.7c0,0.2-0.1,0.4-0.1,0.6v4h-1.3V471.6z"/>
		<path d="M350.9,476.7l-0.1-0.9h0c-0.4,0.6-1.2,1.1-2.3,1.1c-1.5,0-2.3-1.1-2.3-2.1c0-1.8,1.6-2.8,4.5-2.8v-0.2
			c0-0.6-0.2-1.7-1.7-1.7c-0.7,0-1.4,0.2-1.9,0.6l-0.3-0.9c0.6-0.4,1.5-0.7,2.4-0.7c2.3,0,2.8,1.5,2.8,3v2.8c0,0.6,0,1.3,0.1,1.8
			H350.9z M350.7,472.9c-1.5,0-3.1,0.2-3.1,1.7c0,0.9,0.6,1.3,1.3,1.3c1,0,1.6-0.6,1.8-1.2c0-0.1,0.1-0.3,0.1-0.4V472.9z"/>
		<path d="M359.5,476.4c-0.4,0.2-1.1,0.4-2.1,0.4c-2.2,0-3.7-1.5-3.7-3.8c0-2.3,1.6-3.9,4-3.9c0.8,0,1.5,0.2,1.9,0.4l-0.3,1
			c-0.3-0.2-0.8-0.4-1.6-0.4c-1.7,0-2.6,1.3-2.6,2.8c0,1.7,1.1,2.8,2.6,2.8c0.8,0,1.3-0.2,1.7-0.4L359.5,476.4z"/>
		<path d="M362.7,467.1v2.1h1.9v1h-1.9v4c0,0.9,0.3,1.4,1,1.4c0.4,0,0.6,0,0.8-0.1l0.1,1c-0.3,0.1-0.7,0.2-1.2,0.2
			c-0.6,0-1.1-0.2-1.5-0.6c-0.4-0.4-0.5-1.1-0.5-1.9v-4h-1.1v-1h1.1v-1.8L362.7,467.1z"/>
		<path d="M367.7,467.2c0,0.5-0.3,0.8-0.9,0.8c-0.5,0-0.8-0.4-0.8-0.8c0-0.5,0.4-0.8,0.8-0.8C367.3,466.3,367.7,466.7,367.7,467.2z
			 M366.2,476.7v-7.4h1.3v7.4H366.2z"/>
		<path d="M375,476.4c-0.4,0.2-1.1,0.4-2.1,0.4c-2.2,0-3.7-1.5-3.7-3.8c0-2.3,1.6-3.9,4-3.9c0.8,0,1.5,0.2,1.9,0.4l-0.3,1
			c-0.3-0.2-0.8-0.4-1.6-0.4c-1.7,0-2.6,1.3-2.6,2.8c0,1.7,1.1,2.8,2.6,2.8c0.8,0,1.3-0.2,1.7-0.4L375,476.4z"/>
		<path d="M377.2,473.2c0,1.8,1.2,2.6,2.5,2.6c1,0,1.5-0.2,2.1-0.4l0.2,1c-0.5,0.2-1.3,0.5-2.5,0.5c-2.3,0-3.6-1.5-3.6-3.7
			c0-2.2,1.3-4,3.5-4c2.4,0,3.1,2.1,3.1,3.5c0,0.3,0,0.5,0,0.6H377.2z M381.2,472.3c0-0.9-0.4-2.2-1.9-2.2c-1.4,0-2,1.3-2.1,2.2
			H381.2z"/>
		<path d="M384,475.3c0.4,0.3,1.1,0.5,1.8,0.5c1,0,1.4-0.5,1.4-1.1c0-0.6-0.4-1-1.4-1.4c-1.3-0.5-2-1.2-2-2.1c0-1.2,1-2.2,2.6-2.2
			c0.8,0,1.4,0.2,1.8,0.5l-0.3,1c-0.3-0.2-0.8-0.4-1.5-0.4c-0.8,0-1.2,0.5-1.2,1c0,0.6,0.4,0.9,1.4,1.3c1.3,0.5,1.9,1.1,1.9,2.2
			c0,1.3-1,2.2-2.8,2.2c-0.8,0-1.6-0.2-2.1-0.5L384,475.3z"/>
	</g>
	<g>
		<path d="M29.3,127.1h-4v3.7h4.5v1.1h-5.8v-10.3h5.6v1.1h-4.2v3.3h4V127.1z"/>
		<path d="M31.4,126.6c0-0.8,0-1.4-0.1-2h1.2l0.1,1.2h0c0.4-0.7,1.2-1.4,2.5-1.4c1,0,2.6,0.6,2.6,3.2v4.4h-1.3v-4.3
			c0-1.2-0.4-2.2-1.7-2.2c-0.9,0-1.6,0.6-1.8,1.4c-0.1,0.2-0.1,0.4-0.1,0.6v4.5h-1.3V126.6z"/>
		<path d="M46.4,124.5c0,0.5-0.1,1.1-0.1,2v4.3c0,1.7-0.3,2.7-1.1,3.4c-0.7,0.7-1.8,0.9-2.7,0.9c-0.9,0-1.9-0.2-2.5-0.6l0.3-1
			c0.5,0.3,1.3,0.6,2.2,0.6c1.4,0,2.4-0.7,2.4-2.6v-0.8h0c-0.4,0.7-1.2,1.2-2.4,1.2c-1.8,0-3.2-1.6-3.2-3.6c0-2.5,1.6-3.9,3.3-3.9
			c1.3,0,2,0.7,2.3,1.3h0l0.1-1.1H46.4z M45,127.5c0-0.2,0-0.4-0.1-0.6c-0.2-0.8-0.9-1.4-1.9-1.4c-1.3,0-2.2,1.1-2.2,2.8
			c0,1.5,0.7,2.7,2.2,2.7c0.8,0,1.6-0.5,1.9-1.4c0.1-0.2,0.1-0.5,0.1-0.7V127.5z"/>
		<path d="M52.6,132l-0.1-0.9h0c-0.4,0.6-1.2,1.1-2.3,1.1c-1.5,0-2.3-1.1-2.3-2.1c0-1.8,1.6-2.8,4.5-2.8v-0.2c0-0.6-0.2-1.7-1.7-1.7
			c-0.7,0-1.4,0.2-1.9,0.6l-0.3-0.9c0.6-0.4,1.5-0.7,2.4-0.7c2.3,0,2.8,1.5,2.8,3v2.8c0,0.6,0,1.3,0.1,1.8H52.6z M52.4,128.2
			c-1.5,0-3.1,0.2-3.1,1.7c0,0.9,0.6,1.3,1.3,1.3c1,0,1.6-0.6,1.8-1.2c0-0.1,0.1-0.3,0.1-0.4V128.2z"/>
		<path d="M62.3,124.5c0,0.5-0.1,1.1-0.1,2v4.3c0,1.7-0.3,2.7-1.1,3.4c-0.7,0.7-1.8,0.9-2.7,0.9c-0.9,0-1.9-0.2-2.5-0.6l0.3-1
			c0.5,0.3,1.3,0.6,2.2,0.6c1.4,0,2.4-0.7,2.4-2.6v-0.8h0c-0.4,0.7-1.2,1.2-2.4,1.2c-1.8,0-3.2-1.6-3.2-3.6c0-2.5,1.6-3.9,3.3-3.9
			c1.3,0,2,0.7,2.3,1.3h0l0.1-1.1H62.3z M60.9,127.5c0-0.2,0-0.4-0.1-0.6c-0.2-0.8-0.9-1.4-1.9-1.4c-1.3,0-2.2,1.1-2.2,2.8
			c0,1.5,0.7,2.7,2.2,2.7c0.8,0,1.6-0.5,1.9-1.4c0.1-0.2,0.1-0.5,0.1-0.7V127.5z"/>
		<path d="M66,122.5c0,0.5-0.3,0.8-0.9,0.8c-0.5,0-0.8-0.4-0.8-0.8c0-0.5,0.4-0.8,0.8-0.8C65.7,121.6,66,122,66,122.5z M64.5,132
			v-7.4h1.3v7.4H64.5z"/>
		<path d="M68.1,126.6c0-0.8,0-1.4-0.1-2h1.2l0.1,1.2h0c0.4-0.7,1.2-1.4,2.5-1.4c1,0,2.6,0.6,2.6,3.2v4.4h-1.3v-4.3
			c0-1.2-0.4-2.2-1.7-2.2c-0.9,0-1.6,0.6-1.8,1.4c-0.1,0.2-0.1,0.4-0.1,0.6v4.5h-1.3V126.6z"/>
		<path d="M83,124.5c0,0.5-0.1,1.1-0.1,2v4.3c0,1.7-0.3,2.7-1.1,3.4c-0.7,0.7-1.8,0.9-2.7,0.9c-0.9,0-1.9-0.2-2.5-0.6l0.3-1
			c0.5,0.3,1.3,0.6,2.2,0.6c1.4,0,2.4-0.7,2.4-2.6v-0.8h0c-0.4,0.7-1.2,1.2-2.4,1.2c-1.8,0-3.2-1.6-3.2-3.6c0-2.5,1.6-3.9,3.3-3.9
			c1.3,0,2,0.7,2.3,1.3h0l0.1-1.1H83z M81.6,127.5c0-0.2,0-0.4-0.1-0.6c-0.2-0.8-0.9-1.4-1.9-1.4c-1.3,0-2.2,1.1-2.2,2.8
			c0,1.5,0.7,2.7,2.2,2.7c0.8,0,1.6-0.5,1.9-1.4c0.1-0.2,0.1-0.5,0.1-0.7V127.5z"/>
		<path d="M89.2,128.5c0,1.8,1.2,2.6,2.5,2.6c1,0,1.5-0.2,2.1-0.4l0.2,1c-0.5,0.2-1.3,0.5-2.5,0.5c-2.3,0-3.6-1.5-3.6-3.7
			s1.3-4,3.5-4c2.4,0,3.1,2.1,3.1,3.5c0,0.3,0,0.5,0,0.6H89.2z M93.1,127.5c0-0.9-0.4-2.2-1.9-2.2c-1.4,0-2,1.3-2.1,2.2H93.1z"/>
		<path d="M96.7,124.5l1.1,1.6c0.3,0.4,0.5,0.8,0.8,1.2h0c0.2-0.4,0.5-0.8,0.7-1.2l1-1.6h1.5l-2.5,3.6l2.6,3.8h-1.5l-1.1-1.7
			c-0.3-0.4-0.5-0.8-0.8-1.3h0c-0.2,0.4-0.5,0.8-0.8,1.3l-1.1,1.7H95l2.6-3.8l-2.5-3.6H96.7z"/>
		<path d="M104.8,122.4v2.1h1.9v1h-1.9v4c0,0.9,0.3,1.4,1,1.4c0.4,0,0.6,0,0.8-0.1l0.1,1c-0.3,0.1-0.7,0.2-1.2,0.2
			c-0.6,0-1.1-0.2-1.5-0.6c-0.4-0.4-0.5-1.1-0.5-1.9v-4h-1.1v-1h1.1v-1.8L104.8,122.4z"/>
		<path d="M108.9,128.5c0,1.8,1.2,2.6,2.5,2.6c1,0,1.5-0.2,2.1-0.4l0.2,1c-0.5,0.2-1.3,0.5-2.5,0.5c-2.3,0-3.6-1.5-3.6-3.7
			s1.3-4,3.5-4c2.4,0,3.1,2.1,3.1,3.5c0,0.3,0,0.5,0,0.6H108.9z M112.9,127.5c0-0.9-0.4-2.2-1.9-2.2c-1.4,0-2,1.3-2.1,2.2H112.9z"/>
		<path d="M115.8,126.9c0-0.9,0-1.6-0.1-2.3h1.2l0,1.5h0.1c0.3-1,1.1-1.6,2.1-1.6c0.2,0,0.3,0,0.4,0v1.3c-0.1,0-0.3,0-0.5,0
			c-0.9,0-1.6,0.7-1.8,1.7c0,0.2-0.1,0.4-0.1,0.6v4h-1.3V126.9z"/>
		<path d="M120.9,126.6c0-0.8,0-1.4-0.1-2h1.2l0.1,1.2h0c0.4-0.7,1.2-1.4,2.5-1.4c1,0,2.6,0.6,2.6,3.2v4.4h-1.3v-4.3
			c0-1.2-0.4-2.2-1.7-2.2c-0.9,0-1.6,0.6-1.8,1.4c-0.1,0.2-0.1,0.4-0.1,0.6v4.5h-1.3V126.6z"/>
		<path d="M133.5,132l-0.1-0.9h0c-0.4,0.6-1.2,1.1-2.3,1.1c-1.5,0-2.3-1.1-2.3-2.1c0-1.8,1.6-2.8,4.5-2.8v-0.2
			c0-0.6-0.2-1.7-1.7-1.7c-0.7,0-1.4,0.2-1.9,0.6l-0.3-0.9c0.6-0.4,1.5-0.7,2.4-0.7c2.3,0,2.8,1.5,2.8,3v2.8c0,0.6,0,1.3,0.1,1.8
			H133.5z M133.3,128.2c-1.5,0-3.1,0.2-3.1,1.7c0,0.9,0.6,1.3,1.3,1.3c1,0,1.6-0.6,1.8-1.2c0-0.1,0.1-0.3,0.1-0.4V128.2z"/>
		<path d="M136.8,121.1h1.3V132h-1.3V121.1z"/>
	</g>
	<g>
		<path d="M11.7,151.5c-0.4,0.2-1.1,0.4-2.1,0.4c-2.2,0-3.7-1.5-3.7-3.8c0-2.3,1.6-3.9,4-3.9c0.8,0,1.5,0.2,1.9,0.4l-0.3,1
			c-0.3-0.2-0.8-0.4-1.6-0.4c-1.7,0-2.6,1.3-2.6,2.8c0,1.7,1.1,2.8,2.6,2.8c0.8,0,1.3-0.2,1.7-0.4L11.7,151.5z"/>
		<path d="M19.8,148c0,2.7-1.9,3.9-3.7,3.9c-2,0-3.6-1.5-3.6-3.8c0-2.5,1.6-3.9,3.7-3.9C18.4,144.2,19.8,145.8,19.8,148z
			 M13.9,148.1c0,1.6,0.9,2.9,2.3,2.9c1.3,0,2.3-1.2,2.3-2.9c0-1.3-0.6-2.9-2.2-2.9S13.9,146.7,13.9,148.1z"/>
		<path d="M21.5,146.4c0-0.8,0-1.4-0.1-2h1.2l0.1,1.2h0c0.4-0.7,1.2-1.4,2.5-1.4c1,0,2.6,0.6,2.6,3.2v4.4h-1.3v-4.3
			c0-1.2-0.4-2.2-1.7-2.2c-0.9,0-1.6,0.6-1.8,1.4c-0.1,0.2-0.1,0.4-0.1,0.6v4.5h-1.3V146.4z"/>
		<path d="M29.9,150.4c0.4,0.3,1.1,0.5,1.8,0.5c1,0,1.4-0.5,1.4-1.1c0-0.6-0.4-1-1.4-1.4c-1.3-0.5-2-1.2-2-2.1c0-1.2,1-2.2,2.6-2.2
			c0.8,0,1.4,0.2,1.8,0.5l-0.3,1c-0.3-0.2-0.8-0.4-1.5-0.4c-0.8,0-1.2,0.5-1.2,1c0,0.6,0.4,0.9,1.4,1.3c1.3,0.5,1.9,1.1,1.9,2.2
			c0,1.3-1,2.2-2.8,2.2c-0.8,0-1.6-0.2-2.1-0.5L29.9,150.4z"/>
		<path d="M42.3,149.8c0,0.8,0,1.4,0.1,2h-1.2l-0.1-1.2h0c-0.4,0.6-1.1,1.4-2.5,1.4c-1.2,0-2.6-0.6-2.6-3.3v-4.3h1.3v4.1
			c0,1.4,0.4,2.4,1.7,2.4c0.9,0,1.5-0.6,1.8-1.2c0.1-0.2,0.1-0.4,0.1-0.7v-4.6h1.3V149.8z"/>
		<path d="M44.6,140.9h1.3v10.9h-1.3V140.9z"/>
		<path d="M49.8,142.3v2.1h1.9v1h-1.9v4c0,0.9,0.3,1.4,1,1.4c0.4,0,0.6,0,0.8-0.1l0.1,1c-0.3,0.1-0.7,0.2-1.2,0.2
			c-0.6,0-1.1-0.2-1.5-0.6c-0.4-0.4-0.5-1.1-0.5-1.9v-4h-1.1v-1h1.1v-1.8L49.8,142.3z"/>
		<path d="M57.4,151.8l-0.1-0.9h0c-0.4,0.6-1.2,1.1-2.3,1.1c-1.5,0-2.3-1.1-2.3-2.1c0-1.8,1.6-2.8,4.5-2.8v-0.2
			c0-0.6-0.2-1.7-1.7-1.7c-0.7,0-1.4,0.2-1.9,0.6l-0.3-0.9c0.6-0.4,1.5-0.7,2.4-0.7c2.3,0,2.8,1.5,2.8,3v2.8c0,0.6,0,1.3,0.1,1.8
			H57.4z M57.2,148c-1.5,0-3.1,0.2-3.1,1.7c0,0.9,0.6,1.3,1.3,1.3c1,0,1.6-0.6,1.8-1.2c0-0.1,0.1-0.3,0.1-0.4V148z"/>
		<path d="M60.6,146.4c0-0.8,0-1.4-0.1-2h1.2l0.1,1.2h0c0.4-0.7,1.2-1.4,2.5-1.4c1,0,2.6,0.6,2.6,3.2v4.4h-1.3v-4.3
			c0-1.2-0.4-2.2-1.7-2.2c-0.9,0-1.6,0.6-1.8,1.4c-0.1,0.2-0.1,0.4-0.1,0.6v4.5h-1.3V146.4z"/>
		<path d="M70.8,142.3v2.1h1.9v1h-1.9v4c0,0.9,0.3,1.4,1,1.4c0.4,0,0.6,0,0.8-0.1l0.1,1c-0.3,0.1-0.7,0.2-1.2,0.2
			c-0.6,0-1.1-0.2-1.5-0.6c-0.4-0.4-0.5-1.1-0.5-1.9v-4h-1.1v-1h1.1v-1.8L70.8,142.3z"/>
		<path d="M74.1,150.4c0.4,0.3,1.1,0.5,1.8,0.5c1,0,1.4-0.5,1.4-1.1c0-0.6-0.4-1-1.4-1.4c-1.3-0.5-2-1.2-2-2.1c0-1.2,1-2.2,2.6-2.2
			c0.8,0,1.4,0.2,1.8,0.5l-0.3,1c-0.3-0.2-0.8-0.4-1.5-0.4c-0.8,0-1.2,0.5-1.2,1c0,0.6,0.4,0.9,1.4,1.3c1.3,0.5,1.9,1.1,1.9,2.2
			c0,1.3-1,2.2-2.8,2.2c-0.8,0-1.6-0.2-2.1-0.5L74.1,150.4z"/>
		<path d="M85.2,142.3v2.1h1.9v1h-1.9v4c0,0.9,0.3,1.4,1,1.4c0.4,0,0.6,0,0.8-0.1l0.1,1c-0.3,0.1-0.7,0.2-1.2,0.2
			c-0.6,0-1.1-0.2-1.5-0.6c-0.4-0.4-0.5-1.1-0.5-1.9v-4h-1.1v-1h1.1v-1.8L85.2,142.3z"/>
		<path d="M95.3,148c0,2.7-1.9,3.9-3.7,3.9c-2,0-3.6-1.5-3.6-3.8c0-2.5,1.6-3.9,3.7-3.9C93.8,144.2,95.3,145.8,95.3,148z
			 M89.4,148.1c0,1.6,0.9,2.9,2.3,2.9c1.3,0,2.3-1.2,2.3-2.9c0-1.3-0.6-2.9-2.2-2.9S89.4,146.7,89.4,148.1z"/>
		<path d="M106.5,149.8c0,0.8,0,1.4,0.1,2h-1.2l-0.1-1.2h0c-0.4,0.6-1.1,1.4-2.5,1.4c-1.2,0-2.6-0.6-2.6-3.3v-4.3h1.3v4.1
			c0,1.4,0.4,2.4,1.7,2.4c0.9,0,1.5-0.6,1.8-1.2c0.1-0.2,0.1-0.4,0.1-0.7v-4.6h1.3V149.8z"/>
		<path d="M108.7,146.8c0-1,0-1.7-0.1-2.4h1.2l0.1,1.3h0c0.6-0.9,1.4-1.4,2.6-1.4c1.8,0,3.1,1.5,3.1,3.8c0,2.7-1.6,4-3.4,4
			c-1,0-1.8-0.4-2.3-1.2h0v4h-1.3V146.8z M110,148.8c0,0.2,0,0.4,0.1,0.6c0.2,0.9,1.1,1.6,2,1.6c1.4,0,2.3-1.2,2.3-2.9
			c0-1.5-0.8-2.8-2.2-2.8c-0.9,0-1.8,0.7-2,1.7c0,0.2-0.1,0.4-0.1,0.6V148.8z"/>
		<path d="M123.8,144.4c0,0.5-0.1,1.1-0.1,2v4.3c0,1.7-0.3,2.7-1.1,3.4c-0.7,0.7-1.8,0.9-2.7,0.9c-0.9,0-1.9-0.2-2.5-0.6l0.3-1
			c0.5,0.3,1.3,0.6,2.2,0.6c1.4,0,2.4-0.7,2.4-2.6v-0.8h0c-0.4,0.7-1.2,1.2-2.4,1.2c-1.8,0-3.2-1.6-3.2-3.6c0-2.5,1.6-3.9,3.3-3.9
			c1.3,0,2,0.7,2.3,1.3h0l0.1-1.1H123.8z M122.4,147.3c0-0.2,0-0.4-0.1-0.6c-0.2-0.8-0.9-1.4-1.9-1.4c-1.3,0-2.2,1.1-2.2,2.8
			c0,1.5,0.7,2.7,2.2,2.7c0.8,0,1.6-0.5,1.9-1.4c0.1-0.2,0.1-0.5,0.1-0.7V147.3z"/>
		<path d="M126,146.7c0-0.9,0-1.6-0.1-2.3h1.2l0,1.5h0.1c0.3-1,1.1-1.6,2.1-1.6c0.2,0,0.3,0,0.4,0v1.3c-0.1,0-0.3,0-0.5,0
			c-0.9,0-1.6,0.7-1.8,1.7c0,0.2-0.1,0.4-0.1,0.6v4H126V146.7z"/>
		<path d="M135,151.8l-0.1-0.9h0c-0.4,0.6-1.2,1.1-2.3,1.1c-1.5,0-2.3-1.1-2.3-2.1c0-1.8,1.6-2.8,4.5-2.8v-0.2
			c0-0.6-0.2-1.7-1.7-1.7c-0.7,0-1.4,0.2-1.9,0.6l-0.3-0.9c0.6-0.4,1.5-0.7,2.4-0.7c2.3,0,2.8,1.5,2.8,3v2.8c0,0.6,0,1.3,0.1,1.8
			H135z M134.8,148c-1.5,0-3.1,0.2-3.1,1.7c0,0.9,0.6,1.3,1.3,1.3c1,0,1.6-0.6,1.8-1.2c0-0.1,0.1-0.3,0.1-0.4V148z"/>
		<path d="M144.7,140.9v9c0,0.7,0,1.4,0.1,1.9h-1.2l-0.1-1.3h0c-0.4,0.8-1.3,1.5-2.5,1.5c-1.8,0-3.2-1.5-3.2-3.8c0-2.5,1.5-4,3.3-4
			c1.1,0,1.9,0.5,2.2,1.1h0v-4.4H144.7z M143.4,147.4c0-0.2,0-0.4-0.1-0.6c-0.2-0.9-0.9-1.6-1.9-1.6c-1.4,0-2.2,1.2-2.2,2.9
			c0,1.5,0.7,2.7,2.2,2.7c0.9,0,1.7-0.6,2-1.6c0-0.2,0.1-0.4,0.1-0.6V147.4z"/>
		<path d="M147.7,148.3c0,1.8,1.2,2.6,2.5,2.6c1,0,1.6-0.2,2.1-0.4l0.2,1c-0.5,0.2-1.3,0.5-2.5,0.5c-2.3,0-3.6-1.5-3.6-3.7
			s1.3-4,3.5-4c2.4,0,3.1,2.1,3.1,3.5c0,0.3,0,0.5,0,0.6H147.7z M151.7,147.4c0-0.9-0.4-2.2-1.9-2.2c-1.4,0-2,1.3-2.1,2.2H151.7z"/>
	</g>
	<g>
		<path d="M26.8,166.6c0-0.9,0-1.6-0.1-2.3h1.2l0,1.5h0.1c0.3-1,1.1-1.6,2.1-1.6c0.2,0,0.3,0,0.4,0v1.3c-0.1,0-0.3,0-0.5,0
			c-0.9,0-1.6,0.7-1.8,1.7c0,0.2-0.1,0.4-0.1,0.6v4h-1.3V166.6z"/>
		<path d="M33.3,162.2c0,0.5-0.3,0.8-0.9,0.8c-0.5,0-0.8-0.4-0.8-0.8c0-0.5,0.4-0.8,0.8-0.8C33,161.3,33.3,161.7,33.3,162.2z
			 M31.8,171.7v-7.4h1.3v7.4H31.8z"/>
		<path d="M35.2,170.3c0.4,0.3,1.1,0.5,1.8,0.5c1,0,1.4-0.5,1.4-1.1c0-0.6-0.4-1-1.4-1.4c-1.3-0.5-2-1.2-2-2.1c0-1.2,1-2.2,2.6-2.2
			c0.8,0,1.4,0.2,1.8,0.5l-0.3,1c-0.3-0.2-0.8-0.4-1.5-0.4c-0.8,0-1.2,0.5-1.2,1c0,0.6,0.4,0.9,1.4,1.3c1.3,0.5,1.9,1.1,1.9,2.2
			c0,1.3-1,2.2-2.8,2.2c-0.8,0-1.6-0.2-2.1-0.5L35.2,170.3z"/>
		<path d="M42.8,167.6L42.8,167.6c0.2-0.3,0.5-0.6,0.7-0.8l2.2-2.6h1.6l-2.9,3.1l3.3,4.4h-1.6l-2.6-3.6l-0.7,0.8v2.8h-1.3v-10.9h1.3
			V167.6z"/>
		<path d="M52,166.2c0-0.8,0-1.4-0.1-2h1.2l0.1,1.2h0c0.4-0.7,1.1-1.4,2.3-1.4c1,0,1.8,0.6,2.1,1.5h0c0.2-0.4,0.5-0.7,0.8-1
			c0.4-0.3,0.9-0.5,1.6-0.5c1,0,2.4,0.6,2.4,3.2v4.4h-1.3v-4.2c0-1.4-0.5-2.3-1.6-2.3c-0.8,0-1.4,0.6-1.6,1.2
			c-0.1,0.2-0.1,0.4-0.1,0.7v4.6h-1.3v-4.4c0-1.2-0.5-2-1.5-2c-0.8,0-1.5,0.7-1.7,1.3c-0.1,0.2-0.1,0.4-0.1,0.7v4.5H52V166.2z"/>
		<path d="M68.9,171.7l-0.1-0.9h0c-0.4,0.6-1.2,1.1-2.3,1.1c-1.5,0-2.3-1.1-2.3-2.1c0-1.8,1.6-2.8,4.5-2.8v-0.2
			c0-0.6-0.2-1.7-1.7-1.7c-0.7,0-1.4,0.2-1.9,0.6l-0.3-0.9c0.6-0.4,1.5-0.7,2.4-0.7c2.3,0,2.8,1.5,2.8,3v2.8c0,0.6,0,1.3,0.1,1.8
			H68.9z M68.7,167.9c-1.5,0-3.1,0.2-3.1,1.7c0,0.9,0.6,1.3,1.3,1.3c1,0,1.6-0.6,1.8-1.2c0-0.1,0.1-0.3,0.1-0.4V167.9z"/>
		<path d="M72.1,166.2c0-0.8,0-1.4-0.1-2h1.2l0.1,1.2h0c0.4-0.7,1.2-1.4,2.5-1.4c1,0,2.6,0.6,2.6,3.2v4.4h-1.3v-4.3
			c0-1.2-0.4-2.2-1.7-2.2c-0.9,0-1.6,0.6-1.8,1.4c-0.1,0.2-0.1,0.4-0.1,0.6v4.5h-1.3V166.2z"/>
		<path d="M84.8,171.7l-0.1-0.9h0c-0.4,0.6-1.2,1.1-2.3,1.1c-1.5,0-2.3-1.1-2.3-2.1c0-1.8,1.6-2.8,4.5-2.8v-0.2
			c0-0.6-0.2-1.7-1.7-1.7c-0.7,0-1.4,0.2-1.9,0.6l-0.3-0.9c0.6-0.4,1.5-0.7,2.4-0.7c2.3,0,2.8,1.5,2.8,3v2.8c0,0.6,0,1.3,0.1,1.8
			H84.8z M84.6,167.9c-1.5,0-3.1,0.2-3.1,1.7c0,0.9,0.6,1.3,1.3,1.3c1,0,1.6-0.6,1.8-1.2c0-0.1,0.1-0.3,0.1-0.4V167.9z"/>
		<path d="M94.4,164.2c0,0.5-0.1,1.1-0.1,2v4.3c0,1.7-0.3,2.7-1.1,3.4c-0.7,0.7-1.8,0.9-2.7,0.9c-0.9,0-1.9-0.2-2.5-0.6l0.3-1
			c0.5,0.3,1.3,0.6,2.2,0.6c1.4,0,2.4-0.7,2.4-2.6v-0.8h0c-0.4,0.7-1.2,1.2-2.4,1.2c-1.8,0-3.2-1.6-3.2-3.6c0-2.5,1.6-3.9,3.3-3.9
			c1.3,0,2,0.7,2.3,1.3h0l0.1-1.1H94.4z M93,167.2c0-0.2,0-0.4-0.1-0.6c-0.2-0.8-0.9-1.4-1.9-1.4c-1.3,0-2.2,1.1-2.2,2.8
			c0,1.5,0.7,2.7,2.2,2.7c0.8,0,1.6-0.5,1.9-1.4c0.1-0.2,0.1-0.5,0.1-0.7V167.2z"/>
		<path d="M97.4,168.2c0,1.8,1.2,2.6,2.5,2.6c1,0,1.5-0.2,2.1-0.4l0.2,1c-0.5,0.2-1.3,0.5-2.5,0.5c-2.3,0-3.6-1.5-3.6-3.7
			s1.3-4,3.5-4c2.4,0,3.1,2.1,3.1,3.5c0,0.3,0,0.5,0,0.6H97.4z M101.3,167.2c0-0.9-0.4-2.2-1.9-2.2c-1.4,0-2,1.3-2.1,2.2H101.3z"/>
		<path d="M104.3,166.2c0-0.8,0-1.4-0.1-2h1.2l0.1,1.2h0c0.4-0.7,1.1-1.4,2.3-1.4c1,0,1.8,0.6,2.1,1.5h0c0.2-0.4,0.5-0.7,0.8-1
			c0.4-0.3,0.9-0.5,1.6-0.5c1,0,2.4,0.6,2.4,3.2v4.4h-1.3v-4.2c0-1.4-0.5-2.3-1.6-2.3c-0.8,0-1.4,0.6-1.6,1.2
			c-0.1,0.2-0.1,0.4-0.1,0.7v4.6h-1.3v-4.4c0-1.2-0.5-2-1.5-2c-0.8,0-1.5,0.7-1.7,1.3c-0.1,0.2-0.1,0.4-0.1,0.7v4.5h-1.3V166.2z"/>
		<path d="M117.8,168.2c0,1.8,1.2,2.6,2.5,2.6c1,0,1.6-0.2,2.1-0.4l0.2,1c-0.5,0.2-1.3,0.5-2.5,0.5c-2.3,0-3.6-1.5-3.6-3.7
			s1.3-4,3.5-4c2.4,0,3.1,2.1,3.1,3.5c0,0.3,0,0.5,0,0.6H117.8z M121.8,167.2c0-0.9-0.4-2.2-1.9-2.2c-1.4,0-2,1.3-2.1,2.2H121.8z"/>
		<path d="M124.8,166.2c0-0.8,0-1.4-0.1-2h1.2l0.1,1.2h0c0.4-0.7,1.2-1.4,2.5-1.4c1,0,2.6,0.6,2.6,3.2v4.4h-1.3v-4.3
			c0-1.2-0.4-2.2-1.7-2.2c-0.9,0-1.6,0.6-1.8,1.4c-0.1,0.2-0.1,0.4-0.1,0.6v4.5h-1.3V166.2z"/>
		<path d="M134.9,162.1v2.1h1.9v1h-1.9v4c0,0.9,0.3,1.4,1,1.4c0.4,0,0.6,0,0.8-0.1l0.1,1c-0.3,0.1-0.7,0.2-1.2,0.2
			c-0.6,0-1.1-0.2-1.5-0.6c-0.4-0.4-0.5-1.1-0.5-1.9v-4h-1.1v-1h1.1v-1.8L134.9,162.1z"/>
	</g>
	<g>
		<path d="M554.6,121.6V132h-1.3v-10.3H554.6z"/>
		<path d="M556.9,126.6c0-0.8,0-1.4-0.1-2h1.2l0.1,1.2h0c0.4-0.7,1.1-1.4,2.3-1.4c1,0,1.8,0.6,2.1,1.5h0c0.2-0.4,0.5-0.7,0.8-1
			c0.4-0.3,0.9-0.5,1.6-0.5c1,0,2.4,0.6,2.4,3.2v4.4h-1.3v-4.2c0-1.4-0.5-2.3-1.6-2.3c-0.8,0-1.4,0.6-1.6,1.2
			c-0.1,0.2-0.1,0.4-0.1,0.7v4.6h-1.3v-4.4c0-1.2-0.5-2-1.5-2c-0.8,0-1.5,0.7-1.7,1.3c-0.1,0.2-0.1,0.4-0.1,0.7v4.5h-1.3V126.6z"/>
		<path d="M569.7,127c0-1,0-1.7-0.1-2.4h1.2l0.1,1.3h0c0.6-0.9,1.4-1.4,2.6-1.4c1.8,0,3.1,1.5,3.1,3.8c0,2.7-1.6,4-3.4,4
			c-1,0-1.8-0.4-2.3-1.2h0v4h-1.3V127z M571,128.9c0,0.2,0,0.4,0.1,0.6c0.2,0.9,1.1,1.6,2,1.6c1.4,0,2.3-1.2,2.3-2.9
			c0-1.5-0.8-2.8-2.2-2.8c-0.9,0-1.8,0.7-2,1.7c0,0.2-0.1,0.4-0.1,0.6V128.9z"/>
		<path d="M578.4,121.1h1.3V132h-1.3V121.1z"/>
		<path d="M582.8,128.5c0,1.8,1.2,2.6,2.5,2.6c1,0,1.6-0.2,2.1-0.4l0.2,1c-0.5,0.2-1.3,0.5-2.5,0.5c-2.3,0-3.6-1.5-3.6-3.7
			s1.3-4,3.5-4c2.4,0,3.1,2.1,3.1,3.5c0,0.3,0,0.5,0,0.6H582.8z M586.7,127.5c0-0.9-0.4-2.2-1.9-2.2c-1.4,0-2,1.3-2.1,2.2H586.7z"/>
		<path d="M589.7,126.6c0-0.8,0-1.4-0.1-2h1.2l0.1,1.2h0c0.4-0.7,1.1-1.4,2.3-1.4c1,0,1.8,0.6,2.1,1.5h0c0.2-0.4,0.5-0.7,0.8-1
			c0.4-0.3,0.9-0.5,1.6-0.5c1,0,2.4,0.6,2.4,3.2v4.4H599v-4.2c0-1.4-0.5-2.3-1.6-2.3c-0.8,0-1.4,0.6-1.6,1.2
			c-0.1,0.2-0.1,0.4-0.1,0.7v4.6h-1.3v-4.4c0-1.2-0.5-2-1.5-2c-0.8,0-1.5,0.7-1.7,1.3c-0.1,0.2-0.1,0.4-0.1,0.7v4.5h-1.3V126.6z"/>
		<path d="M603.2,128.5c0,1.8,1.2,2.6,2.5,2.6c1,0,1.6-0.2,2.1-0.4l0.2,1c-0.5,0.2-1.3,0.5-2.5,0.5c-2.3,0-3.6-1.5-3.6-3.7
			s1.3-4,3.5-4c2.4,0,3.1,2.1,3.1,3.5c0,0.3,0,0.5,0,0.6H603.2z M607.2,127.5c0-0.9-0.4-2.2-1.9-2.2c-1.4,0-2,1.3-2.1,2.2H607.2z"/>
		<path d="M610.2,126.6c0-0.8,0-1.4-0.1-2h1.2l0.1,1.2h0c0.4-0.7,1.2-1.4,2.5-1.4c1,0,2.6,0.6,2.6,3.2v4.4h-1.3v-4.3
			c0-1.2-0.4-2.2-1.7-2.2c-0.9,0-1.6,0.6-1.8,1.4c-0.1,0.2-0.1,0.4-0.1,0.6v4.5h-1.3V126.6z"/>
		<path d="M620.3,122.4v2.1h1.9v1h-1.9v4c0,0.9,0.3,1.4,1,1.4c0.4,0,0.6,0,0.8-0.1l0.1,1c-0.3,0.1-0.7,0.2-1.2,0.2
			c-0.6,0-1.1-0.2-1.5-0.6c-0.4-0.4-0.5-1.1-0.5-1.9v-4h-1.1v-1h1.1v-1.8L620.3,122.4z"/>
		<path d="M624.4,128.5c0,1.8,1.2,2.6,2.5,2.6c1,0,1.5-0.2,2.1-0.4l0.2,1c-0.5,0.2-1.3,0.5-2.5,0.5c-2.3,0-3.6-1.5-3.6-3.7
			s1.3-4,3.5-4c2.4,0,3.1,2.1,3.1,3.5c0,0.3,0,0.5,0,0.6H624.4z M628.4,127.5c0-0.9-0.4-2.2-1.9-2.2c-1.4,0-2,1.3-2.1,2.2H628.4z"/>
		<path d="M637.8,121.1v9c0,0.7,0,1.4,0.1,1.9h-1.2l-0.1-1.3h0c-0.4,0.8-1.3,1.5-2.5,1.5c-1.8,0-3.2-1.5-3.2-3.8c0-2.5,1.5-4,3.3-4
			c1.1,0,1.9,0.5,2.2,1.1h0v-4.4H637.8z M636.4,127.6c0-0.2,0-0.4-0.1-0.6c-0.2-0.9-0.9-1.6-1.9-1.6c-1.4,0-2.2,1.2-2.2,2.9
			c0,1.5,0.7,2.7,2.2,2.7c0.9,0,1.7-0.6,2-1.6c0-0.2,0.1-0.4,0.1-0.6V127.6z"/>
	</g>
	<g>
		<path d="M551.7,151.8v-6.4h-1v-1h1V144c0-1,0.2-2,0.9-2.6c0.5-0.5,1.2-0.7,1.8-0.7c0.5,0,0.9,0.1,1.2,0.2l-0.2,1
			c-0.2-0.1-0.5-0.2-0.9-0.2c-1.2,0-1.4,1-1.4,2.1v0.4h1.8v1H553v6.4H551.7z"/>
		<path d="M556,146.7c0-0.9,0-1.6-0.1-2.3h1.2l0,1.5h0.1c0.3-1,1.1-1.6,2.1-1.6c0.2,0,0.3,0,0.4,0v1.3c-0.1,0-0.3,0-0.5,0
			c-0.9,0-1.6,0.7-1.8,1.7c0,0.2-0.1,0.4-0.1,0.6v4H556V146.7z"/>
		<path d="M565,151.8l-0.1-0.9h0c-0.4,0.6-1.2,1.1-2.3,1.1c-1.5,0-2.3-1.1-2.3-2.1c0-1.8,1.6-2.8,4.5-2.8v-0.2
			c0-0.6-0.2-1.7-1.7-1.7c-0.7,0-1.4,0.2-1.9,0.6l-0.3-0.9c0.6-0.4,1.5-0.7,2.4-0.7c2.3,0,2.8,1.5,2.8,3v2.8c0,0.6,0,1.3,0.1,1.8
			H565z M564.8,148c-1.5,0-3.1,0.2-3.1,1.7c0,0.9,0.6,1.3,1.3,1.3c1,0,1.6-0.6,1.8-1.2c0-0.1,0.1-0.3,0.1-0.4V148z"/>
		<path d="M568.3,146.4c0-0.8,0-1.4-0.1-2h1.2l0.1,1.2h0c0.4-0.7,1.1-1.4,2.3-1.4c1,0,1.8,0.6,2.1,1.5h0c0.2-0.4,0.5-0.7,0.8-1
			c0.4-0.3,0.9-0.5,1.6-0.5c1,0,2.4,0.6,2.4,3.2v4.4h-1.3v-4.2c0-1.4-0.5-2.3-1.6-2.3c-0.8,0-1.4,0.6-1.6,1.2
			c-0.1,0.2-0.1,0.4-0.1,0.7v4.6H573v-4.4c0-1.2-0.5-2-1.5-2c-0.8,0-1.5,0.7-1.7,1.3c-0.1,0.2-0.1,0.4-0.1,0.7v4.5h-1.3V146.4z"/>
		<path d="M581.9,148.3c0,1.8,1.2,2.6,2.5,2.6c1,0,1.6-0.2,2.1-0.4l0.2,1c-0.5,0.2-1.3,0.5-2.5,0.5c-2.3,0-3.6-1.5-3.6-3.7
			s1.3-4,3.5-4c2.4,0,3.1,2.1,3.1,3.5c0,0.3,0,0.5,0,0.6H581.9z M585.8,147.4c0-0.9-0.4-2.2-1.9-2.2c-1.4,0-2,1.3-2.1,2.2H585.8z"/>
		<path d="M589.2,144.4l1,3.8c0.2,0.8,0.4,1.6,0.6,2.4h0c0.2-0.8,0.4-1.5,0.7-2.3l1.2-3.8h1.1l1.2,3.7c0.3,0.9,0.5,1.7,0.7,2.4h0
			c0.1-0.8,0.3-1.5,0.6-2.4l1.1-3.7h1.3l-2.4,7.4H595l-1.1-3.5c-0.3-0.8-0.5-1.6-0.7-2.4h0c-0.2,0.9-0.4,1.7-0.7,2.5l-1.2,3.5h-1.2
			l-2.2-7.4H589.2z"/>
		<path d="M606.6,148c0,2.7-1.9,3.9-3.7,3.9c-2,0-3.6-1.5-3.6-3.8c0-2.5,1.6-3.9,3.7-3.9C605.1,144.2,606.6,145.8,606.6,148z
			 M600.7,148.1c0,1.6,0.9,2.9,2.3,2.9c1.3,0,2.3-1.2,2.3-2.9c0-1.3-0.6-2.9-2.2-2.9C601.4,145.2,600.7,146.7,600.7,148.1z"/>
		<path d="M608.3,146.7c0-0.9,0-1.6-0.1-2.3h1.2l0,1.5h0.1c0.3-1,1.1-1.6,2.1-1.6c0.2,0,0.3,0,0.4,0v1.3c-0.1,0-0.3,0-0.5,0
			c-0.9,0-1.6,0.7-1.8,1.7c0,0.2-0.1,0.4-0.1,0.6v4h-1.3V146.7z"/>
		<path d="M614.6,147.8L614.6,147.8c0.2-0.3,0.5-0.6,0.7-0.8l2.2-2.6h1.6l-2.9,3.1l3.3,4.4h-1.6l-2.6-3.6l-0.7,0.8v2.8h-1.3v-10.9
			h1.3V147.8z"/>
		<path d="M625.4,142.3v2.1h1.9v1h-1.9v4c0,0.9,0.3,1.4,1,1.4c0.4,0,0.6,0,0.8-0.1l0.1,1c-0.3,0.1-0.7,0.2-1.2,0.2
			c-0.6,0-1.1-0.2-1.5-0.6c-0.4-0.4-0.5-1.1-0.5-1.9v-4h-1.1v-1h1.1v-1.8L625.4,142.3z"/>
		<path d="M635.5,148c0,2.7-1.9,3.9-3.7,3.9c-2,0-3.6-1.5-3.6-3.8c0-2.5,1.6-3.9,3.7-3.9C634,144.2,635.5,145.8,635.5,148z
			 M629.6,148.1c0,1.6,0.9,2.9,2.3,2.9c1.3,0,2.3-1.2,2.3-2.9c0-1.3-0.6-2.9-2.2-2.9C630.3,145.2,629.6,146.7,629.6,148.1z"/>
	</g>
	<g>
		<path d="M535.2,171.7l-0.1-0.9h0c-0.4,0.6-1.2,1.1-2.3,1.1c-1.5,0-2.3-1.1-2.3-2.1c0-1.8,1.6-2.8,4.5-2.8v-0.2
			c0-0.6-0.2-1.7-1.7-1.7c-0.7,0-1.4,0.2-1.9,0.6l-0.3-0.9c0.6-0.4,1.5-0.7,2.4-0.7c2.3,0,2.8,1.5,2.8,3v2.8c0,0.6,0,1.3,0.1,1.8
			H535.2z M535,167.9c-1.5,0-3.1,0.2-3.1,1.7c0,0.9,0.6,1.3,1.3,1.3c1,0,1.6-0.6,1.8-1.2c0-0.1,0.1-0.3,0.1-0.4V167.9z"/>
		<path d="M544.9,160.8v9c0,0.7,0,1.4,0.1,1.9h-1.2l-0.1-1.3h0c-0.4,0.8-1.3,1.5-2.5,1.5c-1.8,0-3.2-1.5-3.2-3.8c0-2.5,1.5-4,3.3-4
			c1.1,0,1.9,0.5,2.2,1.1h0v-4.4H544.9z M543.5,167.3c0-0.2,0-0.4-0.1-0.6c-0.2-0.9-0.9-1.6-1.9-1.6c-1.4,0-2.2,1.2-2.2,2.9
			c0,1.5,0.7,2.7,2.2,2.7c0.9,0,1.7-0.6,2-1.6c0-0.2,0.1-0.4,0.1-0.6V167.3z"/>
		<path d="M553.5,160.8v9c0,0.7,0,1.4,0.1,1.9h-1.2l-0.1-1.3h0c-0.4,0.8-1.3,1.5-2.5,1.5c-1.8,0-3.2-1.5-3.2-3.8c0-2.5,1.5-4,3.3-4
			c1.1,0,1.9,0.5,2.2,1.1h0v-4.4H553.5z M552.2,167.3c0-0.2,0-0.4-0.1-0.6c-0.2-0.9-0.9-1.6-1.9-1.6c-1.4,0-2.2,1.2-2.2,2.9
			c0,1.5,0.7,2.7,2.2,2.7c0.9,0,1.7-0.6,2-1.6c0-0.2,0.1-0.4,0.1-0.6V167.3z"/>
		<path d="M555.7,166.6c0-0.9,0-1.6-0.1-2.3h1.2l0,1.5h0.1c0.3-1,1.1-1.6,2.1-1.6c0.2,0,0.3,0,0.4,0v1.3c-0.1,0-0.3,0-0.5,0
			c-0.9,0-1.6,0.7-1.8,1.7c0,0.2-0.1,0.4-0.1,0.6v4h-1.3V166.6z"/>
		<path d="M561.4,168.2c0,1.8,1.2,2.6,2.5,2.6c1,0,1.6-0.2,2.1-0.4l0.2,1c-0.5,0.2-1.3,0.5-2.5,0.5c-2.3,0-3.6-1.5-3.6-3.7
			s1.3-4,3.5-4c2.4,0,3.1,2.1,3.1,3.5c0,0.3,0,0.5,0,0.6H561.4z M565.4,167.2c0-0.9-0.4-2.2-1.9-2.2c-1.4,0-2,1.3-2.1,2.2H565.4z"/>
		<path d="M568.2,170.3c0.4,0.3,1.1,0.5,1.8,0.5c1,0,1.4-0.5,1.4-1.1c0-0.6-0.4-1-1.4-1.4c-1.3-0.5-2-1.2-2-2.1c0-1.2,1-2.2,2.6-2.2
			c0.8,0,1.4,0.2,1.8,0.5l-0.3,1c-0.3-0.2-0.8-0.4-1.5-0.4c-0.8,0-1.2,0.5-1.2,1c0,0.6,0.4,0.9,1.4,1.3c1.3,0.5,1.9,1.1,1.9,2.2
			c0,1.3-1,2.2-2.8,2.2c-0.8,0-1.6-0.2-2.1-0.5L568.2,170.3z"/>
		<path d="M574.2,170.3c0.4,0.3,1.1,0.5,1.8,0.5c1,0,1.4-0.5,1.4-1.1c0-0.6-0.4-1-1.4-1.4c-1.3-0.5-2-1.2-2-2.1c0-1.2,1-2.2,2.6-2.2
			c0.8,0,1.4,0.2,1.8,0.5l-0.3,1c-0.3-0.2-0.8-0.4-1.5-0.4c-0.8,0-1.2,0.5-1.2,1c0,0.6,0.4,0.9,1.4,1.3c1.3,0.5,1.9,1.1,1.9,2.2
			c0,1.3-1,2.2-2.8,2.2c-0.8,0-1.6-0.2-2.1-0.5L574.2,170.3z"/>
		<path d="M589,171.4c-0.4,0.2-1.1,0.4-2.1,0.4c-2.2,0-3.7-1.5-3.7-3.8c0-2.3,1.6-3.9,4-3.9c0.8,0,1.5,0.2,1.9,0.4l-0.3,1
			c-0.3-0.2-0.8-0.4-1.6-0.4c-1.7,0-2.6,1.3-2.6,2.8c0,1.7,1.1,2.8,2.6,2.8c0.8,0,1.3-0.2,1.7-0.4L589,171.4z"/>
		<path d="M591.2,164.2l1.6,4.4c0.2,0.5,0.4,1.1,0.5,1.5h0c0.1-0.4,0.3-1,0.5-1.5l1.5-4.4h1.4l-2,5.3c-1,2.5-1.6,3.8-2.5,4.6
			c-0.7,0.6-1.3,0.8-1.7,0.9l-0.3-1.1c0.3-0.1,0.8-0.3,1.2-0.7c0.4-0.3,0.8-0.8,1.1-1.5c0.1-0.1,0.1-0.2,0.1-0.3s0-0.2-0.1-0.4
			l-2.7-6.8H591.2z"/>
		<path d="M597.8,171.7c0-0.5,0.1-1.3,0.1-1.9v-9h1.3v4.7h0c0.5-0.8,1.3-1.4,2.5-1.4c1.8,0,3.1,1.5,3.1,3.8c0,2.7-1.7,4-3.3,4
			c-1.1,0-1.9-0.4-2.5-1.4h0l-0.1,1.2H597.8z M599.2,168.7c0,0.2,0,0.3,0.1,0.5c0.3,0.9,1,1.6,2,1.6c1.4,0,2.3-1.1,2.3-2.9
			c0-1.5-0.8-2.8-2.2-2.8c-0.9,0-1.8,0.6-2.1,1.7c0,0.2-0.1,0.3-0.1,0.6V168.7z"/>
		<path d="M607.4,168.2c0,1.8,1.2,2.6,2.5,2.6c1,0,1.6-0.2,2.1-0.4l0.2,1c-0.5,0.2-1.3,0.5-2.5,0.5c-2.3,0-3.6-1.5-3.6-3.7
			s1.3-4,3.5-4c2.4,0,3.1,2.1,3.1,3.5c0,0.3,0,0.5,0,0.6H607.4z M611.3,167.2c0-0.9-0.4-2.2-1.9-2.2c-1.4,0-2,1.3-2.1,2.2H611.3z"/>
		<path d="M614.3,166.6c0-0.9,0-1.6-0.1-2.3h1.2l0,1.5h0.1c0.3-1,1.1-1.6,2.1-1.6c0.2,0,0.3,0,0.4,0v1.3c-0.1,0-0.3,0-0.5,0
			c-0.9,0-1.6,0.7-1.8,1.7c0,0.2-0.1,0.4-0.1,0.6v4h-1.3V166.6z"/>
		<path d="M622.6,166.6c0-0.9,0-1.6-0.1-2.3h1.2l0,1.5h0.1c0.3-1,1.1-1.6,2.1-1.6c0.2,0,0.3,0,0.4,0v1.3c-0.1,0-0.3,0-0.5,0
			c-0.9,0-1.6,0.7-1.8,1.7c0,0.2-0.1,0.4-0.1,0.6v4h-1.3V166.6z"/>
		<path d="M629.1,162.2c0,0.5-0.3,0.8-0.9,0.8c-0.5,0-0.8-0.4-0.8-0.8c0-0.5,0.4-0.8,0.8-0.8C628.8,161.3,629.1,161.7,629.1,162.2z
			 M627.6,171.7v-7.4h1.3v7.4H627.6z"/>
		<path d="M631,170.3c0.4,0.3,1.1,0.5,1.8,0.5c1,0,1.4-0.5,1.4-1.1c0-0.6-0.4-1-1.4-1.4c-1.3-0.5-2-1.2-2-2.1c0-1.2,1-2.2,2.6-2.2
			c0.8,0,1.4,0.2,1.8,0.5l-0.3,1c-0.3-0.2-0.8-0.4-1.5-0.4c-0.8,0-1.2,0.5-1.2,1c0,0.6,0.4,0.9,1.4,1.3c1.3,0.5,1.9,1.1,1.9,2.2
			c0,1.3-1,2.2-2.8,2.2c-0.8,0-1.6-0.2-2.1-0.5L631,170.3z"/>
		<path d="M638.6,167.6L638.6,167.6c0.2-0.3,0.5-0.6,0.7-0.8l2.2-2.6h1.6l-2.9,3.1l3.3,4.4h-1.6l-2.6-3.6l-0.7,0.8v2.8h-1.3v-10.9
			h1.3V167.6z"/>
		<path d="M644.1,170.3c0.4,0.3,1.1,0.5,1.8,0.5c1,0,1.4-0.5,1.4-1.1c0-0.6-0.4-1-1.4-1.4c-1.3-0.5-2-1.2-2-2.1c0-1.2,1-2.2,2.6-2.2
			c0.8,0,1.4,0.2,1.8,0.5l-0.3,1c-0.3-0.2-0.8-0.4-1.5-0.4c-0.8,0-1.2,0.5-1.2,1c0,0.6,0.4,0.9,1.4,1.3c1.3,0.5,1.9,1.1,1.9,2.2
			c0,1.3-1,2.2-2.8,2.2c-0.8,0-1.6-0.2-2.1-0.5L644.1,170.3z"/>
	</g>
	<g>
		<path d="M49.7,336.5c0.6-0.1,1.5-0.2,2.4-0.2c1.3,0,2.2,0.2,2.8,0.8c0.5,0.4,0.9,1,0.9,1.8c0,1-0.7,1.9-1.7,2.3v0
			c1,0.2,2.1,1.1,2.1,2.6c0,0.9-0.4,1.6-0.9,2.1c-0.7,0.7-1.9,1-3.6,1c-0.9,0-1.6-0.1-2.1-0.1V336.5z M51.1,340.7h1.2
			c1.4,0,2.2-0.7,2.2-1.7c0-1.2-0.9-1.7-2.3-1.7c-0.6,0-1,0-1.2,0.1V340.7z M51.1,345.7c0.3,0,0.6,0.1,1.1,0.1c1.4,0,2.7-0.5,2.7-2
			c0-1.4-1.2-2-2.7-2h-1.1V345.7z"/>
		<path d="M58.7,343.2c0,1.8,1.2,2.6,2.5,2.6c1,0,1.6-0.2,2.1-0.4l0.2,1c-0.5,0.2-1.3,0.5-2.5,0.5c-2.3,0-3.6-1.5-3.6-3.7
			c0-2.2,1.3-4,3.5-4c2.4,0,3.1,2.1,3.1,3.5c0,0.3,0,0.5,0,0.6H58.7z M62.7,342.3c0-0.9-0.4-2.2-1.9-2.2c-1.4,0-2,1.3-2.1,2.2H62.7z
			"/>
		<path d="M65.7,341.3c0-0.8,0-1.4-0.1-2h1.2l0.1,1.2h0c0.4-0.7,1.2-1.4,2.5-1.4c1,0,2.6,0.6,2.6,3.2v4.4h-1.3v-4.3
			c0-1.2-0.4-2.2-1.7-2.2c-0.9,0-1.6,0.6-1.8,1.4c-0.1,0.2-0.1,0.4-0.1,0.6v4.5h-1.3V341.3z"/>
		<path d="M79.5,346.4c-0.4,0.2-1.1,0.4-2.1,0.4c-2.2,0-3.7-1.5-3.7-3.8c0-2.3,1.6-3.9,4-3.9c0.8,0,1.5,0.2,1.9,0.4l-0.3,1
			c-0.3-0.2-0.8-0.4-1.6-0.4c-1.7,0-2.6,1.3-2.6,2.8c0,1.7,1.1,2.8,2.6,2.8c0.8,0,1.3-0.2,1.7-0.4L79.5,346.4z"/>
		<path d="M81.1,335.8h1.3v4.6h0c0.2-0.4,0.6-0.7,1-1c0.4-0.2,0.9-0.4,1.4-0.4c1,0,2.6,0.6,2.6,3.2v4.4H86v-4.3
			c0-1.2-0.4-2.2-1.7-2.2c-0.9,0-1.6,0.6-1.8,1.3c-0.1,0.2-0.1,0.4-0.1,0.6v4.5h-1.3V335.8z"/>
		<path d="M89.6,341.3c0-0.8,0-1.4-0.1-2h1.2l0.1,1.2h0c0.4-0.7,1.1-1.4,2.3-1.4c1,0,1.8,0.6,2.1,1.5h0c0.2-0.4,0.5-0.7,0.8-1
			c0.4-0.3,0.9-0.5,1.6-0.5c1,0,2.4,0.6,2.4,3.2v4.4h-1.3v-4.2c0-1.4-0.5-2.3-1.6-2.3c-0.8,0-1.4,0.6-1.6,1.2
			c-0.1,0.2-0.1,0.4-0.1,0.7v4.6h-1.3v-4.4c0-1.2-0.5-2-1.5-2c-0.8,0-1.5,0.7-1.7,1.3c-0.1,0.2-0.1,0.4-0.1,0.7v4.5h-1.3V341.3z"/>
		<path d="M106.5,346.7l-0.1-0.9h0c-0.4,0.6-1.2,1.1-2.3,1.1c-1.5,0-2.3-1.1-2.3-2.1c0-1.8,1.6-2.8,4.5-2.8v-0.2
			c0-0.6-0.2-1.7-1.7-1.7c-0.7,0-1.4,0.2-1.9,0.6l-0.3-0.9c0.6-0.4,1.5-0.7,2.4-0.7c2.3,0,2.8,1.5,2.8,3v2.8c0,0.6,0,1.3,0.1,1.8
			H106.5z M106.3,342.9c-1.5,0-3.1,0.2-3.1,1.7c0,0.9,0.6,1.3,1.3,1.3c1,0,1.6-0.6,1.8-1.2c0-0.1,0.1-0.3,0.1-0.4V342.9z"/>
		<path d="M109.8,341.6c0-0.9,0-1.6-0.1-2.3h1.2l0,1.5h0.1c0.3-1,1.1-1.6,2.1-1.6c0.2,0,0.3,0,0.4,0v1.3c-0.1,0-0.3,0-0.5,0
			c-0.9,0-1.6,0.7-1.8,1.7c0,0.2-0.1,0.4-0.1,0.6v4h-1.3V341.6z"/>
		<path d="M116.1,342.7L116.1,342.7c0.2-0.3,0.5-0.6,0.7-0.8l2.2-2.6h1.6l-2.9,3.1l3.3,4.4h-1.6l-2.6-3.6l-0.7,0.8v2.8h-1.3v-10.9
			h1.3V342.7z"/>
		<path d="M123.5,337.2c0,0.5-0.3,0.8-0.9,0.8c-0.5,0-0.8-0.4-0.8-0.8c0-0.5,0.4-0.8,0.8-0.8C123.1,336.4,123.5,336.7,123.5,337.2z
			 M122,346.7v-7.4h1.3v7.4H122z"/>
		<path d="M125.6,341.3c0-0.8,0-1.4-0.1-2h1.2l0.1,1.2h0c0.4-0.7,1.2-1.4,2.5-1.4c1,0,2.6,0.6,2.6,3.2v4.4h-1.3v-4.3
			c0-1.2-0.4-2.2-1.7-2.2c-0.9,0-1.6,0.6-1.8,1.4c-0.1,0.2-0.1,0.4-0.1,0.6v4.5h-1.3V341.3z"/>
		<path d="M140.5,339.3c0,0.5-0.1,1.1-0.1,2v4.3c0,1.7-0.3,2.7-1.1,3.4c-0.7,0.7-1.8,0.9-2.7,0.9c-0.9,0-1.9-0.2-2.5-0.6l0.3-1
			c0.5,0.3,1.3,0.6,2.2,0.6c1.4,0,2.4-0.7,2.4-2.6v-0.8h0c-0.4,0.7-1.2,1.2-2.4,1.2c-1.8,0-3.2-1.6-3.2-3.6c0-2.5,1.6-3.9,3.3-3.9
			c1.3,0,2,0.7,2.3,1.3h0l0.1-1.1H140.5z M139.1,342.2c0-0.2,0-0.4-0.1-0.6c-0.2-0.8-0.9-1.4-1.9-1.4c-1.3,0-2.2,1.1-2.2,2.8
			c0,1.5,0.7,2.7,2.2,2.7c0.8,0,1.6-0.5,1.9-1.4c0.1-0.2,0.1-0.5,0.1-0.7V342.2z"/>
	</g>
	<g>
		<path d="M62.5,366.6v-6.4h-1v-1h1v-0.4c0-1,0.2-2,0.9-2.6c0.5-0.5,1.2-0.7,1.8-0.7c0.5,0,0.9,0.1,1.2,0.2l-0.2,1
			c-0.2-0.1-0.5-0.2-0.9-0.2c-1.2,0-1.4,1-1.4,2.1v0.4h1.8v1h-1.8v6.4H62.5z"/>
		<path d="M66.9,361.5c0-0.9,0-1.6-0.1-2.3H68l0,1.5h0.1c0.3-1,1.1-1.6,2.1-1.6c0.2,0,0.3,0,0.4,0v1.3c-0.1,0-0.3,0-0.5,0
			c-0.9,0-1.6,0.7-1.8,1.7c0,0.2-0.1,0.4-0.1,0.6v4h-1.3V361.5z"/>
		<path d="M75.9,366.6l-0.1-0.9h0c-0.4,0.6-1.2,1.1-2.3,1.1c-1.5,0-2.3-1.1-2.3-2.1c0-1.8,1.6-2.8,4.5-2.8v-0.2
			c0-0.6-0.2-1.7-1.7-1.7c-0.7,0-1.4,0.2-1.9,0.6l-0.3-0.9c0.6-0.4,1.5-0.7,2.4-0.7c2.3,0,2.8,1.5,2.8,3v2.8c0,0.6,0,1.3,0.1,1.8
			H75.9z M75.7,362.8c-1.5,0-3.1,0.2-3.1,1.7c0,0.9,0.6,1.3,1.3,1.3c1,0,1.6-0.6,1.8-1.2c0-0.1,0.1-0.3,0.1-0.4V362.8z"/>
		<path d="M79.2,361.1c0-0.8,0-1.4-0.1-2h1.2l0.1,1.2h0c0.4-0.7,1.1-1.4,2.3-1.4c1,0,1.8,0.6,2.1,1.5h0c0.2-0.4,0.5-0.7,0.8-1
			c0.4-0.3,0.9-0.5,1.6-0.5c1,0,2.4,0.6,2.4,3.2v4.4h-1.3v-4.2c0-1.4-0.5-2.3-1.6-2.3c-0.8,0-1.4,0.6-1.6,1.2
			c-0.1,0.2-0.1,0.4-0.1,0.7v4.6h-1.3v-4.4c0-1.2-0.5-2-1.5-2c-0.8,0-1.5,0.7-1.7,1.3c-0.1,0.2-0.1,0.4-0.1,0.7v4.5h-1.3V361.1z"/>
		<path d="M92.8,363.1c0,1.8,1.2,2.6,2.5,2.6c1,0,1.6-0.2,2.1-0.4l0.2,1c-0.5,0.2-1.3,0.5-2.5,0.5c-2.3,0-3.6-1.5-3.6-3.7
			c0-2.2,1.3-4,3.5-4c2.4,0,3.1,2.1,3.1,3.5c0,0.3,0,0.5,0,0.6H92.8z M96.7,362.1c0-0.9-0.4-2.2-1.9-2.2c-1.4,0-2,1.3-2.1,2.2H96.7z
			"/>
		<path d="M100.1,359.1l1,3.8c0.2,0.8,0.4,1.6,0.6,2.4h0c0.2-0.8,0.4-1.5,0.7-2.3l1.2-3.8h1.1l1.2,3.7c0.3,0.9,0.5,1.7,0.7,2.4h0
			c0.1-0.8,0.3-1.5,0.6-2.4l1.1-3.7h1.3l-2.4,7.4h-1.2l-1.1-3.5c-0.3-0.8-0.5-1.6-0.7-2.4h0c-0.2,0.9-0.4,1.7-0.7,2.5l-1.2,3.5H101
			l-2.2-7.4H100.1z"/>
		<path d="M117.5,362.8c0,2.7-1.9,3.9-3.7,3.9c-2,0-3.6-1.5-3.6-3.8c0-2.5,1.6-3.9,3.7-3.9C116,359,117.5,360.5,117.5,362.8z
			 M111.6,362.9c0,1.6,0.9,2.9,2.3,2.9c1.3,0,2.3-1.2,2.3-2.9c0-1.3-0.6-2.9-2.2-2.9C112.3,360,111.6,361.5,111.6,362.9z"/>
		<path d="M119.2,361.5c0-0.9,0-1.6-0.1-2.3h1.2l0,1.5h0.1c0.3-1,1.1-1.6,2.1-1.6c0.2,0,0.3,0,0.4,0v1.3c-0.1,0-0.3,0-0.5,0
			c-0.9,0-1.6,0.7-1.8,1.7c0,0.2-0.1,0.4-0.1,0.6v4h-1.3V361.5z"/>
		<path d="M125.5,362.5L125.5,362.5c0.2-0.3,0.5-0.6,0.7-0.8l2.2-2.6h1.6l-2.9,3.1l3.3,4.4h-1.6l-2.6-3.6l-0.7,0.8v2.8h-1.3v-10.9
			h1.3V362.5z"/>
	</g>
	<g>
		<path d="M26.7,386.4l-0.1-0.9h0c-0.4,0.6-1.2,1.1-2.3,1.1c-1.5,0-2.3-1.1-2.3-2.1c0-1.8,1.6-2.8,4.5-2.8v-0.2
			c0-0.6-0.2-1.7-1.7-1.7c-0.7,0-1.4,0.2-1.9,0.6l-0.3-0.9c0.6-0.4,1.5-0.7,2.4-0.7c2.3,0,2.8,1.5,2.8,3v2.8c0,0.6,0,1.3,0.1,1.8
			H26.7z M26.5,382.6c-1.5,0-3.1,0.2-3.1,1.7c0,0.9,0.6,1.3,1.3,1.3c1,0,1.6-0.6,1.8-1.2c0-0.1,0.1-0.3,0.1-0.4V382.6z"/>
		<path d="M36.4,379c0,0.5-0.1,1.1-0.1,2v4.3c0,1.7-0.3,2.7-1.1,3.4c-0.7,0.7-1.8,0.9-2.7,0.9c-0.9,0-1.9-0.2-2.5-0.6l0.3-1
			c0.5,0.3,1.3,0.6,2.2,0.6c1.4,0,2.4-0.7,2.4-2.6v-0.8h0c-0.4,0.7-1.2,1.2-2.4,1.2c-1.8,0-3.2-1.6-3.2-3.6c0-2.5,1.6-3.9,3.3-3.9
			c1.3,0,2,0.7,2.3,1.3h0l0.1-1.1H36.4z M35,381.9c0-0.2,0-0.4-0.1-0.6c-0.2-0.8-0.9-1.4-1.9-1.4c-1.3,0-2.2,1.1-2.2,2.8
			c0,1.5,0.7,2.7,2.2,2.7c0.8,0,1.6-0.5,1.9-1.4c0.1-0.2,0.1-0.5,0.1-0.7V381.9z"/>
		<path d="M42.7,386.4l-0.1-0.9h0c-0.4,0.6-1.2,1.1-2.3,1.1c-1.5,0-2.3-1.1-2.3-2.1c0-1.8,1.6-2.8,4.5-2.8v-0.2
			c0-0.6-0.2-1.7-1.7-1.7c-0.7,0-1.4,0.2-1.9,0.6l-0.3-0.9c0.6-0.4,1.5-0.7,2.4-0.7c2.3,0,2.8,1.5,2.8,3v2.8c0,0.6,0,1.3,0.1,1.8
			H42.7z M42.5,382.6c-1.5,0-3.1,0.2-3.1,1.7c0,0.9,0.6,1.3,1.3,1.3c1,0,1.6-0.6,1.8-1.2c0-0.1,0.1-0.3,0.1-0.4V382.6z"/>
		<path d="M47.5,376.9c0,0.5-0.3,0.8-0.9,0.8c-0.5,0-0.8-0.4-0.8-0.8c0-0.5,0.4-0.8,0.8-0.8C47.1,376.1,47.5,376.4,47.5,376.9z
			 M46,386.4V379h1.3v7.4H46z"/>
		<path d="M49.5,381c0-0.8,0-1.4-0.1-2h1.2l0.1,1.2h0c0.4-0.7,1.2-1.4,2.5-1.4c1,0,2.6,0.6,2.6,3.2v4.4h-1.3v-4.3
			c0-1.2-0.4-2.2-1.7-2.2c-0.9,0-1.6,0.6-1.8,1.4c-0.1,0.2-0.1,0.4-0.1,0.6v4.5h-1.3V381z"/>
		<path d="M57.9,385c0.4,0.3,1.1,0.5,1.8,0.5c1,0,1.4-0.5,1.4-1.1c0-0.6-0.4-1-1.4-1.4c-1.3-0.5-2-1.2-2-2.1c0-1.2,1-2.2,2.6-2.2
			c0.8,0,1.4,0.2,1.8,0.5l-0.3,1c-0.3-0.2-0.8-0.4-1.5-0.4c-0.8,0-1.2,0.5-1.2,1c0,0.6,0.4,0.9,1.4,1.3c1.3,0.5,1.9,1.1,1.9,2.2
			c0,1.3-1,2.2-2.8,2.2c-0.8,0-1.6-0.2-2.1-0.5L57.9,385z"/>
		<path d="M65.7,376.9v2.1h1.9v1h-1.9v4c0,0.9,0.3,1.4,1,1.4c0.4,0,0.6,0,0.8-0.1l0.1,1c-0.3,0.1-0.7,0.2-1.2,0.2
			c-0.6,0-1.1-0.2-1.5-0.6c-0.4-0.4-0.5-1.1-0.5-1.9v-4h-1.1v-1h1.1v-1.8L65.7,376.9z"/>
		<path d="M72.3,386.4c0-0.5,0.1-1.3,0.1-1.9v-9h1.3v4.7h0c0.5-0.8,1.3-1.4,2.5-1.4c1.8,0,3.1,1.5,3.1,3.8c0,2.7-1.7,4-3.3,4
			c-1.1,0-1.9-0.4-2.5-1.4h0l-0.1,1.2H72.3z M73.7,383.4c0,0.2,0,0.3,0.1,0.5c0.3,0.9,1,1.6,2,1.6c1.4,0,2.3-1.1,2.3-2.9
			c0-1.5-0.8-2.8-2.2-2.8c-0.9,0-1.8,0.6-2.1,1.7c0,0.2-0.1,0.3-0.1,0.6V383.4z"/>
		<path d="M81.9,382.9c0,1.8,1.2,2.6,2.5,2.6c1,0,1.6-0.2,2.1-0.4l0.2,1c-0.5,0.2-1.3,0.5-2.5,0.5c-2.3,0-3.6-1.5-3.6-3.7
			c0-2.2,1.3-4,3.5-4c2.4,0,3.1,2.1,3.1,3.5c0,0.3,0,0.5,0,0.6H81.9z M85.8,382c0-0.9-0.4-2.2-1.9-2.2c-1.4,0-2,1.3-2.1,2.2H85.8z"
			/>
		<path d="M88.6,385c0.4,0.3,1.1,0.5,1.8,0.5c1,0,1.4-0.5,1.4-1.1c0-0.6-0.4-1-1.4-1.4c-1.3-0.5-2-1.2-2-2.1c0-1.2,1-2.2,2.6-2.2
			c0.8,0,1.4,0.2,1.8,0.5l-0.3,1c-0.3-0.2-0.8-0.4-1.5-0.4c-0.8,0-1.2,0.5-1.2,1c0,0.6,0.4,0.9,1.4,1.3c1.3,0.5,1.9,1.1,1.9,2.2
			c0,1.3-1,2.2-2.8,2.2c-0.8,0-1.6-0.2-2.1-0.5L88.6,385z"/>
		<path d="M96.4,376.9v2.1h1.9v1h-1.9v4c0,0.9,0.3,1.4,1,1.4c0.4,0,0.6,0,0.8-0.1l0.1,1c-0.3,0.1-0.7,0.2-1.2,0.2
			c-0.6,0-1.1-0.2-1.5-0.6c-0.4-0.4-0.5-1.1-0.5-1.9v-4H94v-1h1.1v-1.8L96.4,376.9z"/>
		<path d="M103.1,381.4c0-1,0-1.7-0.1-2.4h1.2l0.1,1.3h0c0.6-0.9,1.4-1.4,2.6-1.4c1.8,0,3.1,1.5,3.1,3.8c0,2.7-1.6,4-3.4,4
			c-1,0-1.8-0.4-2.3-1.2h0v4h-1.3V381.4z M104.5,383.4c0,0.2,0,0.4,0.1,0.6c0.2,0.9,1.1,1.6,2,1.6c1.4,0,2.3-1.2,2.3-2.9
			c0-1.5-0.8-2.8-2.2-2.8c-0.9,0-1.8,0.7-2,1.7c0,0.2-0.1,0.4-0.1,0.6V383.4z"/>
		<path d="M111.9,381.3c0-0.9,0-1.6-0.1-2.3h1.2l0,1.5h0.1c0.3-1,1.1-1.6,2.1-1.6c0.2,0,0.3,0,0.4,0v1.3c-0.1,0-0.3,0-0.5,0
			c-0.9,0-1.6,0.7-1.8,1.7c0,0.2-0.1,0.4-0.1,0.6v4h-1.3V381.3z"/>
		<path d="M120.9,386.4l-0.1-0.9h0c-0.4,0.6-1.2,1.1-2.3,1.1c-1.5,0-2.3-1.1-2.3-2.1c0-1.8,1.6-2.8,4.5-2.8v-0.2
			c0-0.6-0.2-1.7-1.7-1.7c-0.7,0-1.4,0.2-1.9,0.6l-0.3-0.9c0.6-0.4,1.5-0.7,2.4-0.7c2.3,0,2.8,1.5,2.8,3v2.8c0,0.6,0,1.3,0.1,1.8
			H120.9z M120.7,382.6c-1.5,0-3.1,0.2-3.1,1.7c0,0.9,0.6,1.3,1.3,1.3c1,0,1.6-0.6,1.8-1.2c0-0.1,0.1-0.3,0.1-0.4V382.6z"/>
		<path d="M129.5,386.1c-0.4,0.2-1.1,0.4-2.1,0.4c-2.2,0-3.7-1.5-3.7-3.8c0-2.3,1.6-3.9,4-3.9c0.8,0,1.5,0.2,1.9,0.4l-0.3,1
			c-0.3-0.2-0.8-0.4-1.6-0.4c-1.7,0-2.6,1.3-2.6,2.8c0,1.7,1.1,2.8,2.6,2.8c0.8,0,1.3-0.2,1.7-0.4L129.5,386.1z"/>
		<path d="M132.7,376.9v2.1h1.9v1h-1.9v4c0,0.9,0.3,1.4,1,1.4c0.4,0,0.6,0,0.8-0.1l0.1,1c-0.3,0.1-0.7,0.2-1.2,0.2
			c-0.6,0-1.1-0.2-1.5-0.6c-0.4-0.4-0.5-1.1-0.5-1.9v-4h-1.1v-1h1.1v-1.8L132.7,376.9z"/>
		<path d="M137.7,376.9c0,0.5-0.3,0.8-0.9,0.8c-0.5,0-0.8-0.4-0.8-0.8c0-0.5,0.4-0.8,0.8-0.8C137.3,376.1,137.7,376.4,137.7,376.9z
			 M136.1,386.4V379h1.3v7.4H136.1z"/>
		<path d="M145,386.1c-0.4,0.2-1.1,0.4-2.1,0.4c-2.2,0-3.7-1.5-3.7-3.8c0-2.3,1.6-3.9,4-3.9c0.8,0,1.5,0.2,1.9,0.4l-0.3,1
			c-0.3-0.2-0.8-0.4-1.6-0.4c-1.7,0-2.6,1.3-2.6,2.8c0,1.7,1.1,2.8,2.6,2.8c0.8,0,1.3-0.2,1.7-0.4L145,386.1z"/>
		<path d="M147.2,382.9c0,1.8,1.2,2.6,2.5,2.6c1,0,1.6-0.2,2.1-0.4l0.2,1c-0.5,0.2-1.3,0.5-2.5,0.5c-2.3,0-3.6-1.5-3.6-3.7
			c0-2.2,1.3-4,3.5-4c2.4,0,3.1,2.1,3.1,3.5c0,0.3,0,0.5,0,0.6H147.2z M151.2,382c0-0.9-0.4-2.2-1.9-2.2c-1.4,0-2,1.3-2.1,2.2H151.2
			z"/>
		<path d="M154,385c0.4,0.3,1.1,0.5,1.8,0.5c1,0,1.4-0.5,1.4-1.1c0-0.6-0.4-1-1.4-1.4c-1.3-0.5-2-1.2-2-2.1c0-1.2,1-2.2,2.6-2.2
			c0.8,0,1.4,0.2,1.8,0.5l-0.3,1c-0.3-0.2-0.8-0.4-1.5-0.4c-0.8,0-1.2,0.5-1.2,1c0,0.6,0.4,0.9,1.4,1.3c1.3,0.5,1.9,1.1,1.9,2.2
			c0,1.3-1,2.2-2.8,2.2c-0.8,0-1.6-0.2-2.1-0.5L154,385z"/>
	</g>
	<g>
		<path d="M572.3,336.5c0.7-0.1,1.6-0.2,2.6-0.2c1.4,0,2.3,0.3,3,0.8c0.5,0.5,0.8,1.2,0.8,2c0,1.4-0.9,2.3-1.9,2.6v0
			c0.8,0.3,1.3,1,1.5,2.1c0.3,1.4,0.6,2.4,0.8,2.8h-1.4c-0.2-0.3-0.4-1.2-0.7-2.5c-0.3-1.4-0.9-2-2.1-2h-1.3v4.5h-1.3V336.5z
			 M573.6,341.2h1.4c1.4,0,2.3-0.8,2.3-2c0-1.3-1-1.9-2.4-1.9c-0.6,0-1.1,0.1-1.3,0.1V341.2z"/>
		<path d="M581.1,343.2c0,1.8,1.2,2.6,2.5,2.6c1,0,1.6-0.2,2.1-0.4l0.2,1c-0.5,0.2-1.3,0.5-2.5,0.5c-2.3,0-3.6-1.5-3.6-3.7
			c0-2.2,1.3-4,3.5-4c2.4,0,3.1,2.1,3.1,3.5c0,0.3,0,0.5,0,0.6H581.1z M585,342.3c0-0.9-0.4-2.2-1.9-2.2c-1.4,0-2,1.3-2.1,2.2H585z"
			/>
		<path d="M594.4,339.3c0,0.5-0.1,1.1-0.1,2v4.3c0,1.7-0.3,2.7-1.1,3.4c-0.7,0.7-1.8,0.9-2.7,0.9c-0.9,0-1.9-0.2-2.5-0.6l0.3-1
			c0.5,0.3,1.3,0.6,2.2,0.6c1.4,0,2.4-0.7,2.4-2.6v-0.8h0c-0.4,0.7-1.2,1.2-2.4,1.2c-1.8,0-3.2-1.6-3.2-3.6c0-2.5,1.6-3.9,3.3-3.9
			c1.3,0,2,0.7,2.3,1.3h0l0.1-1.1H594.4z M593,342.2c0-0.2,0-0.4-0.1-0.6c-0.2-0.8-0.9-1.4-1.9-1.4c-1.3,0-2.2,1.1-2.2,2.8
			c0,1.5,0.7,2.7,2.2,2.7c0.8,0,1.6-0.5,1.9-1.4c0.1-0.2,0.1-0.5,0.1-0.7V342.2z"/>
		<path d="M602.8,344.7c0,0.8,0,1.4,0.1,2h-1.2l-0.1-1.2h0c-0.4,0.6-1.1,1.4-2.5,1.4c-1.2,0-2.6-0.6-2.6-3.3v-4.3h1.3v4.1
			c0,1.4,0.4,2.4,1.7,2.4c0.9,0,1.5-0.6,1.8-1.2c0.1-0.2,0.1-0.4,0.1-0.7v-4.6h1.3V344.7z"/>
		<path d="M605,335.8h1.3v10.9H605V335.8z"/>
		<path d="M612.7,346.7l-0.1-0.9h0c-0.4,0.6-1.2,1.1-2.3,1.1c-1.5,0-2.3-1.1-2.3-2.1c0-1.8,1.6-2.8,4.5-2.8v-0.2
			c0-0.6-0.2-1.7-1.7-1.7c-0.7,0-1.4,0.2-1.9,0.6l-0.3-0.9c0.6-0.4,1.5-0.7,2.4-0.7c2.3,0,2.8,1.5,2.8,3v2.8c0,0.6,0,1.3,0.1,1.8
			H612.7z M612.5,342.9c-1.5,0-3.1,0.2-3.1,1.7c0,0.9,0.6,1.3,1.3,1.3c1,0,1.6-0.6,1.8-1.2c0-0.1,0.1-0.3,0.1-0.4V342.9z"/>
		<path d="M616,341.6c0-0.9,0-1.6-0.1-2.3h1.2l0,1.5h0.1c0.3-1,1.1-1.6,2.1-1.6c0.2,0,0.3,0,0.4,0v1.3c-0.1,0-0.3,0-0.5,0
			c-0.9,0-1.6,0.7-1.8,1.7c0,0.2-0.1,0.4-0.1,0.6v4H616V341.6z"/>
	</g>
	<g>
		<path d="M546.3,357v2.1h1.9v1h-1.9v4c0,0.9,0.3,1.4,1,1.4c0.4,0,0.6,0,0.8-0.1l0.1,1c-0.3,0.1-0.7,0.2-1.2,0.2
			c-0.6,0-1.1-0.2-1.5-0.6c-0.4-0.4-0.5-1.1-0.5-1.9v-4h-1.1v-1h1.1v-1.8L546.3,357z"/>
		<path d="M549.7,361.5c0-0.9,0-1.6-0.1-2.3h1.2l0,1.5h0.1c0.3-1,1.1-1.6,2.1-1.6c0.2,0,0.3,0,0.4,0v1.3c-0.1,0-0.3,0-0.5,0
			c-0.9,0-1.6,0.7-1.8,1.7c0,0.2-0.1,0.4-0.1,0.6v4h-1.3V361.5z"/>
		<path d="M558.8,366.6l-0.1-0.9h0c-0.4,0.6-1.2,1.1-2.3,1.1c-1.5,0-2.3-1.1-2.3-2.1c0-1.8,1.6-2.8,4.5-2.8v-0.2
			c0-0.6-0.2-1.7-1.7-1.7c-0.7,0-1.4,0.2-1.9,0.6l-0.3-0.9c0.6-0.4,1.5-0.7,2.4-0.7c2.3,0,2.8,1.5,2.8,3v2.8c0,0.6,0,1.3,0.1,1.8
			H558.8z M558.6,362.8c-1.5,0-3.1,0.2-3.1,1.7c0,0.9,0.6,1.3,1.3,1.3c1,0,1.6-0.6,1.8-1.2c0-0.1,0.1-0.3,0.1-0.4V362.8z"/>
		<path d="M563.5,357.1c0,0.5-0.3,0.8-0.9,0.8c-0.5,0-0.8-0.4-0.8-0.8c0-0.5,0.4-0.8,0.8-0.8C563.2,356.2,563.5,356.6,563.5,357.1z
			 M562,366.6v-7.4h1.3v7.4H562z"/>
		<path d="M565.6,361.1c0-0.8,0-1.4-0.1-2h1.2l0.1,1.2h0c0.4-0.7,1.2-1.4,2.5-1.4c1,0,2.6,0.6,2.6,3.2v4.4h-1.3v-4.3
			c0-1.2-0.4-2.2-1.7-2.2c-0.9,0-1.6,0.6-1.8,1.4c-0.1,0.2-0.1,0.4-0.1,0.6v4.5h-1.3V361.1z"/>
		<path d="M575.6,357.1c0,0.5-0.3,0.8-0.9,0.8c-0.5,0-0.8-0.4-0.8-0.8c0-0.5,0.4-0.8,0.8-0.8C575.3,356.2,575.6,356.6,575.6,357.1z
			 M574.1,366.6v-7.4h1.3v7.4H574.1z"/>
		<path d="M577.7,361.1c0-0.8,0-1.4-0.1-2h1.2l0.1,1.2h0c0.4-0.7,1.2-1.4,2.5-1.4c1,0,2.6,0.6,2.6,3.2v4.4h-1.3v-4.3
			c0-1.2-0.4-2.2-1.7-2.2c-0.9,0-1.6,0.6-1.8,1.4c-0.1,0.2-0.1,0.4-0.1,0.6v4.5h-1.3V361.1z"/>
		<path d="M592.6,359.1c0,0.5-0.1,1.1-0.1,2v4.3c0,1.7-0.3,2.7-1.1,3.4c-0.7,0.7-1.8,0.9-2.7,0.9c-0.9,0-1.9-0.2-2.5-0.6l0.3-1
			c0.5,0.3,1.3,0.6,2.2,0.6c1.4,0,2.4-0.7,2.4-2.6v-0.8h0c-0.4,0.7-1.2,1.2-2.4,1.2c-1.8,0-3.2-1.6-3.2-3.6c0-2.5,1.6-3.9,3.3-3.9
			c1.3,0,2,0.7,2.3,1.3h0l0.1-1.1H592.6z M591.2,362.1c0-0.2,0-0.4-0.1-0.6c-0.2-0.8-0.9-1.4-1.9-1.4c-1.3,0-2.2,1.1-2.2,2.8
			c0,1.5,0.7,2.7,2.2,2.7c0.8,0,1.6-0.5,1.9-1.4c0.1-0.2,0.1-0.5,0.1-0.7V362.1z"/>
		<path d="M599.7,357v2.1h1.9v1h-1.9v4c0,0.9,0.3,1.4,1,1.4c0.4,0,0.6,0,0.8-0.1l0.1,1c-0.3,0.1-0.7,0.2-1.2,0.2
			c-0.6,0-1.1-0.2-1.5-0.6c-0.4-0.4-0.5-1.1-0.5-1.9v-4h-1.1v-1h1.1v-1.8L599.7,357z"/>
		<path d="M609.8,362.8c0,2.7-1.9,3.9-3.7,3.9c-2,0-3.6-1.5-3.6-3.8c0-2.5,1.6-3.9,3.7-3.9C608.4,359,609.8,360.5,609.8,362.8z
			 M603.9,362.9c0,1.6,0.9,2.9,2.3,2.9c1.3,0,2.3-1.2,2.3-2.9c0-1.3-0.6-2.9-2.2-2.9S603.9,361.5,603.9,362.9z"/>
		<path d="M614.6,365.2c0.4,0.3,1.1,0.5,1.8,0.5c1,0,1.4-0.5,1.4-1.1c0-0.6-0.4-1-1.4-1.4c-1.3-0.5-2-1.2-2-2.1c0-1.2,1-2.2,2.6-2.2
			c0.8,0,1.4,0.2,1.8,0.5l-0.3,1c-0.3-0.2-0.8-0.4-1.5-0.4c-0.8,0-1.2,0.5-1.2,1c0,0.6,0.4,0.9,1.4,1.3c1.3,0.5,1.9,1.1,1.9,2.2
			c0,1.3-1,2.2-2.8,2.2c-0.8,0-1.6-0.2-2.1-0.5L614.6,365.2z"/>
		<path d="M622.4,357v2.1h1.9v1h-1.9v4c0,0.9,0.3,1.4,1,1.4c0.4,0,0.6,0,0.8-0.1l0.1,1c-0.3,0.1-0.7,0.2-1.2,0.2
			c-0.6,0-1.1-0.2-1.5-0.6c-0.4-0.4-0.5-1.1-0.5-1.9v-4h-1.1v-1h1.1v-1.8L622.4,357z"/>
		<path d="M629.9,366.6l-0.1-0.9h0c-0.4,0.6-1.2,1.1-2.3,1.1c-1.5,0-2.3-1.1-2.3-2.1c0-1.8,1.6-2.8,4.5-2.8v-0.2
			c0-0.6-0.2-1.7-1.7-1.7c-0.7,0-1.4,0.2-1.9,0.6l-0.3-0.9c0.6-0.4,1.5-0.7,2.4-0.7c2.3,0,2.8,1.5,2.8,3v2.8c0,0.6,0,1.3,0.1,1.8
			H629.9z M629.7,362.8c-1.5,0-3.1,0.2-3.1,1.7c0,0.9,0.6,1.3,1.3,1.3c1,0,1.6-0.6,1.8-1.2c0-0.1,0.1-0.3,0.1-0.4V362.8z"/>
		<path d="M637.8,366.6v-6.4h-3.1v6.4h-1.3v-6.4h-1v-1h1v-0.2c0-1,0.2-1.9,0.8-2.5c0.4-0.4,1-0.7,1.9-0.7c0.4,0,0.8,0.1,1.1,0.3
			l-0.3,1c-0.2-0.1-0.5-0.2-0.8-0.2c-1.1,0-1.3,0.9-1.3,2.1v0.3h3.1v-0.4c0-1,0.2-2,0.9-2.6c0.5-0.5,1.2-0.7,1.8-0.7
			c0.5,0,0.9,0.1,1.2,0.2l-0.2,1c-0.2-0.1-0.5-0.2-0.9-0.2c-1.1,0-1.4,1-1.4,2.1v0.4h1.8v1h-1.8v6.4H637.8z"/>
	</g>
	<g>
		<defs>
			<path id="SVGID_00000142143149019733586200000010567026936742235801_" d="M348,151.7l-66.5,39.3c-3.3,1.9-5.9,6.6-5.9,10.4v78.8
				c0,3.8,2.7,8.5,5.9,10.4l66.5,39.3c3.3,1.9,8.6,1.9,11.9,0l66.5-39.3c3.3-1.9,5.9-6.6,5.9-10.4v-78.8c0-3.8-2.7-8.5-5.9-10.4
				l-66.5-39.3c-1.6-1-3.8-1.4-5.9-1.4C351.8,150.2,349.7,150.7,348,151.7"/>
		</defs>
		<clipPath id="SVGID_00000104707165317678661010000014785625101505266361_">
			<use xlink:href="#SVGID_00000142143149019733586200000010567026936742235801_"  style="overflow:visible;"/>
		</clipPath>
		
			<linearGradient id="SVGID_00000023271801998503227900000002708909127511287464_" gradientUnits="userSpaceOnUse" x1="3248.8938" y1="302.844" x2="3250.698" y2="302.844" gradientTransform="matrix(0 -101.066 -101.066 0 30961.1953 328684.4688)">
			<stop  offset="0" style="stop-color:#0B4B7F"/>
			<stop  offset="0.1286" style="stop-color:#564569"/>
			<stop  offset="0.3135" style="stop-color:#883A4C"/>
			<stop  offset="0.4458" style="stop-color:#A53038"/>
			<stop  offset="0.5114" style="stop-color:#AF2A30"/>
			<stop  offset="0.7132" style="stop-color:#C64D2E"/>
			<stop  offset="1" style="stop-color:#F58220"/>
		</linearGradient>
		
			<rect x="275.5" y="150.2" style="clip-path:url(#SVGID_00000104707165317678661010000014785625101505266361_);fill:url(#SVGID_00000023271801998503227900000002708909127511287464_);" width="156.8" height="181.6"/>
	</g>
	<g>
		<path class="st3" d="M309.2,204.9v4.6h5.3v-4.6h1.4v10.9h-1.4v-5.1h-5.3v5.1h-1.4v-10.9H309.2z"/>
		<path class="st3" d="M325.4,211.8c0,2.9-2,4.2-3.9,4.2c-2.1,0-3.8-1.6-3.8-4c0-2.6,1.7-4.2,3.9-4.2
			C323.9,207.8,325.4,209.4,325.4,211.8z M319.2,211.9c0,1.7,1,3,2.4,3c1.4,0,2.4-1.3,2.4-3.1c0-1.3-0.7-3-2.4-3
			C319.9,208.8,319.2,210.4,319.2,211.9z"/>
		<path class="st3" d="M327.6,208l1,4c0.2,0.9,0.4,1.7,0.6,2.5h0c0.2-0.8,0.4-1.6,0.7-2.5l1.3-4h1.2l1.2,3.9
			c0.3,0.9,0.5,1.8,0.7,2.6h0c0.1-0.8,0.3-1.6,0.6-2.5l1.1-3.9h1.4l-2.5,7.9h-1.3l-1.2-3.8c-0.3-0.9-0.5-1.7-0.7-2.6h0
			c-0.2,0.9-0.4,1.8-0.7,2.6l-1.3,3.7h-1.3l-2.4-7.9H327.6z"/>
		<path class="st3" d="M343,208l1,4c0.2,0.9,0.4,1.7,0.6,2.5h0c0.2-0.8,0.4-1.6,0.7-2.5l1.3-4h1.2l1.2,3.9c0.3,0.9,0.5,1.8,0.7,2.6
			h0c0.1-0.8,0.3-1.6,0.6-2.5l1.1-3.9h1.4l-2.5,7.9h-1.3l-1.2-3.8c-0.3-0.9-0.5-1.7-0.7-2.6h0c-0.2,0.9-0.4,1.8-0.7,2.6l-1.3,3.7
			h-1.3l-2.4-7.9H343z"/>
		<path class="st3" d="M355,212.1c0,1.9,1.3,2.7,2.7,2.7c1,0,1.6-0.2,2.2-0.4l0.2,1c-0.5,0.2-1.4,0.5-2.6,0.5c-2.4,0-3.9-1.6-3.9-4
			s1.4-4.2,3.7-4.2c2.6,0,3.2,2.3,3.2,3.7c0,0.3,0,0.5,0,0.7H355z M359.2,211.1c0-0.9-0.4-2.3-2-2.3c-1.4,0-2.1,1.3-2.2,2.3H359.2z"
			/>
		<path class="st3" d="M370.2,215.8l-0.1-1h0c-0.4,0.6-1.3,1.2-2.4,1.2c-1.6,0-2.4-1.1-2.4-2.3c0-1.9,1.7-2.9,4.7-2.9v-0.2
			c0-0.7-0.2-1.8-1.8-1.8c-0.7,0-1.5,0.2-2,0.6l-0.3-0.9c0.7-0.4,1.6-0.7,2.6-0.7c2.4,0,3,1.6,3,3.2v2.9c0,0.7,0,1.3,0.1,1.9H370.2z
			 M369.9,211.8c-1.6,0-3.3,0.2-3.3,1.8c0,0.9,0.6,1.4,1.3,1.4c1,0,1.7-0.6,1.9-1.3c0-0.1,0.1-0.3,0.1-0.5V211.8z"/>
		<path class="st3" d="M373.6,210.4c0-0.9,0-1.7-0.1-2.5h1.3l0,1.5h0.1c0.4-1.1,1.2-1.7,2.2-1.7c0.2,0,0.3,0,0.4,0v1.3
			c-0.1,0-0.3,0-0.5,0c-1,0-1.7,0.8-1.9,1.8c0,0.2-0.1,0.4-0.1,0.7v4.2h-1.4V210.4z"/>
		<path class="st3" d="M379.6,212.1c0,1.9,1.3,2.7,2.7,2.7c1,0,1.6-0.2,2.2-0.4l0.2,1c-0.5,0.2-1.4,0.5-2.6,0.5
			c-2.4,0-3.9-1.6-3.9-4s1.4-4.2,3.7-4.2c2.6,0,3.2,2.3,3.2,3.7c0,0.3,0,0.5,0,0.7H379.6z M383.8,211.1c0-0.9-0.4-2.3-2-2.3
			c-1.4,0-2.1,1.3-2.2,2.3H383.8z"/>
	</g>
	<g>
		<path class="st3" d="M284.9,234.2c0.4,0.3,1.2,0.6,1.9,0.6c1,0,1.5-0.5,1.5-1.2c0-0.7-0.4-1.1-1.5-1.4c-1.4-0.5-2.1-1.3-2.1-2.2
			c0-1.3,1-2.3,2.7-2.3c0.8,0,1.5,0.2,1.9,0.5l-0.4,1c-0.3-0.2-0.9-0.5-1.6-0.5c-0.8,0-1.3,0.5-1.3,1.1c0,0.7,0.5,0.9,1.5,1.3
			c1.4,0.5,2.1,1.2,2.1,2.4c0,1.4-1.1,2.4-2.9,2.4c-0.9,0-1.7-0.2-2.2-0.5L284.9,234.2z"/>
		<path class="st3" d="M293.2,225.5v2.3h2v1.1h-2v4.2c0,1,0.3,1.5,1.1,1.5c0.4,0,0.6,0,0.8-0.1l0.1,1.1c-0.3,0.1-0.7,0.2-1.3,0.2
			c-0.7,0-1.2-0.2-1.5-0.6c-0.4-0.4-0.6-1.1-0.6-2v-4.3h-1.2v-1.1h1.2v-1.9L293.2,225.5z"/>
		<path class="st3" d="M296.9,230.3c0-0.9,0-1.7-0.1-2.5h1.3l0,1.5h0.1c0.4-1.1,1.2-1.7,2.2-1.7c0.2,0,0.3,0,0.4,0v1.3
			c-0.1,0-0.3,0-0.5,0c-1,0-1.7,0.8-1.9,1.8c0,0.2-0.1,0.4-0.1,0.7v4.2h-1.4V230.3z"/>
		<path class="st3" d="M302.8,232c0,1.9,1.3,2.7,2.7,2.7c1,0,1.6-0.2,2.2-0.4l0.2,1c-0.5,0.2-1.4,0.5-2.6,0.5c-2.4,0-3.9-1.6-3.9-4
			c0-2.4,1.4-4.2,3.7-4.2c2.6,0,3.2,2.3,3.2,3.7c0,0.3,0,0.5,0,0.7H302.8z M307,231c0-0.9-0.4-2.3-2-2.3c-1.4,0-2.1,1.3-2.2,2.3H307
			z"/>
		<path class="st3" d="M310.2,229.9c0-0.8,0-1.5-0.1-2.1h1.3l0.1,1.3h0c0.4-0.7,1.3-1.5,2.6-1.5c1.1,0,2.8,0.7,2.8,3.3v4.7h-1.4
			v-4.5c0-1.3-0.5-2.3-1.8-2.3c-0.9,0-1.7,0.7-1.9,1.5c-0.1,0.2-0.1,0.4-0.1,0.7v4.7h-1.4V229.9z"/>
		<path class="st3" d="M325.9,227.8c0,0.6-0.1,1.2-0.1,2.2v4.6c0,1.8-0.4,2.9-1.1,3.6c-0.8,0.7-1.9,0.9-2.9,0.9
			c-0.9,0-2-0.2-2.6-0.6l0.4-1.1c0.5,0.3,1.3,0.6,2.3,0.6c1.5,0,2.5-0.8,2.5-2.7v-0.9h0c-0.4,0.7-1.3,1.3-2.5,1.3
			c-1.9,0-3.3-1.7-3.3-3.8c0-2.7,1.7-4.2,3.5-4.2c1.4,0,2.1,0.7,2.5,1.4h0l0.1-1.2H325.9z M324.5,230.9c0-0.2,0-0.5-0.1-0.7
			c-0.3-0.8-1-1.5-2-1.5c-1.4,0-2.3,1.2-2.3,3c0,1.5,0.8,2.8,2.3,2.8c0.9,0,1.7-0.6,2-1.5c0.1-0.2,0.1-0.5,0.1-0.8V230.9z"/>
		<path class="st3" d="M330,225.5v2.3h2v1.1h-2v4.2c0,1,0.3,1.5,1.1,1.5c0.4,0,0.6,0,0.8-0.1l0.1,1.1c-0.3,0.1-0.7,0.2-1.3,0.2
			c-0.7,0-1.2-0.2-1.5-0.6c-0.4-0.4-0.6-1.1-0.6-2v-4.3h-1.2v-1.1h1.2v-1.9L330,225.5z"/>
		<path class="st3" d="M333.6,224.1h1.4v4.9h0c0.2-0.4,0.6-0.8,1-1c0.4-0.2,0.9-0.4,1.5-0.4c1.1,0,2.7,0.7,2.7,3.4v4.7h-1.4v-4.5
			c0-1.3-0.5-2.3-1.8-2.3c-0.9,0-1.7,0.7-1.9,1.4c-0.1,0.2-0.1,0.4-0.1,0.7v4.7h-1.4V224.1z"/>
		<path class="st3" d="M343.4,232c0,1.9,1.3,2.7,2.7,2.7c1,0,1.6-0.2,2.2-0.4l0.2,1c-0.5,0.2-1.4,0.5-2.6,0.5c-2.4,0-3.9-1.6-3.9-4
			c0-2.4,1.4-4.2,3.7-4.2c2.6,0,3.2,2.3,3.2,3.7c0,0.3,0,0.5,0,0.7H343.4z M347.6,231c0-0.9-0.4-2.3-2-2.3c-1.4,0-2.1,1.3-2.2,2.3
			H347.6z"/>
		<path class="st3" d="M350.8,229.9c0-0.8,0-1.5-0.1-2.1h1.3l0.1,1.3h0c0.4-0.7,1.3-1.5,2.6-1.5c1.1,0,2.8,0.7,2.8,3.3v4.7H356v-4.5
			c0-1.3-0.5-2.3-1.8-2.3c-0.9,0-1.7,0.7-1.9,1.5c-0.1,0.2-0.1,0.4-0.1,0.7v4.7h-1.4V229.9z"/>
		<path class="st3" d="M361.4,225.6c0,0.5-0.3,0.9-0.9,0.9c-0.5,0-0.9-0.4-0.9-0.9c0-0.5,0.4-0.9,0.9-0.9
			C361,224.7,361.4,225.1,361.4,225.6z M359.8,235.7v-7.9h1.4v7.9H359.8z"/>
		<path class="st3" d="M363.6,229.9c0-0.8,0-1.5-0.1-2.1h1.3l0.1,1.3h0c0.4-0.7,1.3-1.5,2.6-1.5c1.1,0,2.8,0.7,2.8,3.3v4.7h-1.4
			v-4.5c0-1.3-0.5-2.3-1.8-2.3c-0.9,0-1.7,0.7-1.9,1.5c-0.1,0.2-0.1,0.4-0.1,0.7v4.7h-1.4V229.9z"/>
		<path class="st3" d="M379.4,227.8c0,0.6-0.1,1.2-0.1,2.2v4.6c0,1.8-0.4,2.9-1.1,3.6c-0.8,0.7-1.9,0.9-2.9,0.9
			c-0.9,0-2-0.2-2.6-0.6l0.4-1.1c0.5,0.3,1.3,0.6,2.3,0.6c1.5,0,2.5-0.8,2.5-2.7v-0.9h0c-0.4,0.7-1.3,1.3-2.5,1.3
			c-1.9,0-3.3-1.7-3.3-3.8c0-2.7,1.7-4.2,3.5-4.2c1.4,0,2.1,0.7,2.5,1.4h0l0.1-1.2H379.4z M377.9,230.9c0-0.2,0-0.5-0.1-0.7
			c-0.3-0.8-1-1.5-2-1.5c-1.4,0-2.3,1.2-2.3,3c0,1.5,0.8,2.8,2.3,2.8c0.9,0,1.7-0.6,2-1.5c0.1-0.2,0.1-0.5,0.1-0.8V230.9z"/>
		<path class="st3" d="M386.8,225.5v2.3h2v1.1h-2v4.2c0,1,0.3,1.5,1.1,1.5c0.4,0,0.6,0,0.8-0.1l0.1,1.1c-0.3,0.1-0.7,0.2-1.3,0.2
			c-0.7,0-1.2-0.2-1.5-0.6c-0.4-0.4-0.6-1.1-0.6-2v-4.3h-1.2v-1.1h1.2v-1.9L386.8,225.5z"/>
		<path class="st3" d="M390.5,224.1h1.4v4.9h0c0.2-0.4,0.6-0.8,1-1c0.4-0.2,0.9-0.4,1.5-0.4c1.1,0,2.7,0.7,2.7,3.4v4.7h-1.4v-4.5
			c0-1.3-0.5-2.3-1.8-2.3c-0.9,0-1.7,0.7-1.9,1.4c-0.1,0.2-0.1,0.4-0.1,0.7v4.7h-1.4V224.1z"/>
		<path class="st3" d="M400.3,232c0,1.9,1.3,2.7,2.7,2.7c1,0,1.6-0.2,2.2-0.4l0.2,1c-0.5,0.2-1.4,0.5-2.6,0.5c-2.4,0-3.9-1.6-3.9-4
			c0-2.4,1.4-4.2,3.7-4.2c2.6,0,3.2,2.3,3.2,3.7c0,0.3,0,0.5,0,0.7H400.3z M404.5,231c0-0.9-0.4-2.3-2-2.3c-1.4,0-2.1,1.3-2.2,2.3
			H404.5z"/>
	</g>
	<g>
		<path class="st3" d="M286.3,250.1c0-0.9,0-1.7-0.1-2.5h1.3l0,1.5h0.1c0.4-1.1,1.2-1.7,2.2-1.7c0.2,0,0.3,0,0.4,0v1.3
			c-0.1,0-0.3,0-0.5,0c-1,0-1.7,0.8-1.9,1.8c0,0.2-0.1,0.4-0.1,0.7v4.2h-1.4V250.1z"/>
		<path class="st3" d="M293.2,245.4c0,0.5-0.3,0.9-0.9,0.9c-0.5,0-0.9-0.4-0.9-0.9c0-0.5,0.4-0.9,0.9-0.9
			C292.8,244.5,293.2,244.9,293.2,245.4z M291.6,255.5v-7.9h1.4v7.9H291.6z"/>
		<path class="st3" d="M295.2,254c0.4,0.3,1.2,0.6,1.9,0.6c1,0,1.5-0.5,1.5-1.2c0-0.7-0.4-1.1-1.5-1.4c-1.4-0.5-2.1-1.3-2.1-2.2
			c0-1.3,1-2.3,2.7-2.3c0.8,0,1.5,0.2,1.9,0.5l-0.4,1c-0.3-0.2-0.9-0.5-1.6-0.5c-0.8,0-1.3,0.5-1.3,1.1c0,0.7,0.5,0.9,1.5,1.3
			c1.4,0.5,2.1,1.2,2.1,2.4c0,1.4-1.1,2.4-2.9,2.4c-0.9,0-1.7-0.2-2.2-0.5L295.2,254z"/>
		<path class="st3" d="M303.2,251.2L303.2,251.2c0.2-0.3,0.5-0.6,0.7-0.9l2.3-2.7h1.7l-3,3.2l3.5,4.6h-1.7l-2.7-3.8l-0.7,0.8v3h-1.4
			V244h1.4V251.2z"/>
		<path class="st3" d="M312.9,249.8c0-0.8,0-1.5-0.1-2.1h1.3l0.1,1.3h0c0.4-0.7,1.2-1.4,2.5-1.4c1.1,0,1.9,0.7,2.2,1.6h0
			c0.2-0.4,0.6-0.8,0.9-1c0.5-0.4,1-0.6,1.7-0.6c1,0,2.6,0.7,2.6,3.4v4.6h-1.4v-4.5c0-1.5-0.6-2.4-1.7-2.4c-0.8,0-1.4,0.6-1.7,1.3
			c-0.1,0.2-0.1,0.5-0.1,0.7v4.9h-1.4v-4.7c0-1.3-0.6-2.2-1.6-2.2c-0.9,0-1.5,0.7-1.8,1.4c-0.1,0.2-0.1,0.5-0.1,0.7v4.7h-1.4V249.8z
			"/>
		<path class="st3" d="M330.7,255.5l-0.1-1h0c-0.4,0.6-1.3,1.2-2.4,1.2c-1.6,0-2.4-1.1-2.4-2.3c0-1.9,1.7-2.9,4.7-2.9v-0.2
			c0-0.7-0.2-1.8-1.8-1.8c-0.7,0-1.5,0.2-2,0.6l-0.3-0.9c0.7-0.4,1.6-0.7,2.6-0.7c2.4,0,3,1.6,3,3.2v2.9c0,0.7,0,1.3,0.1,1.9H330.7z
			 M330.5,251.5c-1.6,0-3.3,0.2-3.3,1.8c0,0.9,0.6,1.4,1.3,1.4c1,0,1.7-0.6,1.9-1.3c0-0.1,0.1-0.3,0.1-0.5V251.5z"/>
		<path class="st3" d="M334.2,249.8c0-0.8,0-1.5-0.1-2.1h1.3l0.1,1.3h0c0.4-0.7,1.3-1.5,2.6-1.5c1.1,0,2.8,0.7,2.8,3.3v4.7h-1.4V251
			c0-1.3-0.5-2.3-1.8-2.3c-0.9,0-1.7,0.7-1.9,1.5c-0.1,0.2-0.1,0.4-0.1,0.7v4.7h-1.4V249.8z"/>
		<path class="st3" d="M347.6,255.5l-0.1-1h0c-0.4,0.6-1.3,1.2-2.4,1.2c-1.6,0-2.4-1.1-2.4-2.3c0-1.9,1.7-2.9,4.7-2.9v-0.2
			c0-0.7-0.2-1.8-1.8-1.8c-0.7,0-1.5,0.2-2,0.6l-0.3-0.9c0.7-0.4,1.6-0.7,2.6-0.7c2.4,0,3,1.6,3,3.2v2.9c0,0.7,0,1.3,0.1,1.9H347.6z
			 M347.4,251.5c-1.6,0-3.3,0.2-3.3,1.8c0,0.9,0.6,1.4,1.3,1.4c1,0,1.7-0.6,1.9-1.3c0-0.1,0.1-0.3,0.1-0.5V251.5z"/>
		<path class="st3" d="M357.8,247.6c0,0.6-0.1,1.2-0.1,2.2v4.6c0,1.8-0.4,2.9-1.1,3.6c-0.8,0.7-1.9,0.9-2.9,0.9
			c-0.9,0-2-0.2-2.6-0.6l0.4-1.1c0.5,0.3,1.3,0.6,2.3,0.6c1.5,0,2.5-0.8,2.5-2.7v-0.9h0c-0.4,0.7-1.3,1.3-2.5,1.3
			c-1.9,0-3.3-1.7-3.3-3.8c0-2.7,1.7-4.2,3.5-4.2c1.4,0,2.1,0.7,2.5,1.4h0l0.1-1.2H357.8z M356.4,250.7c0-0.2,0-0.5-0.1-0.7
			c-0.3-0.8-1-1.5-2-1.5c-1.4,0-2.3,1.2-2.3,3c0,1.5,0.8,2.8,2.3,2.8c0.9,0,1.7-0.6,2-1.5c0.1-0.2,0.1-0.5,0.1-0.8V250.7z"/>
		<path class="st3" d="M360.9,251.8c0,1.9,1.3,2.7,2.7,2.7c1,0,1.6-0.2,2.2-0.4l0.2,1c-0.5,0.2-1.4,0.5-2.6,0.5
			c-2.4,0-3.9-1.6-3.9-4c0-2.4,1.4-4.2,3.7-4.2c2.6,0,3.2,2.3,3.2,3.7c0,0.3,0,0.5,0,0.7H360.9z M365.1,250.8c0-0.9-0.4-2.3-2-2.3
			c-1.4,0-2.1,1.3-2.2,2.3H365.1z"/>
		<path class="st3" d="M368.3,249.8c0-0.8,0-1.5-0.1-2.1h1.3l0.1,1.3h0c0.4-0.7,1.2-1.4,2.5-1.4c1.1,0,1.9,0.7,2.2,1.6h0
			c0.2-0.4,0.6-0.8,0.9-1c0.5-0.4,1-0.6,1.7-0.6c1,0,2.6,0.7,2.6,3.4v4.6h-1.4v-4.5c0-1.5-0.6-2.4-1.7-2.4c-0.8,0-1.4,0.6-1.7,1.3
			c-0.1,0.2-0.1,0.5-0.1,0.7v4.9h-1.4v-4.7c0-1.3-0.6-2.2-1.6-2.2c-0.9,0-1.5,0.7-1.8,1.4c-0.1,0.2-0.1,0.5-0.1,0.7v4.7h-1.4V249.8z
			"/>
		<path class="st3" d="M382.6,251.8c0,1.9,1.3,2.7,2.7,2.7c1,0,1.6-0.2,2.2-0.4l0.2,1c-0.5,0.2-1.4,0.5-2.6,0.5
			c-2.4,0-3.9-1.6-3.9-4c0-2.4,1.4-4.2,3.7-4.2c2.6,0,3.2,2.3,3.2,3.7c0,0.3,0,0.5,0,0.7H382.6z M386.8,250.8c0-0.9-0.4-2.3-2-2.3
			c-1.4,0-2.1,1.3-2.2,2.3H386.8z"/>
		<path class="st3" d="M390,249.8c0-0.8,0-1.5-0.1-2.1h1.3l0.1,1.3h0c0.4-0.7,1.3-1.5,2.6-1.5c1.1,0,2.8,0.7,2.8,3.3v4.7h-1.4V251
			c0-1.3-0.5-2.3-1.8-2.3c-0.9,0-1.7,0.7-1.9,1.5c-0.1,0.2-0.1,0.4-0.1,0.7v4.7H390V249.8z"/>
		<path class="st3" d="M400.7,245.4v2.3h2v1.1h-2v4.2c0,1,0.3,1.5,1.1,1.5c0.4,0,0.6,0,0.8-0.1l0.1,1.1c-0.3,0.1-0.7,0.2-1.3,0.2
			c-0.7,0-1.2-0.2-1.5-0.6c-0.4-0.4-0.6-1.1-0.6-2v-4.3h-1.2v-1.1h1.2v-1.9L400.7,245.4z"/>
	</g>
	<g>
		<path class="st3" d="M322.8,275.3v-6.8h-1.1v-1.1h1.1v-0.4c0-1.1,0.2-2.1,0.9-2.7c0.5-0.5,1.3-0.7,1.9-0.7c0.5,0,0.9,0.1,1.2,0.2
			l-0.2,1.1c-0.2-0.1-0.5-0.2-0.9-0.2c-1.2,0-1.5,1.1-1.5,2.3v0.4h1.9v1.1h-1.9v6.8H322.8z"/>
		<path class="st3" d="M333.9,273.2c0,0.8,0,1.5,0.1,2.1h-1.3l-0.1-1.3h0c-0.4,0.6-1.2,1.5-2.6,1.5c-1.2,0-2.7-0.7-2.7-3.4v-4.6h1.4
			v4.4c0,1.5,0.5,2.5,1.8,2.5c1,0,1.6-0.7,1.9-1.3c0.1-0.2,0.1-0.5,0.1-0.7v-4.8h1.4V273.2z"/>
		<path class="st3" d="M336.3,269.6c0-0.8,0-1.5-0.1-2.1h1.3l0.1,1.3h0c0.4-0.7,1.3-1.5,2.6-1.5c1.1,0,2.8,0.7,2.8,3.3v4.7h-1.4
			v-4.5c0-1.3-0.5-2.3-1.8-2.3c-0.9,0-1.7,0.7-1.9,1.5c-0.1,0.2-0.1,0.4-0.1,0.7v4.7h-1.4V269.6z"/>
		<path class="st3" d="M350.9,275.1c-0.4,0.2-1.2,0.5-2.3,0.5c-2.4,0-3.9-1.6-3.9-4c0-2.4,1.7-4.2,4.2-4.2c0.8,0,1.6,0.2,2,0.4
			l-0.3,1.1c-0.3-0.2-0.9-0.4-1.7-0.4c-1.8,0-2.8,1.3-2.8,3c0,1.8,1.2,2.9,2.7,2.9c0.8,0,1.3-0.2,1.8-0.4L350.9,275.1z"/>
		<path class="st3" d="M354.4,265.2v2.3h2v1.1h-2v4.2c0,1,0.3,1.5,1.1,1.5c0.4,0,0.6,0,0.8-0.1l0.1,1.1c-0.3,0.1-0.7,0.2-1.3,0.2
			c-0.7,0-1.2-0.2-1.5-0.6c-0.4-0.4-0.6-1.1-0.6-2v-4.3h-1.2v-1.1h1.2v-1.9L354.4,265.2z"/>
		<path class="st3" d="M359.6,265.3c0,0.5-0.3,0.9-0.9,0.9c-0.5,0-0.9-0.4-0.9-0.9c0-0.5,0.4-0.9,0.9-0.9
			C359.3,264.4,359.6,264.8,359.6,265.3z M358,275.3v-7.9h1.4v7.9H358z"/>
		<path class="st3" d="M368.9,271.4c0,2.9-2,4.2-3.9,4.2c-2.1,0-3.8-1.6-3.8-4c0-2.6,1.7-4.2,3.9-4.2
			C367.4,267.3,368.9,268.9,368.9,271.4z M362.7,271.4c0,1.7,1,3,2.4,3c1.4,0,2.4-1.3,2.4-3.1c0-1.3-0.7-3-2.4-3
			C363.4,268.4,362.7,269.9,362.7,271.4z"/>
		<path class="st3" d="M370.7,269.6c0-0.8,0-1.5-0.1-2.1h1.3l0.1,1.3h0c0.4-0.7,1.3-1.5,2.6-1.5c1.1,0,2.8,0.7,2.8,3.3v4.7H376v-4.5
			c0-1.3-0.5-2.3-1.8-2.3c-0.9,0-1.7,0.7-1.9,1.5c-0.1,0.2-0.1,0.4-0.1,0.7v4.7h-1.4V269.6z"/>
	</g>
	
		<linearGradient id="SVGID_00000125589783248425401820000010000563347926263708_" gradientUnits="userSpaceOnUse" x1="447.1446" y1="343.3986" x2="447.1446" y2="293.0084">
		<stop  offset="0" style="stop-color:#0B4B7F"/>
		<stop  offset="0.1286" style="stop-color:#564569"/>
		<stop  offset="0.3135" style="stop-color:#883A4C"/>
		<stop  offset="0.4458" style="stop-color:#A53038"/>
		<stop  offset="0.5114" style="stop-color:#AF2A30"/>
		<stop  offset="0.7132" style="stop-color:#C64D2E"/>
		<stop  offset="1" style="stop-color:#F58220"/>
	</linearGradient>
	<path style="fill:none;stroke:url(#SVGID_00000125589783248425401820000010000563347926263708_);stroke-miterlimit:10;" d="
		M363.2,338.1l71.4-43c1.7-1,3.9-1.5,6.1-1.5c2.1,0,4.2,0.5,5.8,1.4l84.5,48.1l0,0l-84.5-48.1c-1.6-0.9-3.7-1.4-5.8-1.4
		c-2.2,0-4.4,0.5-6.1,1.5L363.2,338.1L363.2,338.1z"/>
	
		<linearGradient id="SVGID_00000000929872654989817180000009571832045633184183_" gradientUnits="userSpaceOnUse" x1="314.8724" y1="412.1331" x2="314.8724" y2="295.6996">
		<stop  offset="0" style="stop-color:#0B4B7F"/>
		<stop  offset="0.1286" style="stop-color:#564569"/>
		<stop  offset="0.3135" style="stop-color:#883A4C"/>
		<stop  offset="0.4458" style="stop-color:#A53038"/>
		<stop  offset="0.5114" style="stop-color:#AF2A30"/>
		<stop  offset="0.7132" style="stop-color:#C64D2E"/>
		<stop  offset="1" style="stop-color:#F58220"/>
	</linearGradient>
	<path style="fill:none;stroke:url(#SVGID_00000000929872654989817180000009571832045633184183_);stroke-miterlimit:10;" d="
		M275.5,296.1l72.5,42.6c3.3,1.9,5.9,6.6,5.9,10.4v63.1l0,0v-63.1c0-3.8-2.7-8.5-5.9-10.4L275.5,296.1L275.5,296.1z"/>
	
		<linearGradient id="SVGID_00000119075978064378131270000017125700382880269996_" gradientUnits="userSpaceOnUse" x1="226.4057" y1="345.141" x2="226.4057" y2="199.4961">
		<stop  offset="0" style="stop-color:#0B4B7F"/>
		<stop  offset="0.1286" style="stop-color:#564569"/>
		<stop  offset="0.3135" style="stop-color:#883A4C"/>
		<stop  offset="0.4458" style="stop-color:#A53038"/>
		<stop  offset="0.5114" style="stop-color:#AF2A30"/>
		<stop  offset="0.7132" style="stop-color:#C64D2E"/>
		<stop  offset="1" style="stop-color:#F58220"/>
	</linearGradient>
	<path style="fill:none;stroke:url(#SVGID_00000119075978064378131270000017125700382880269996_);stroke-miterlimit:10;" d="
		M267.4,199.5v85.1c0,3.8-2.6,8.6-5.8,10.6l-76.4,49.5l0,0l76.4-49.5c3.2-2.1,5.8-6.8,5.8-10.6V199.5L267.4,199.5z"/>
	
		<linearGradient id="SVGID_00000012453188650536426390000006858164368326808987_" gradientUnits="userSpaceOnUse" x1="266.6618" y1="188.7887" x2="266.6618" y2="140.8645">
		<stop  offset="0" style="stop-color:#0B4B7F"/>
		<stop  offset="0.1286" style="stop-color:#564569"/>
		<stop  offset="0.3135" style="stop-color:#883A4C"/>
		<stop  offset="0.4458" style="stop-color:#A53038"/>
		<stop  offset="0.5114" style="stop-color:#AF2A30"/>
		<stop  offset="0.7132" style="stop-color:#C64D2E"/>
		<stop  offset="1" style="stop-color:#F58220"/>
	</linearGradient>
	<path style="fill:none;stroke:url(#SVGID_00000012453188650536426390000006858164368326808987_);stroke-miterlimit:10;" d="
		M347.7,141.3l-74.4,45.2c-2,1.2-4.8,1.8-7.4,1.8c-1.8,0-3.5-0.3-4.9-0.8L185.6,157l0,0l75.4,30.4c1.4,0.6,3.1,0.8,4.9,0.8
		c2.7,0,5.5-0.6,7.4-1.8L347.7,141.3L347.7,141.3z"/>
</g>
</svg>
