<?xml version="1.0" encoding="utf-8"?>
<!-- Generator: Adobe Illustrator 28.1.0, SVG Export Plug-In . SVG Version: 6.00 Build 0)  -->
<svg version="1.1" id="Layer_1" xmlns="http://www.w3.org/2000/svg" xmlns:xlink="http://www.w3.org/1999/xlink" x="0px" y="0px"
	 viewBox="0 0 100 100" style="enable-background:new 0 0 100 100;" xml:space="preserve">
<style type="text/css">
	
		.st0{clip-path:url(#SVGID_00000122696541509600420790000006592509589264093856_);fill:url(#SVGID_00000041271259703133588310000007517161120088717475_);}
</style>
<g>
	<defs>
		<path id="SVGID_1_" d="M46.8,82.5c0-1.7,1.4-3.2,3.2-3.2c1.7,0,3.2,1.4,3.2,3.2c0,1.7-1.4,3.2-3.2,3.2
			C48.3,85.7,46.8,84.2,46.8,82.5 M47.3,71.3V61.2c0-1.5,1.2-2.7,2.7-2.7c1.5,0,2.7,1.2,2.7,2.7v10.1c0,1.5-1.2,2.7-2.7,2.7
			C48.5,74,47.3,72.8,47.3,71.3 M45.9,47.9L24.6,84.3c-1.8,3.1,0.4,7.1,4.1,7.1h42.7c3.6,0,5.9-4,4.1-7.1L54.1,47.9
			c-0.9-1.6-2.5-2.3-4.1-2.3C48.4,45.5,46.8,46.3,45.9,47.9 M42.9,8.6L40.7,18l-12,5.4l-8.4-3.2l-8.4,7.6l4.9,8L11.9,49L0.2,51.5
			v6.2h12.9h25.3l6.9-11.7c2.1-3.6,7.3-3.6,9.4,0l6.9,11.7h26.7h11.6v-7.6l-10-1.6L85,37l4.8-9.6l-10-9.4l-7.5,5l-14.5-5l-2.1-9.4
			H42.9z"/>
	</defs>
	<clipPath id="SVGID_00000040553291277345284040000010456655990160631436_">
		<use xlink:href="#SVGID_1_"  style="overflow:visible;"/>
	</clipPath>
	
		<linearGradient id="SVGID_00000012434874427890714400000002133972947059559567_" gradientUnits="userSpaceOnUse" x1="2069.1711" y1="598.5729" x2="2073.2642" y2="598.5729" gradientTransform="matrix(24.3245 0 0 -24.3245 -50331.3281 14609.9873)">
		<stop  offset="0" style="stop-color:#AF2A30"/>
		<stop  offset="0.2783" style="stop-color:#BC402F"/>
		<stop  offset="0.8537" style="stop-color:#E47325"/>
		<stop  offset="1" style="stop-color:#F58220"/>
	</linearGradient>
	
		<rect x="0.2" y="8.6" style="clip-path:url(#SVGID_00000040553291277345284040000010456655990160631436_);fill:url(#SVGID_00000012434874427890714400000002133972947059559567_);" width="99.6" height="82.7"/>
</g>
</svg>
