<?xml version="1.0" encoding="utf-8"?>
<!-- Generator: Adobe Illustrator 28.1.0, SVG Export Plug-In . SVG Version: 6.00 Build 0)  -->
<svg version="1.1" id="Layer_1" xmlns="http://www.w3.org/2000/svg" xmlns:xlink="http://www.w3.org/1999/xlink" x="0px" y="0px"
	 viewBox="0 0 100 100" style="enable-background:new 0 0 100 100;" xml:space="preserve">
<style type="text/css">
	
		.st0{clip-path:url(#SVGID_00000016060603906534981710000014409619363325932695_);fill:url(#SVGID_00000150790431734776098380000009359974559697126319_);}
</style>
<g>
	<defs>
		<path id="SVGID_1_" d="M38,65.4c0,1.1,0.9,2,2,2c1.1,0,2-0.9,2-2c0-1.1-0.9-2-2-2C38.9,63.4,38,64.3,38,65.4 M37.4,70
			c-1.6-0.9-2.7-2.7-2.7-4.6c0-1.9,1-3.6,2.7-4.6c1.6-0.9,3.7-0.9,5.3,0c1.6,0.9,2.7,2.7,2.7,4.6c0,1.9-1,3.6-2.7,4.6
			c-0.8,0.5-1.7,0.7-2.6,0.7S38.2,70.5,37.4,70 M0.9,65.8c0,0.9,0.7,1.6,1.6,1.6h27.1c0.5,3.2,2.6,6,5.5,7.5c2.9,1.5,6.4,1.5,9.3,0
			c2.9-1.5,5-4.3,5.5-7.5h1.3c-0.3-1-0.3-2.1,0.3-3.2l0.1-0.1h-1.2l3.3-20.1c0.2-1.1-0.4-2.2-1.4-2.8c-1-0.5-2.2-0.3-3.1,0.4
			L32.6,58.5C31,60,30,62,29.7,64.2H12.3c0.4-7.3,3.3-14.2,8.3-19.5c-1.4-1.3-8.4-7.7-8.4-7.7C4.9,44.9,0.8,55.2,0.9,65.8
			 M74.9,61.2c0-1.3,1-2.3,2.3-2.3c1.3,0,2.3,1,2.3,2.3c0,1.3-1,2.3-2.3,2.3C75.9,63.5,74.9,62.5,74.9,61.2 M75.2,53.1v-7.4
			c0-1.1,0.9-2,2-2c1.1,0,2,0.9,2,2v7.4c0,1.1-0.9,2-2,2C76.1,55,75.2,54.2,75.2,53.1 M73.9,33.7L56,64.3c-1.6,2.6,0.4,6,3.4,6h35.9
			c3.1,0,5-3.3,3.4-6l-18-30.6c-0.8-1.3-2.1-2-3.4-2C76,31.7,74.7,32.4,73.9,33.7 M14.6,34.7C16,36,23,42.5,23,42.5
			c5.2-4.5,11.7-7.1,18.5-7.5c0-3.3,0-8,0-11.3C31.5,24,21.9,27.9,14.6,34.7 M44.8,34.9c6.9,0.4,13.5,3.1,18.7,7.7l6.1-8.9
			c0.1-0.2,0.3-0.3,0.4-0.4c-7.1-5.9-16-9.3-25.2-9.7C44.8,26.9,44.8,31.6,44.8,34.9"/>
	</defs>
	<clipPath id="SVGID_00000114794093755000493590000012717514006363069601_">
		<use xlink:href="#SVGID_1_"  style="overflow:visible;"/>
	</clipPath>
	
		<linearGradient id="SVGID_00000055703327242184740490000009697550010091307701_" gradientUnits="userSpaceOnUse" x1="2083.1812" y1="604.0245" x2="2086.6494" y2="604.0245" gradientTransform="matrix(28.3679 0 0 -28.3679 -59094.6289 17184.957)">
		<stop  offset="0" style="stop-color:#AF2A30"/>
		<stop  offset="0.2783" style="stop-color:#BC402F"/>
		<stop  offset="0.8537" style="stop-color:#E47325"/>
		<stop  offset="1" style="stop-color:#F58220"/>
	</linearGradient>
	
		<rect x="0.8" y="23.6" style="clip-path:url(#SVGID_00000114794093755000493590000012717514006363069601_);fill:url(#SVGID_00000055703327242184740490000009697550010091307701_);" width="99.4" height="52.9"/>
</g>
</svg>
