<?xml version="1.0" encoding="utf-8"?>
<!-- Generator: Adobe Illustrator 28.1.0, SVG Export Plug-In . SVG Version: 6.00 Build 0)  -->
<svg version="1.1" id="Layer_1" xmlns="http://www.w3.org/2000/svg" xmlns:xlink="http://www.w3.org/1999/xlink" x="0px" y="0px"
	 viewBox="0 0 100 100" style="enable-background:new 0 0 100 100;" xml:space="preserve">
<style type="text/css">
	.st0{fill:#0A4C7F;}
</style>
<path class="st0" d="M18.1,24c-1.7,0.8-3.5,1.3-5.5,1.3c-6.8,0-12.3-5.5-12.3-12.3c0-6.8,5.5-12.3,12.3-12.3
	C19.5,0.6,25,6.1,25,12.9c0,2.3-0.6,4.4-1.7,6.2l8.9,8.6c3.9-3.1,8.7-5.2,13.9-5.8v-7.3c0-1.9,1.6-3.5,3.5-3.5h7v-7
	c0-1.9,1.6-3.5,3.5-3.5c1.9,0,3.5,1.6,3.5,3.5v10.6c0,1.9-1.6,3.5-3.5,3.5h-7V22c8.2,1,15.4,5.6,19.8,12.2l1.7-1
	c-0.3-1-0.4-2.1-0.4-3.1c0-6.8,5.5-12.3,12.3-12.3C93.4,17.6,99,23.2,99,30c0,6.8-5.5,12.3-12.3,12.3c-3.2,0-6.1-1.2-8.2-3.2
	c-0.6,0.3-1.3,0.8-2.2,1.3c1.1,3,1.7,6.2,1.7,9.5c0,6.3-2.1,12.1-5.5,16.8l9.2,9c1.6-0.7,3.3-1.1,5.2-1.1c6.8,0,12.3,5.5,12.3,12.3
	c0,6.8-5.5,12.3-12.3,12.3c-6.8,0-12.3-5.5-12.3-12.3c0-2.4,0.7-4.6,1.9-6.5l-8.8-8.6c-4,3.3-8.9,5.4-14.2,6.1v7.3
	c0,1.9-1.6,3.5-3.5,3.5c-1.9,0-3.5-1.6-3.5-3.5v-7.3c-7.9-1-14.8-5.3-19.3-11.4l-2.1,1.1c0.2,0.8,0.3,1.7,0.3,2.6
	c0,6.8-5.5,12.3-12.3,12.3S0.3,77,0.3,70.2c0-6.8,5.5-12.3,12.3-12.3c3.4,0,6.4,1.4,8.7,3.5l2.1-1.1c-1.3-3.2-2-6.7-2-10.4
	c0-6.4,2.2-12.4,5.8-17.1L18.1,24z"/>
</svg>
