<?xml version="1.0" encoding="utf-8"?>
<!-- Generator: Adobe Illustrator 28.1.0, SVG Export Plug-In . SVG Version: 6.00 Build 0)  -->
<svg version="1.1" id="Layer_1" xmlns="http://www.w3.org/2000/svg" xmlns:xlink="http://www.w3.org/1999/xlink" x="0px" y="0px"
	 viewBox="0 0 100 100" style="enable-background:new 0 0 100 100;" xml:space="preserve">
<style type="text/css">
	.st0{fill:#0A4C7F;}
</style>
<g>
	<path class="st0" d="M97.5,25.1H71.7c-1.1,0-2,0.9-2,2v31.3c0,1.1,0.9,2,2,2h5.8v25c0,1.1,0.9,2,2,2h10.1c1.1,0,2-0.9,2-2v-25h5.8
		c1.1,0,2-0.9,2-2V27.1C99.5,26,98.6,25.1,97.5,25.1"/>
	<g>
		<path class="st0" d="M28.3,25.1H2.5c-1.1,0-2,0.9-2,2v31.3c0,1.1,0.9,2,2,2h5.8v25c0,1.1,0.9,2,2,2h10.1c1.1,0,2-0.9,2-2v-25h5.8
			c1.1,0,2-0.9,2-2V27.1C30.2,26,29.4,25.1,28.3,25.1"/>
		<path class="st0" d="M25,13.9c0,5.3-4.3,9.7-9.7,9.7c-5.3,0-9.7-4.3-9.7-9.7c0-5.3,4.3-9.7,9.7-9.7C20.7,4.3,25,8.6,25,13.9"/>
		<path class="st0" d="M94.3,13.9c0,5.3-4.3,9.7-9.7,9.7S75,19.3,75,13.9c0-5.3,4.3-9.7,9.7-9.7S94.3,8.6,94.3,13.9"/>
		<path class="st0" d="M59.7,22.3c0,5.3-4.3,9.7-9.7,9.7s-9.7-4.3-9.7-9.7c0-5.3,4.3-9.7,9.7-9.7S59.7,17,59.7,22.3"/>
		<path class="st0" d="M62.9,33.5h-5.3l-5.6,15.4l-1.4-12.6l1-1.1L50,33.5l-1.5,1.7l0.9,1.1l-1.4,12.6l-5.7-15.3h-5.3
			c-1.1,0-2,0.9-2,2v31.3c0,1.1,0.9,2,2,2H43v25c0,1.1,0.9,2,2,2h10.1c1.1,0,2-0.9,2-2v-25h5.8c1.1,0,2-0.9,2-2V35.5
			C64.9,34.4,64,33.5,62.9,33.5"/>
	</g>
</g>
</svg>
