<?xml version="1.0" encoding="utf-8"?>
<!-- Generator: Adobe Illustrator 28.1.0, SVG Export Plug-In . SVG Version: 6.00 Build 0)  -->
<svg version="1.1" id="Layer_1" xmlns="http://www.w3.org/2000/svg" xmlns:xlink="http://www.w3.org/1999/xlink" x="0px" y="0px"
	 viewBox="0 0 100 100" style="enable-background:new 0 0 100 100;" xml:space="preserve">
<style type="text/css">
	.st0{fill:#0A4C7F;}
</style>
<g>
	<path class="st0" d="M40.9,62.8c-2.3,0-4.5-0.9-6.1-2.5c-1.6-1.6-2.5-3.8-2.5-6.1c0-2.3,0.9-4.5,2.5-6.1c1.6-1.6,3.8-2.5,6.1-2.5
		c2.3,0,4.5,0.9,6.1,2.5c1.6,1.6,2.5,3.8,2.5,6.1c0,2.3-0.9,4.5-2.5,6.1C45.4,61.9,43.2,62.8,40.9,62.8 M54.7,49.6l-3-0.6
		c-0.3-0.6-0.6-1.2-1-1.7l1-2.9c-0.4-0.4-0.7-0.8-1.1-1.1l-2.9,1c-0.5-0.4-1.1-0.7-1.7-1l-0.6-3c-0.5-0.2-1-0.3-1.5-0.4l-2,2.3h-1
		h-1l-2-2.3c-0.5,0.1-1,0.2-1.5,0.4l-0.6,3c-0.6,0.3-1.2,0.6-1.7,1l-2.9-1c-0.4,0.4-0.8,0.7-1.1,1.1l1,2.9v0c-0.4,0.5-0.7,1.1-1,1.7
		l-3,0.6c-0.2,0.5-0.3,1-0.4,1.6l2.3,2v1v1l-2.3,2c0.1,0.5,0.2,1,0.4,1.5l3,0.6c0.3,0.6,0.6,1.2,1,1.7l-1,2.9v0
		c0.4,0.4,0.8,0.8,1.2,1.1l2.9-1c0.5,0.4,1.1,0.7,1.7,1l0.6,3c0.5,0.2,1,0.3,1.6,0.4l2-2.3h1h1l2,2.3c0.5-0.1,1-0.2,1.6-0.4l0.6-3
		c0.6-0.3,1.2-0.6,1.7-1l2.9,1c0.4-0.4,0.8-0.7,1.1-1.1l-1-2.9c0.4-0.5,0.7-1.1,1-1.7l3-0.6c0.2-0.5,0.3-1,0.4-1.6l-2.3-2v-1v-1
		l2.3-2C55.1,50.6,54.9,50.1,54.7,49.6"/>
	<path class="st0" d="M63.9,47.2c-1.4,0.4-3,0.2-4.3-0.5c-1.3-0.7-2.3-1.9-2.7-3.4c-0.4-1.4-0.2-3,0.5-4.3c0.7-1.3,1.9-2.3,3.4-2.7
		c1.4-0.4,3-0.2,4.3,0.5c1.3,0.7,2.3,1.9,2.7,3.4c0.4,1.4,0.2,3-0.5,4.3C66.5,45.8,65.3,46.7,63.9,47.2L63.9,47.2z M70.5,39.4
		c-0.1-0.2-0.1-0.4-0.2-0.7l1.2-1.8h0c-0.2-0.3-0.4-0.7-0.6-1l-2.2,0.2c-0.3-0.4-0.6-0.7-1-1l0.1-2.1c-0.3-0.2-0.7-0.4-1-0.6
		L65,33.7c-0.4-0.1-0.9-0.3-1.3-0.3l-1-1.9c-0.4,0-0.8,0-1.1,0l-0.9,2c-0.2,0-0.5,0.1-0.7,0.2c-0.2,0.1-0.4,0.1-0.7,0.2l-1.8-1.2h0
		c-0.3,0.2-0.7,0.4-1,0.6l0.3,2.2c-0.4,0.3-0.7,0.6-1,1l-2.2-0.1c-0.2,0.3-0.4,0.7-0.6,1l1.3,1.8c-0.1,0.4-0.3,0.9-0.3,1.3l-1.9,1h0
		c0,0.4,0,0.8,0,1.1l2,0.9c0,0.2,0.1,0.5,0.2,0.7c0.1,0.2,0.1,0.4,0.2,0.7l-1.2,1.8l0,0c0.2,0.3,0.4,0.7,0.6,1l2.2-0.2
		c0.3,0.4,0.6,0.7,1,1l-0.1,2.2c0.3,0.2,0.7,0.4,1,0.6l1.8-1.3c0.4,0.1,0.9,0.3,1.3,0.3l1,1.9c0.4,0,0.8,0,1.1,0l0.9-2
		c0.2,0,0.5-0.1,0.7-0.2c0.2-0.1,0.4-0.1,0.7-0.2l1.8,1.1c0.3-0.2,0.7-0.4,1-0.6L68,48.1c0.4-0.3,0.7-0.6,1-1l2.2,0.1
		c0.2-0.3,0.4-0.7,0.6-1l-1.3-1.8c0.1-0.4,0.3-0.9,0.3-1.3l1.9-1c0-0.4,0-0.8,0-1.1l-2-0.9C70.6,39.8,70.5,39.6,70.5,39.4"/>
	<path class="st0" d="M49.6,81.3c-8.3,0-16.3-3.3-22.2-9.2c-5.9-5.9-9.2-13.9-9.2-22.2c0-8.3,3.3-16.3,9.2-22.2
		c5.9-5.9,13.9-9.2,22.2-9.2c8.3,0,16.3,3.3,22.2,9.2c5.9,5.9,9.2,13.9,9.2,22.2c0,5.5-1.5,10.9-4.2,15.7
		c-2.8,4.8-6.7,8.7-11.5,11.5C60.6,79.8,55.2,81.3,49.6,81.3 M92.5,36c-1.6-4.8,0-11.1-2.9-15.1c-2.9-4-9.4-4.5-13.4-7.4
		c-4-2.9-6.5-8.9-11.2-10.5c-4.6-1.5-10.2,1.9-15.2,1.9S39,1.5,34.4,3c-4.8,1.5-7.2,7.7-11.2,10.5c-4,2.8-10.5,3.4-13.4,7.4
		c-2.9,4-1.4,10.3-2.9,15.1c-1.5,4.6-6.5,8.8-6.5,13.9s5,9.3,6.5,13.9c1.6,4.8,0,11.1,2.9,15.1c2.9,4,9.4,4.5,13.4,7.4
		c4,2.9,6.5,8.9,11.2,10.5c4.6,1.5,10.2-1.9,15.2-1.9s10.6,3.4,15.2,1.9c4.8-1.6,7.3-7.6,11.2-10.5c4-2.9,10.5-3.4,13.4-7.4
		c2.9-4,1.4-10.3,2.9-15.1C93.9,59.2,99,55,99,49.9S93.9,40.6,92.5,36"/>
</g>
</svg>
