<?xml version="1.0" encoding="utf-8"?>
<!-- Generator: Adobe Illustrator 28.1.0, SVG Export Plug-In . SVG Version: 6.00 Build 0)  -->
<svg version="1.1" id="Layer_1" xmlns="http://www.w3.org/2000/svg" xmlns:xlink="http://www.w3.org/1999/xlink" x="0px" y="0px"
	 viewBox="0 0 100 100" style="enable-background:new 0 0 100 100;" xml:space="preserve">
<style type="text/css">
	
		.st0{clip-path:url(#SVGID_00000162342425319363695840000007201736558020854173_);fill:url(#SVGID_00000125560383548853241080000005637456754339377813_);}
</style>
<g>
	<g>
		<defs>
			<path id="SVGID_1_" d="M40.5,47.9c0-0.8,0.7-1.5,1.6-1.5c0.9,0,1.6,0.7,1.6,1.5c0,0.9-0.7,1.6-1.6,1.6
				C41.2,49.5,40.5,48.8,40.5,47.9 M40.7,42.4v-5c0-0.7,0.6-1.3,1.3-1.3c0.7,0,1.3,0.6,1.3,1.3v5c0,0.7-0.6,1.3-1.3,1.3
				C41.3,43.7,40.7,43.1,40.7,42.4 M40.9,27L26.5,51.8c-0.2,0.4-0.2,0.9,0,1.3c0.2,0.4,0.7,0.7,1.1,0.7h28.7c0.5,0,0.9-0.3,1.1-0.7
				c0.2-0.4,0.2-0.9,0-1.3h0L43.2,27c-0.2-0.4-0.7-0.6-1.1-0.6C41.6,26.3,41.1,26.5,40.9,27 M15.3,41.4c0-14.7,12-26.7,26.7-26.7
				c14.7,0,26.7,12,26.7,26.7c0,14.7-12,26.7-26.7,26.7C27.3,68.1,15.3,56.1,15.3,41.4 M1.6,41.4c0,22.3,18.1,40.4,40.4,40.4
				c7.6,0,14.6-2.1,20.7-5.7L83,96.4c1.7,1.7,4,2.6,6.4,2.6c2.4,0,4.7-0.9,6.4-2.6c3.5-3.5,3.5-9.2,0-12.8l-20-20
				c4.2-6.4,6.7-14,6.7-22.3C82.5,19.1,64.3,0.9,42,0.9C19.7,0.9,1.6,19.1,1.6,41.4"/>
		</defs>
		<clipPath id="SVGID_00000160189279056881715380000017685387404257858462_">
			<use xlink:href="#SVGID_1_"  style="overflow:visible;"/>
		</clipPath>
		
			<linearGradient id="SVGID_00000134231516223382365380000014896804508623820707_" gradientUnits="userSpaceOnUse" x1="2040.2068" y1="601.6978" x2="2045.7561" y2="601.6978" gradientTransform="matrix(17.4509 0 0 -17.4509 -35601.8633 10550.166)">
			<stop  offset="0" style="stop-color:#AF2A30"/>
			<stop  offset="0.2783" style="stop-color:#BC402F"/>
			<stop  offset="0.8537" style="stop-color:#E47325"/>
			<stop  offset="1" style="stop-color:#F58220"/>
		</linearGradient>
		
			<rect x="1.6" y="0.9" style="clip-path:url(#SVGID_00000160189279056881715380000017685387404257858462_);fill:url(#SVGID_00000134231516223382365380000014896804508623820707_);" width="97.7" height="98.1"/>
	</g>
</g>
</svg>
