<?xml version="1.0" encoding="utf-8"?>
<!-- Generator: Adobe Illustrator 28.1.0, SVG Export Plug-In . SVG Version: 6.00 Build 0)  -->
<svg version="1.1" id="Layer_1" xmlns="http://www.w3.org/2000/svg" xmlns:xlink="http://www.w3.org/1999/xlink" x="0px" y="0px"
	 viewBox="0 0 100 100" style="enable-background:new 0 0 100 100;" xml:space="preserve">
<style type="text/css">
	
		.st0{clip-path:url(#SVGID_00000065763646932191772790000004014977582829509015_);fill:url(#SVGID_00000042731344353535188020000011213702861254435727_);}
</style>
<g>
	<defs>
		<path id="SVGID_1_" d="M37.5,80.4l-4.8,13c-0.3,0.8-1,3.1,2,3.1h5.1h25c2.5,0,2.3-2.4,2-3.1l-4.8-13H37.5z M46.4,48.6
			c0-1.1,0.9-2,2-2c1.1,0,2,0.9,2,2c0,1.1-0.9,2-2,2C47.3,50.7,46.4,49.8,46.4,48.6 M46.7,41.5V35c0-1,0.8-1.7,1.7-1.7
			c1,0,1.7,0.8,1.7,1.7v6.5c0,1-0.8,1.7-1.7,1.7C47.5,43.2,46.7,42.4,46.7,41.5 M45.6,24.4L29.8,51.3c-1,2.9,0.3,5.2,3,5.2h31.5
			c3-0.6,4.4-2.9,3-5.2L51.6,24.4c-1-1.1-2.1-1.7-3.2-1.7C47.3,22.7,46.3,23.3,45.6,24.4 M10,62.2v-46c0-2.1,1.7-3.8,3.8-3.8h72.3
			c2.1,0,3.8,1.7,3.8,3.8v46c0,2.1-1.7,3.8-3.8,3.8H13.8C11.7,66,10,64.3,10,62.2 M1.8,3.4c-1,0-1.7,0.8-1.7,1.7v70.3
			c0,0.9,0.8,1.7,1.7,1.7h96.4c1,0,1.7-0.8,1.7-1.7V64.2v-59c0-0.9-0.8-1.7-1.7-1.7H1.8z"/>
	</defs>
	<clipPath id="SVGID_00000142145467058775710050000014279460320359141309_">
		<use xlink:href="#SVGID_1_"  style="overflow:visible;"/>
	</clipPath>
	
		<linearGradient id="SVGID_00000127730569468272885840000007427941991083050171_" gradientUnits="userSpaceOnUse" x1="2036.2754" y1="611.1021" x2="2041.39" y2="611.1021" gradientTransform="matrix(19.5147 0 0 -19.5147 -39737.2109 11975.4795)">
		<stop  offset="0" style="stop-color:#AF2A30"/>
		<stop  offset="0.2783" style="stop-color:#BC402F"/>
		<stop  offset="0.8537" style="stop-color:#E47325"/>
		<stop  offset="1" style="stop-color:#F58220"/>
	</linearGradient>
	
		<rect x="0.1" y="3.4" style="clip-path:url(#SVGID_00000142145467058775710050000014279460320359141309_);fill:url(#SVGID_00000127730569468272885840000007427941991083050171_);" width="99.8" height="93.2"/>
</g>
</svg>
