<?xml version="1.0" encoding="utf-8"?>
<!-- Generator: Adobe Illustrator 28.1.0, SVG Export Plug-In . SVG Version: 6.00 Build 0)  -->
<svg version="1.1" id="Layer_1" xmlns="http://www.w3.org/2000/svg" xmlns:xlink="http://www.w3.org/1999/xlink" x="0px" y="0px"
	 viewBox="0 0 1366 485" style="enable-background:new 0 0 1366 485;" xml:space="preserve">
<style type="text/css">
	.st0{fill:url(#SVGID_1_);}
</style>
<linearGradient id="SVGID_1_" gradientUnits="userSpaceOnUse" x1="3702.136" y1="288.0279" x2="3704.9128" y2="288.0279" gradientTransform="matrix(456.433 0 0 -456.433 -1689784 131707.9219)">
	<stop  offset="0" style="stop-color:#AF2A30"/>
	<stop  offset="0.2783" style="stop-color:#BC402F"/>
	<stop  offset="0.8537" style="stop-color:#E47325"/>
	<stop  offset="1" style="stop-color:#F58220"/>
</linearGradient>
<path class="st0" d="M15.5,93v368.9c0,7.9,6.4,14.3,14.4,14.4h1312.1c7.9,0,14.3-6.4,14.4-14.4V96.6c0-7.9-6.4-14.3-14.4-14.4H776.2
	c-9.5,0-17.1-7.7-17.1-17.1v-42c0-7.9-6.4-14.3-14.4-14.4H7V6.1l737.8,0c9.5,0,17.1,7.7,17.1,17.1v42c0,7.9,6.4,14.3,14.4,14.4
	h565.7c9.5,0,17.1,7.7,17.1,17.1v365.2c0,9.5-7.7,17.1-17.1,17.1H29.8c-9.5,0-17.1-7.7-17.1-17.1V93H15.5L15.5,93z"/>
</svg>
